<?xml version="1.0"?>
<svg xmlns="http://www.w3.org/2000/svg" xmlns:xlink="http://www.w3.org/1999/xlink" id="Layer_2" data-name="Layer 2" viewBox="0 0 128 128" width="512" height="512"><defs><linearGradient id="linear-gradient" x1="112.334" y1="112.047" x2="15.658" y2="15.372" gradientUnits="userSpaceOnUse"><stop offset="0" stop-color="#06daf7"/><stop offset="1" stop-color="#ff6ca8"/></linearGradient></defs><title>BLOCKCHAIN</title><path d="M125.19,46.011a1.75,1.75,0,0,0,.911-1.536V29.85a1.771,1.771,0,0,0-2.589-1.536l-13.786,7.525L99.134,30.057l-.448-.245,11.91-6.82a1.75,1.75,0,1,0-1.74-3.037L94.231,28.331a1.8,1.8,0,0,0-.88,1.519v3.565L80.339,25.266A1.713,1.713,0,0,0,80.375,25V10.374a1.793,1.793,0,0,0-.88-1.519L64.87.479a1.751,1.751,0,0,0-1.74,0L48.5,8.855a1.793,1.793,0,0,0-.88,1.519V25a1.713,1.713,0,0,0,.036.267L34.648,33.414V29.85a1.79,1.79,0,0,0-.88-1.519L19.144,19.955a1.751,1.751,0,0,0-1.74,0L2.778,28.331A1.8,1.8,0,0,0,1.9,29.85V44.475a1.75,1.75,0,0,0,.911,1.536L16.523,53.5V73.538L2.778,81.41a1.792,1.792,0,0,0-.88,1.519v5.4a1.75,1.75,0,0,0,3.5,0V85.878l11.125,6.073v10.637L4.487,96.018A1.75,1.75,0,1,0,2.81,99.09l14.625,7.983a1.778,1.778,0,0,0,1.678,0l12.418-6.779,16.1,10.719v7.253a1.75,1.75,0,0,0,.911,1.536l14.625,7.983a1.778,1.778,0,0,0,1.678,0L79.464,119.8a1.75,1.75,0,0,0,.911-1.536v-7.253l16.1-10.719,12.418,6.779a1.778,1.778,0,0,0,1.678,0L125.19,99.09a1.75,1.75,0,0,0,.911-1.536V82.929a1.8,1.8,0,0,0-.88-1.519l-13.745-7.872V53.5Zm-50.6,57.838L64,109.631l-10.592-5.782-.448-.245L64,97.282,75.04,103.6ZM7.233,82.892l11.04-6.322,11.04,6.322-.448.245L18.273,88.918,7.681,83.136ZM31.148,43.437,20.023,49.509V38.872L31.148,32.8Zm1.6,37.391-12.728-7.29V53.5l11.594-6.329L47.625,57.587V70.355ZM51.125,23.961V13.324L62.25,19.4V30.034Zm25.75,0L65.75,30.034V19.4l11.125-6.074ZM64,50.278,75.04,56.6l-.448.245L64,62.627,53.408,56.845,52.96,56.6ZM51.125,59.587,62.25,65.66V76.3L51.125,70.225ZM65.75,65.66l11.125-6.073V70.225L65.75,76.3Zm14.625-8.073L96.383,47.168,107.977,53.5V73.538l-12.728,7.29L80.375,70.355Zm27.6-18.715V49.509L96.852,43.437V32.8ZM96.852,96.516V85.878l11.125,6.073v10.637Zm23.467-13.38-10.592,5.782L99.134,83.136l-.448-.245,11.04-6.322,11.04,6.322Zm-8.842-33.627V38.872L122.6,32.8V43.437ZM93.413,44.924,78.567,54.587,65.75,47.247V34.022l11.74-6.41,15.861,9.932v6.93A1.746,1.746,0,0,0,93.413,44.924ZM64,4.015l11.039,6.323L64.484,16.1,64,16.364l-.484-.264L52.961,10.337Zm-13.49,23.6,11.74,6.41V47.247l-12.817,7.34L34.587,44.924a1.746,1.746,0,0,0,.061-.45v-6.93ZM18.273,23.49l11.04,6.322-.448.245L18.273,35.839,7.681,30.057l-.448-.245ZM5.4,32.8l11.125,6.073V49.509L5.4,43.437ZM20.023,91.951l11.125-6.073V96.516l-11.125,6.072ZM34.551,98.1a1.733,1.733,0,0,0,.1-.547V83.773L49.492,73.321,62.25,80.285V94.251L48.5,102.123a1.8,1.8,0,0,0-.88,1.519v3.166Zm16.574,11.967v-3.477l11.125,6.073V123.3l-11.125-6.072ZM65.75,123.3V112.664l11.125-6.073v10.638Zm14.625-19.659a1.79,1.79,0,0,0-.88-1.519L65.75,94.251V80.285l12.758-6.964L93.352,83.773V97.554a1.733,1.733,0,0,0,.1.547l-13.074,8.707Zm31.1-1.054V91.951L122.6,85.878V96.516Zm3.046-78.368a1.748,1.748,0,0,1,2.389-.648l2,1.143a1.75,1.75,0,0,1-1.74,3.037l-2-1.143A1.751,1.751,0,0,1,114.522,24.22Z" style="fill:url(#linear-gradient)"/></svg>
