<svg id="Capa_1" enable-background="new 0 0 512 512" height="512" viewBox="0 0 512 512" width="512" xmlns="http://www.w3.org/2000/svg"><g><g><path d="m141.867 502h303.456c11.301 0 20.463-9.161 20.463-20.463v-454.441c0-9.442-7.654-17.096-17.096-17.096h-306.822" fill="#c4ead9"/><g><g><g><g><path d="m390.595 221.464v-149.821l-61.642-61.643h-262.277c-11.301 0-20.463 9.162-20.463 20.463v451.074c0 11.301 9.162 20.463 20.463 20.463h303.456c11.301 0 20.463-9.162 20.463-20.463v-156.268" fill="#e5ecec"/></g><path d="m328.953 71.643h61.642l-61.642-61.643z" fill="#9bc6ff"/><g><g><path d="" fill="#e5ecec"/></g><g><path d="m390.6 282c-4.114 0-7.913-2.621-9.36-6.477-1.446-3.854-.335-8.326 2.766-11.04 3.192-2.793 7.91-3.243 11.584-1.137 3.564 2.044 5.554 6.23 4.87 10.287-.803 4.765-5.02 8.367-9.86 8.367z"/></g></g></g></g></g></g><g><path d="m333.227 462.34h-229.645c-5.523 0-10-4.477-10-10s4.477-10 10-10h229.645c5.523 0 10 4.477 10 10s-4.477 10-10 10z"/></g><g><g><path d="m268.853 330.391h36.391c15.454 0 27.982 12.528 27.982 27.982v54.835h-229.644v-54.838c0-15.453 12.527-27.98 27.98-27.98h36.867" fill="#9bc6ff"/><g><g><g><path d="m138.4 159.497-.004 36.745h-.983c-8.591 0-15.909 6.681-16.214 15.267-.32 9.014 6.892 16.423 15.834 16.423h2.8l1.381 6.334c0 45.321 54.476 64.562 61.172 65.521l-7.951 30.604h47.397l-7.951-30.605c6.694-.958 61.173-19.982 61.173-65.52l1.38-6.334h3.341c8.942 0 16.154-7.409 15.834-16.423-.305-8.586-7.622-15.267-16.214-15.267h-1.524l-.004-36.745" fill="#ffcbbe"/></g></g><g><g><g><path d="m179.997 231.323c-5.523 0-10-4.477-10-10v-13.142c0-5.523 4.477-10 10-10s10 4.477 10 10v13.142c0 5.523-4.477 10-10 10z"/></g></g><g><g><path d="m256.812 231.323c-5.523 0-10-4.477-10-10v-13.142c0-5.523 4.477-10 10-10s10 4.477 10 10v13.142c0 5.523-4.477 10-10 10z"/></g></g></g><g><path d="m218.423 275.439c-8.143 0-15.735-4.381-19.814-11.434-2.765-4.781-1.131-10.898 3.65-13.663 4.78-2.767 10.898-1.131 13.663 3.65.197.339.958 1.447 2.501 1.447 1.544 0 2.305-1.108 2.502-1.447 2.765-4.781 8.883-6.415 13.663-3.65 4.781 2.765 6.414 8.882 3.649 13.663-4.079 7.052-11.671 11.434-19.814 11.434z"/></g><path d="m297.872 196.243s15.569-22.939 15.577-65.453c.005-29.305-19.124-56.168-19.165-56.145l-2.691 2.153c-18.809 15.051-25.914 18.217-66.941 6.968-37.506-15.432-51.47 17.225-78.786 16.284-34.611-1.193-7.469 96.194-7.469 96.194s11.4-35.39 19.321-35.39c0 0 63.368 2.343 74.599 1.641 13.399-.837 30.243-5.006 30.279-18.431z" fill="#ffcb7c"/></g></g><g><g><path d="m250.17 371.375 19.684-48.452-25.144-9.738-26.323 19.406z" fill="#e5ecec"/></g><g><g><path d="m186.639 371.375-19.684-48.452 25.144-9.738 26.323 19.406z" fill="#e5ecec"/></g><g><path d="m448.691 0h-382.015c-16.797 0-30.463 13.666-30.463 30.463v451.074c0 16.797 13.666 30.463 30.463 30.463h378.647c16.797 0 30.463-13.665 30.463-30.463v-454.441c.001-14.941-12.155-27.096-27.095-27.096zm-109.738 34.142 27.501 27.5h-27.501zm116.834 447.395c0 5.769-4.694 10.463-10.463 10.463h-46.579c1.197-3.264 1.851-6.789 1.851-10.463v-156.267c0-5.523-4.477-10-10-10s-10 4.477-10 10v156.268c0 5.769-4.693 10.463-10.463 10.463h-303.457c-5.769 0-10.463-4.694-10.463-10.463v-451.075c0-5.769 4.694-10.463 10.463-10.463h252.277v51.643c0 5.523 4.477 10 10 10h51.643v139.821c0 5.523 4.477 10 10 10s10-4.477 10-10v-149.821c0-2.629-1.069-5.212-2.929-7.071l-44.571-44.572h95.595c3.913 0 7.096 3.183 7.096 7.096z"/><path d="m305.244 320.391h-25.716c-.127-.487-.292-.966-.493-1.434-1.063-2.461-3.069-4.392-5.569-5.36l-23.089-8.941c6.855-2.998 14.916-7.293 22.503-12.84 20.052-14.658 31.099-33.412 32.1-54.402 5.072-1.028 9.707-3.561 13.393-7.38 4.914-5.092 7.482-11.797 7.23-18.88-.33-9.295-5.541-17.245-13.172-21.528 4.951-11.706 11.012-31.596 11.017-58.835.003-13.604-3.517-28.143-10.461-43.211-2.673-5.801-5.341-10.504-7.109-13.427-3.717-6.148-4.641-7.024-6.535-8.135-3.575-2.096-8.072-1.771-11.308.818l-2.691 2.153c-15.751 12.605-19.55 15.649-57.479 5.288-26.646-10.713-44.102-.746-58.147 7.272-8.257 4.714-15.377 8.781-23.509 8.505-8.043-.275-14.854 2.834-19.703 8.998-8.416 10.694-10.354 30.532-5.927 60.648 1.658 11.28 3.886 21.724 5.6 28.999-8.605 3.989-14.618 12.443-14.974 22.454-.251 7.083 2.316 13.788 7.23 18.88 3.553 3.681 7.989 6.167 12.848 7.263.969 20.949 12.015 39.714 32.093 54.43 7.715 5.654 15.893 10.009 22.802 13.026l-22.835 8.843c-2.499.968-4.506 2.899-5.569 5.36-.202.468-.366.947-.493 1.434h-25.72c-20.942 0-37.98 17.038-37.98 37.98v54.838c0 5.523 4.477 10 10 10h229.645c5.523 0 10-4.477 10-10v-54.836c.001-20.941-17.038-37.98-37.982-37.98zm-59.023 4.103 10.542 4.083-9.525 23.445-14.445-17.628zm-103.997-213.073c.758-.963 1.472-1.443 3.297-1.378 13.795.469 24.59-5.688 34.113-11.125 13.001-7.423 23.272-13.288 41.211-5.905.378.155.766.288 1.161.396 39.201 10.748 51.474 9.258 69.564-3.975 5.049 9.378 11.881 25.079 11.878 41.354-.003 19.817-3.649 35.05-7.203 45.194l-25.364-37.52c-1.895-2.803-5.026-4.4-8.286-4.4-.97 0-1.952.142-2.915.436-4.199 1.28-7.072 5.148-7.084 9.538-.013 4.929-10.845 7.85-20.902 8.478-8.805.548-56.119-1.008-73.606-1.654-.123-.004-.247-.007-.37-.007-6.891 0-12.03 5.287-16.296 12.551-.37-2.159-.725-4.37-1.054-6.61-4.945-33.629.17-43.231 1.856-45.373zm8.99 122.846c0-.716-.077-1.43-.229-2.13l-1.381-6.333c-1.001-4.594-5.068-7.87-9.771-7.87h-2.8c-1.6 0-3.094-.635-4.206-1.787-.644-.666-1.711-2.109-1.634-4.281.11-3.1 2.9-5.622 6.22-5.622.186 0 .37-.006.554-.016.077.003.153.012.231.014 4.464.085 8.364-2.73 9.718-6.932 3.805-11.812 9.215-24.088 12.383-28.356 13.625.49 62.273 2.171 72.642 1.521 15.123-.944 24.545-4.78 30.384-9.479l26.263 38.848c1.858 2.749 4.958 4.396 8.275 4.399h.009c.254 0 .507-.013.758-.032.253.019.508.032.766.032 3.32 0 6.11 2.522 6.22 5.622.077 2.171-.991 3.614-1.634 4.281-1.112 1.152-2.606 1.787-4.207 1.787h-3.34c-4.702 0-8.77 3.276-9.771 7.871l-1.38 6.333c-.152.7-.229 1.414-.229 2.129 0 36.99-46.101 54.451-52.59 55.621-2.818.403-5.331 1.989-6.908 4.359s-2.069 5.299-1.354 8.055l2.961 11.396-8.759 6.457-9.213-6.792 2.873-11.06c.716-2.755.264-5.679-1.313-8.049s-4.049-3.949-6.868-4.352c-6.564-1.194-52.67-18.725-52.67-55.634zm39.373 90.227 13.429 9.9-14.446 17.628-9.524-23.445zm132.64 78.714h-209.645v-44.838c0-9.914 8.065-17.98 17.98-17.98h31.696l14.117 34.749c1.328 3.269 4.279 5.595 7.767 6.124.501.076 1.001.113 1.499.113 2.97 0 5.818-1.325 7.734-3.662l24.03-29.324 24.03 29.324c1.915 2.337 4.764 3.662 7.734 3.662.497 0 .998-.037 1.499-.113 3.488-.528 6.439-2.855 7.767-6.124l14.117-34.749h31.693c9.916 0 17.982 8.067 17.982 17.982z"/></g></g></g></g></g></svg>