<svg height="512" viewBox="0 0 40 60" width="512" xmlns="http://www.w3.org/2000/svg"><g id="Page-1" fill="none" fill-rule="evenodd"><g id="005---Batteries"><path id="Shape" d="m39 10c0 2.76-8.51 5-19 5s-19-2.24-19-5c0-2 4.49-3.74 10.98-4.54l-.92 2.29c-.0497635.09555049-.060518.20668033-.03.31.35 1.08 4.24 1.94 8.97 1.94s8.62-.86 8.97-1.94c.030518-.10331967.0197635-.21444951-.03-.31l-.92-2.29c6.49.8 10.98 2.54 10.98 4.54z" fill="#9e9e9e" fill-rule="nonzero"/><path id="Shape" d="m20.01 5h-.01" stroke="#000" stroke-linecap="round" stroke-linejoin="round" stroke-width="2"/><g fill-rule="nonzero"><path id="Shape" d="m39 29v25c0 2.76-8.51 5-19 5s-19-2.24-19-5v-25c0 2.76 8.51 5 19 5s19-2.24 19-5z" fill="#607d8b"/><path id="Shape" d="m36 31.688v22.312c0 2.627-7.713 4.778-17.5 4.98.5.01.994.02 1.5.02 10.49 0 19-2.24 19-5v-25c0 .99-1.11 1.911-3 2.688z" fill="#37474f"/><path id="Shape" d="m39 24v5c0 2.76-8.51 5-19 5s-19-2.24-19-5v-5c0 2.76 8.51 5 19 5s19-2.24 19-5z" fill="#00bcd4"/><path id="Shape" d="m36 26.688v2.312c0 2.627-7.713 4.778-17.5 4.98.5.01.994.02 1.5.02 10.49 0 19-2.24 19-5v-5c0 .99-1.11 1.911-3 2.688z" fill="#00838f"/><path id="Shape" d="m39 10v14c0 2.76-8.51 5-19 5s-19-2.24-19-5v-14c0 2.76 8.51 5 19 5s19-2.24 19-5z" fill="#ff9801"/><path id="Shape" d="m36 12.688v11.312c0 2.627-7.713 4.778-17.5 4.98.5.01.994.02 1.5.02 10.49 0 19-2.24 19-5v-14c0 .99-1.11 1.911-3 2.688z" fill="#f57c00"/><path id="Shape" d="m27 3c0 1.11-3.12 2-6.99 2h-.01c-3.87 0-7-.89-7-2-.0016261-.03034543.0017524-.06075164.01-.09.0004316-.04180165.0107095-.08291308.03-.12.35-1 3.33-1.79 6.96-1.79s6.61.79 6.96 1.79c.0192905.03708692.0295684.07819835.03.12.0082476.02924836.0116261.05965457.01.09z" fill="#9e9e9e"/><path id="Shape" d="m28.97 8.06c-.35 1.08-4.24 1.94-8.97 1.94s-8.62-.86-8.97-1.94c-.030518-.10331967-.0197635-.21444951.03-.31l.92-2.29 1.03-2.55c-.0082476.02924836-.0116261.05965457-.01.09 0 1.11 3.13 2 7 2h.01c3.87 0 6.99-.89 6.99-2 .0016261-.03034543-.0017524-.06075164-.01-.09h.01l1.02 2.55.92 2.29c.0497635.09555049.060518.20668033.03.31z" fill="#707070"/><path id="Shape" d="m12.065 55.512c-.0437822-.0002051-.0875182-.002876-.131-.008-2.53431881-.252739-5.01928683-.8676668-7.379-1.826-.33982884-.168865-.55479864-.515528-.555-.895v-9.783c0-.5522847.44771525-1 1-1s1 .4477153 1 1v9.129c2.0061863.6939197 4.0838175 1.1608333 6.194 1.392.5206207.070279.8980968.5314238.8641303 1.0556674-.0339666.5242436-.4677935.9328228-.9931303.9353326z" fill="#f5f5f5"/><path id="Shape" d="m5 40c-.55228475 0-1-.4477153-1-1v-2c0-.5522847.44771525-1 1-1s1 .4477153 1 1v2c0 .5522847-.44771525 1-1 1z" fill="#f5f5f5"/><path id="Shape" d="m20 60c9.939 0 20-2.061 20-6v-44c0-3.487-7.459-4.941-11.268-5.456l-.8-2.007c0-.008-.01-.013-.014-.021s0-.042-.01-.06c-.84-2.387-7.187-2.456-7.908-2.456s-7.068.069-7.9 2.433c-.011.03-.007.06-.016.09l-.008.013-.807 2.008c-3.804.514-11.269 1.968-11.269 5.456v44c0 3.939 10.061 6 20 6zm0-2c-11.646 0-18-2.643-18-4v-22.228c3.422 2.128 10.741 3.228 18 3.228s14.578-1.1 18-3.228v22.228c0 1.357-6.354 4-18 4zm-6.674-53.2c2.106 1.146 6.047 1.2 6.674 1.2h.01c.6 0 4.559-.05 6.669-1.2l1.2 3.009c-.767.471-3.5 1.191-7.879 1.191-4.476 0-7.232-.752-7.9-1.156zm6.674-2.8c1.9983281-.11645216 3.9969902.22275619 5.845.992-.655.415-2.677 1.008-5.845 1.008-3.146 0-5.166-.586-5.833-1 .666-.415 2.689-1 5.833-1zm-9.591 4.693-.268.666c-.145933.31921949-.16837847.68119722-.063 1.016.827 2.499 8.41 2.625 9.922 2.625s9.095-.126 9.923-2.625c.103711-.32919713.0830744-.68500042-.058-1l-.273-.681c6.241.985 8.408 2.642 8.408 3.306 0 1.357-6.354 4-18 4s-18-2.643-18-4c0-.664 2.168-2.321 8.409-3.307zm-8.409 6.079c3.422 2.128 10.741 3.228 18 3.228s14.578-1.1 18-3.228v11.228c0 1.357-6.354 4-18 4s-18-2.643-18-4zm0 14c3.422 2.128 10.741 3.228 18 3.228s14.578-1.1 18-3.228v2.228c0 1.357-6.354 4-18 4s-18-2.643-18-4z" fill="#000"/><path id="Shape" d="m17 23h2v2c0 .5522847.4477153 1 1 1s1-.4477153 1-1v-2h2c.5522847 0 1-.4477153 1-1s-.4477153-1-1-1h-2v-2c0-.5522847-.4477153-1-1-1s-1 .4477153-1 1v2h-2c-.5522847 0-1 .4477153-1 1s.4477153 1 1 1z" fill="#000"/></g></g></g></svg>