<svg id="Capa_1" enable-background="new 0 0 512 512" height="512" viewBox="0 0 512 512" width="512" xmlns="http://www.w3.org/2000/svg"><g><g><path d="m507.38 135.103-42.806 42.807c-3.083 3.083-7.117 4.621-11.151 4.614-4.034.007-8.068-1.531-11.144-4.606l-108.197-108.199c-6.159-6.159-6.151-16.136.007-22.295l42.806-42.807c6.159-6.159 16.136-6.151 22.295-.007l108.197 108.198c6.152 6.152 6.152 16.136-.007 22.295z" fill="#ffe14d"/><path d="m507.38 135.103-42.806 42.807c-3.083 3.083-7.117 4.621-11.151 4.614-4.034.007-8.068-1.531-11.144-4.606l-54.099-54.099 65.108-65.109 54.099 54.099c6.152 6.151 6.152 16.135-.007 22.294z" fill="#fabe2c"/><path d="m494.639 239.966-267.692 267.695c-2.897 2.897-6.701 4.339-10.49 4.339-3.804 0-7.593-1.441-10.497-4.346l-201.61-201.613c-5.795-5.795-5.802-15.193-.007-20.987l267.691-267.696c5.795-5.795 15.192-5.787 20.994 0l201.61 201.613c5.788 5.802 5.788 15.193.001 20.995z" fill="#59c36a"/><path d="m494.639 239.966-267.692 267.695c-2.897 2.897-6.701 4.339-10.49 4.339-3.804 0-7.593-1.441-10.497-4.346l-100.805-100.807 288.679-288.683 100.805 100.806c5.787 5.803 5.787 15.194 0 20.996z" fill="#00a66c"/><path d="m502.068 232.537-54.633 54.634-222.605-222.608 54.633-54.634c5.795-5.795 15.192-5.787 20.994 0l201.61 201.613c5.788 5.802 5.788 15.193.001 20.995z" fill="#dfe7f4"/><path d="m502.068 232.537-54.633 54.634-111.303-111.304 65.131-65.131 100.805 100.806c5.787 5.802 5.787 15.193 0 20.995z" fill="#c7cfe1"/></g><path d="m262.371 342.233-109.404 16.801-22.09 3.394c-.771.12-1.534.177-2.298.177-7.269 0-13.661-5.303-14.8-12.721-1.259-8.188 4.363-15.846 12.544-17.112l62.508-9.603 39.718-6.102-54.553-54.553c-8.549-8.549-4.208-23.233 8.323-25.435l109.404-16.801 22.09-3.394c8.181-1.266 15.846 4.349 17.105 12.537s-4.363 15.846-12.544 17.112l-62.508 9.602-39.718 6.102 54.553 54.553c8.06 8.062 4.671 23.137-8.33 25.443z" fill="#ffe14d"/><g fill="#fabe2c"><path d="m318.374 246.533-62.508 9.602 35.857-35.857 22.09-3.394c8.181-1.266 15.846 4.349 17.105 12.537 1.258 8.188-4.363 15.846-12.544 17.112z"/><path d="m262.371 342.233-109.404 16.801 35.864-35.864 39.718-6.102-16.808-16.808 21.213-21.213 37.745 37.745c8.062 8.06 4.673 23.135-8.328 25.441z"/></g></g></svg>