<?xml version="1.0" encoding="iso-8859-1"?>
<!-- Generator: Adobe Illustrator 19.0.0, SVG Export Plug-In . SVG Version: 6.00 Build 0)  -->
<svg version="1.1" id="Capa_1" xmlns="http://www.w3.org/2000/svg" xmlns:xlink="http://www.w3.org/1999/xlink" x="0px" y="0px"
	 viewBox="0 0 512 512" style="enable-background:new 0 0 512 512;" xml:space="preserve">
<path style="fill:#40596B;" d="M91.159,490.667c0,11.733,9.6,21.333,21.333,21.333h286.933c11.733,0,21.333-9.6,21.333-21.333
	v-278.4h-329.6V490.667z"/>
<path style="fill:#FFD15C;" d="M400.493,28.8h-288c-11.733,0-21.333,9.6-21.333,21.333v147.2h329.6v-147.2
	C421.826,38.4,412.226,28.8,400.493,28.8z"/>
<rect x="91.159" y="197.333" style="fill:#F2F2F2;" width="329.6" height="14.933"/>
<rect x="198.893" style="fill:#CDD6E0;" width="115.2" height="28.8"/>
<polygon style="fill:#FFFFFF;" points="259.693,260.267 207.426,364.8 233.026,364.8 180.759,462.933 302.359,336 268.226,336 
	332.226,260.267 "/>
<polygon style="fill:#40596B;" points="300.226,105.6 263.959,105.6 263.959,69.333 249.026,69.333 249.026,105.6 212.759,105.6 
	212.759,121.6 249.026,121.6 249.026,156.8 263.959,156.8 263.959,121.6 300.226,121.6 "/>
<g>
</g>
<g>
</g>
<g>
</g>
<g>
</g>
<g>
</g>
<g>
</g>
<g>
</g>
<g>
</g>
<g>
</g>
<g>
</g>
<g>
</g>
<g>
</g>
<g>
</g>
<g>
</g>
<g>
</g>
</svg>
