<?xml version="1.0" encoding="iso-8859-1"?>
<!-- Generator: Adobe Illustrator 19.0.0, SVG Export Plug-In . SVG Version: 6.00 Build 0)  -->
<svg version="1.1" id="Layer_1" xmlns="http://www.w3.org/2000/svg" xmlns:xlink="http://www.w3.org/1999/xlink" x="0px" y="0px"
	 viewBox="0 0 512 512" style="enable-background:new 0 0 512 512;" xml:space="preserve">
<polygon style="fill:#FFC222;" points="242.801,417.056 348.076,417.056 485.603,337.222 485.603,156.97 221.902,136.071 "/>
<polygon style="fill:#FEDF77;" points="0,156.97 0,417.056 242.801,417.056 242.801,136.071 "/>
<path style="fill:#F17A00;" d="M434.579,270.062v-31.347h-36.915v-35.462h-31.347v35.462H328.07v-35.462h-31.347v35.462h-38.247
	v-35.462h-15.673l-10.45,83.76l10.45,83.76h15.673v-35.462h38.247v35.462h31.347v-35.462h38.247v35.462h31.347v-35.462h36.915
	v-31.347h-36.915v-33.903H434.579z M296.723,303.964h-38.247v-33.903h38.247V303.964z M366.317,303.964H328.07v-33.903h38.247
	V303.964z"/>
<path style="fill:#FF9500;" d="M227.127,203.252v35.462H188.88v-35.462h-31.347v35.462h-38.247v-35.462H87.939v35.462H51.023v31.347
	h36.915v33.903H51.023v31.347h36.915v35.462h31.347v-35.462h38.247v35.462h31.347v-35.462h38.247v35.462h15.673v-167.52H227.127z
	 M157.533,303.964h-38.247v-33.903h38.247V303.964z M227.127,303.964H188.88v-33.903h38.247V303.964z"/>
<polygon style="fill:#D61322;" points="242.801,60.617 221.902,108.794 242.801,156.97 485.603,156.97 485.603,60.617 "/>
<rect y="60.615" style="fill:#EC2533;" width="242.803" height="96.35"/>
<rect x="44.73" y="30.983" style="fill:#FF9500;" width="31.347" height="59.266"/>
<rect x="409.527" y="30.983" style="fill:#F17A00;" width="31.347" height="59.266"/>
<path style="fill:#D61322;" d="M428.92,314.857l-20.899,83.08l20.899,83.08c45.884,0,83.08-37.196,83.08-83.08
	C512,352.052,474.804,314.857,428.92,314.857z"/>
<path style="fill:#EC2533;" d="M345.84,397.937c0,45.884,37.196,83.08,83.08,83.08v-166.16
	C383.037,314.857,345.84,352.052,345.84,397.937z"/>
<polygon style="fill:#FFC222;" points="462.065,357.005 428.92,390.15 418.47,419.453 428.92,434.481 484.231,379.17 "/>
<polygon style="fill:#FEDF77;" points="413.45,405.62 395.775,387.945 373.61,410.111 413.45,449.952 428.92,434.481 428.92,390.15 
	"/>
<g>
</g>
<g>
</g>
<g>
</g>
<g>
</g>
<g>
</g>
<g>
</g>
<g>
</g>
<g>
</g>
<g>
</g>
<g>
</g>
<g>
</g>
<g>
</g>
<g>
</g>
<g>
</g>
<g>
</g>
</svg>
