<svg id="Capa_1" enable-background="new 0 0 512 512" height="512" viewBox="0 0 512 512" width="512" xmlns="http://www.w3.org/2000/svg"><g><path d="m430.83 162.56v299.44h-430.83v-299.44l215.42-50z" fill="#eaf4f4"/><path d="m430.83 162.56v299.44h-215.41v-349.44z" fill="#cae8ea"/><g><path d="m0 35.46h430.83v127.1h-430.83z" fill="#ff668e"/></g><path d="m215.42 35.46h215.41v127.1h-215.41z" fill="#e04496"/><g><g><path d="m157.004 0h30v102.766h-30z" fill="#ffe26f"/></g><g><path d="m70.181 0h30v102.766h-30z" fill="#ffe26f"/></g><g><path d="m330.65 0h30v102.766h-30z" fill="#ffc271"/></g><g><path d="m243.827 0h30v102.766h-30z" fill="#ffc271"/></g></g><g><g><path d="m70.146 215h60.063v30h-60.063z" fill="#cae8ea"/></g><g><path d="m185.38 215h60.07v30h-60.07z" fill="#cae8ea"/></g><g><path d="m300.624 215h60.063v30h-60.063z" fill="#a7d2db"/></g></g><g><g><path d="m70.146 295h60.063v30h-60.063z" fill="#cae8ea"/></g><g><path d="m185.38 295h60.07v30h-60.07z" fill="#cae8ea"/></g></g><g><g><path d="m70.146 376h60.063v30h-60.063z" fill="#cae8ea"/></g><g><path d="m185.38 376h60.07v30h-60.07z" fill="#cae8ea"/></g></g><path d="m289.6 401c0 61.21 49.88 111 111.2 111l14.2-111-14.2-111c-61.32 0-111.2 49.79-111.2 111z" fill="#ff668e"/><path d="m512 401c0 61.21-49.88 111-111.2 111v-222c61.32 0 111.2 49.79 111.2 111z" fill="#e04496"/><g><path d="m450.62 386v30h-64.82v-64.81h30v34.81z" fill="#eaf4f4"/></g><g fill="#a7d2db"><path d="m215.42 215h30.03v30h-30.03z"/><path d="m215.42 295h30.03v30h-30.03z"/><path d="m215.42 376h30.03v30h-30.03z"/></g><path d="m450.62 386v30h-49.82v-64.81h15v34.81z" fill="#cae8ea"/></g></svg>