<svg id="Icons" enable-background="new 0 0 512 512" height="512" viewBox="0 0 512 512" width="512" xmlns="http://www.w3.org/2000/svg"><g><g><circle cx="256" cy="256" fill="#fbcb74" r="256"/></g><g><g><g><g><path d="m415.87 190.38v189.27c0 12.85-10.42 23.27-23.27 23.27h-273.2c-12.85 0-23.27-10.42-23.27-23.27v-189.27c0-12.85 10.42-23.27 23.27-23.27h273.2c12.85 0 23.27 10.42 23.27 23.27z" fill="#c2aacf"/></g><g><path d="m415.87 190.38v178.33c0 12.85-10.42 23.27-23.27 23.27h-273.2c-12.85 0-23.27-10.42-23.27-23.27v-178.33c0-12.85 10.42-23.27 23.27-23.27h273.2c12.85 0 23.27 10.42 23.27 23.27z" fill="#f9eaf9"/></g><g><path d="m392.6 404.42h-273.2c-13.658 0-24.771-11.112-24.771-24.77v-160.42c0-.829.672-1.5 1.5-1.5s1.5.671 1.5 1.5v160.42c0 12.004 9.767 21.77 21.771 21.77h273.2c12.004 0 21.771-9.766 21.771-21.77v-189.27c0-12.004-9.767-21.77-21.771-21.77h-273.2c-12.004 0-21.771 9.766-21.771 21.77 0 .829-.672 1.5-1.5 1.5s-1.5-.671-1.5-1.5c0-13.658 11.112-24.77 24.771-24.77h273.2c13.658 0 24.771 11.112 24.771 24.77v189.27c-.001 13.658-11.113 24.77-24.771 24.77z" fill="#211915"/></g></g><g><g><path d="m290.613 402.92h-69.226l-17.655 69.227h104.536z" fill="#c2aacf"/><path d="m310.198 473.646h-108.396l18.42-72.227h71.557zm-104.535-3h100.674l-16.889-66.227h-66.896z" fill="#211915"/></g><g><g><path d="m337.46 472.15c0 8.33-6.75 15.08-15.08 15.08h-132.76c-4.16 0-7.94-1.69-10.66-4.42-2.73-2.73-4.42-6.49-4.42-10.66 0-1.91.36-3.74 1.01-5.42 2.17-5.66 7.65-9.67 14.07-9.67h132.76c4.16 0 7.94 1.69 10.66 4.42 1.48 1.48 2.65 3.26 3.41 5.25.65 1.68 1.01 3.51 1.01 5.42z" fill="#c2aacf"/></g><g><path d="m336.45 466.73c-2.18 5.65-7.65 9.66-14.07 9.66h-132.76c-4.16 0-7.94-1.69-10.66-4.42-1.48-1.48-2.65-3.26-3.41-5.24 2.17-5.66 7.65-9.67 14.07-9.67h132.76c4.16 0 7.94 1.69 10.66 4.42 1.48 1.48 2.65 3.26 3.41 5.25z" fill="#f9eaf9"/></g><g><path d="m322.38 488.73h-132.76c-4.437 0-8.6-1.727-11.723-4.861-3.132-3.132-4.857-7.294-4.857-11.719 0-2.048.374-4.054 1.11-5.961 2.437-6.356 8.654-10.629 15.47-10.629h77.302c.828 0 1.5.671 1.5 1.5s-.672 1.5-1.5 1.5h-77.302c-5.582 0-10.673 3.499-12.67 8.707-.604 1.564-.91 3.206-.91 4.883 0 3.623 1.414 7.032 3.98 9.6 2.559 2.567 5.967 3.98 9.6 3.98h132.76c7.488 0 13.58-6.092 13.58-13.58 0-1.677-.306-3.319-.909-4.879-.682-1.783-1.714-3.373-3.071-4.73-2.559-2.567-5.967-3.98-9.6-3.98h-26.437c-.828 0-1.5-.671-1.5-1.5s.672-1.5 1.5-1.5h26.437c4.437 0 8.6 1.727 11.723 4.861 1.656 1.656 2.918 3.599 3.749 5.773.734 1.901 1.108 3.907 1.108 5.956 0 9.141-7.438 16.579-16.58 16.579z" fill="#211915"/></g></g></g></g><g><g><path d="m389.768 184.11h-267.536c-5.029 0-9.105 4.077-9.105 9.105v183.6c0 5.029 4.077 9.105 9.105 9.105h267.536c5.029 0 9.105-4.077 9.105-9.105v-183.6c0-5.029-4.076-9.105-9.105-9.105z" fill="#fff"/><path d="m389.768 387.42h-267.536c-5.848 0-10.605-4.757-10.605-10.605v-183.6c0-5.848 4.758-10.605 10.605-10.605h267.535c5.848 0 10.605 4.758 10.605 10.605v183.6c.001 5.848-4.757 10.605-10.604 10.605zm-267.536-201.81c-4.193 0-7.605 3.412-7.605 7.605v183.6c0 4.193 3.412 7.605 7.605 7.605h267.535c4.193 0 7.605-3.412 7.605-7.605v-183.6c0-4.194-3.412-7.605-7.605-7.605z" fill="#211915"/></g><g><path d="m113.127 210.519v-17.304c0-5.029 4.077-9.105 9.105-9.105h267.536c5.029 0 9.105 4.077 9.105 9.105v17.304z" fill="#a583bb"/><path d="m400.373 212.02h-288.746v-18.804c0-5.848 4.758-10.605 10.605-10.605h267.535c5.848 0 10.605 4.758 10.605 10.605v18.804zm-285.746-3h282.746v-15.804c0-4.194-3.412-7.605-7.605-7.605h-267.536c-4.193 0-7.605 3.412-7.605 7.605z" fill="#211915"/></g></g><g><g><g><g><g><path d="m277.13 310.025c0 14.319-12.062 25.825-26.58 24.896-12.61-.805-22.764-11.208-23.287-23.834-.066-1.518.008-3.003.207-4.455v-.008c1.004-7.35 5.218-13.68 11.191-17.546v-49.17c0-3.741 1.51-7.118 3.965-9.565 2.439-2.456 5.824-3.965 9.557-3.965 7.475 0 13.531 6.056 13.531 13.531v49.17c5.948 3.849 10.171 10.171 11.183 17.521.15 1.119.233 2.264.233 3.425z" fill="#a583bb"/></g><g><path d="m276.898 306.599c-1.709 12.709-12.991 22.382-26.348 21.528-11.822-.755-21.486-9.947-23.079-21.495v-.008c1.004-7.35 5.218-13.68 11.191-17.546v-49.17c0-3.741 1.51-7.118 3.965-9.565 2.439-2.456 5.824-3.965 9.557-3.965 7.475 0 13.531 6.056 13.531 13.531v49.17c5.948 3.848 10.171 10.17 11.183 17.52z" fill="#f9eaf9"/></g><g><path d="m252.212 336.474c-.584 0-1.169-.019-1.758-.056-13.293-.849-24.138-11.948-24.689-25.269-.066-1.534.002-3.088.206-4.618l.014-.111c1.003-7.344 5.061-13.912 11.178-18.143v-33.438c0-.829.672-1.5 1.5-1.5s1.5.671 1.5 1.5v35.055l-.685.443c-5.739 3.714-9.565 9.688-10.509 16.4l-.012.098c-.19 1.385-.256 2.793-.194 4.186.488 11.812 10.101 21.65 21.883 22.402 6.561.419 12.802-1.814 17.573-6.291 4.779-4.482 7.411-10.559 7.411-17.108 0-1.051-.074-2.137-.22-3.228-.927-6.736-4.758-12.737-10.51-16.459l-.686-.443v-49.986c0-6.634-5.396-12.031-12.03-12.031-3.221 0-6.236 1.251-8.492 3.523-2.278 2.27-3.53 5.29-3.53 8.508 0 .829-.672 1.5-1.5 1.5s-1.5-.671-1.5-1.5c0-4.021 1.565-7.796 4.407-10.627 2.817-2.837 6.59-4.403 10.615-4.403 8.288 0 15.03 6.743 15.03 15.031v48.369c6.104 4.222 10.159 10.78 11.169 18.117.163 1.228.246 2.447.246 3.631 0 7.281-3.047 14.314-8.358 19.296-4.954 4.647-11.311 7.152-18.059 7.152z" fill="#211915"/></g></g><g><g><path d="m269.208 310.025c0 9.408-7.624 17.023-17.023 17.023s-17.023-7.616-17.023-17.023c0-1.435.174-2.821.514-4.156 1.402-5.55 5.533-10.013 10.884-11.896v-29.177h11.249v29.177c5.351 1.883 9.482 6.346 10.884 11.896.34 1.335.515 2.721.515 4.156z" fill="#c0405c"/></g><g><path d="m268.693 305.869c-1.842 7.408-8.536 12.884-16.509 12.884s-14.667-5.475-16.509-12.884c1.402-5.55 5.533-10.013 10.884-11.896v-29.177h11.249v29.177c5.352 1.883 9.483 6.346 10.885 11.896z" fill="#e9465e"/></g><g><path d="m252.185 328.551c-10.213 0-18.522-8.309-18.522-18.522 0-7.49 4.539-14.225 11.401-17.084v-53.039c0-3.926 3.194-7.121 7.121-7.121 3.926 0 7.12 3.194 7.12 7.121v53.038c6.863 2.859 11.402 9.594 11.402 17.084 0 10.214-8.31 18.523-18.522 18.523zm0-92.765c-2.272 0-4.121 1.849-4.121 4.121v54.069c0 .637-.402 1.205-1.004 1.416-6.219 2.179-10.397 8.061-10.397 14.638 0 8.559 6.963 15.522 15.522 15.522s15.522-6.963 15.522-15.522c0-6.577-4.179-12.459-10.398-14.638-.602-.21-1.004-.778-1.004-1.416v-54.069c0-2.273-1.849-4.121-4.12-4.121z" fill="#211915"/></g></g><g><g><path d="m275.476 266.294h-23.291c-.828 0-1.5-.671-1.5-1.5s.672-1.5 1.5-1.5h23.291c.828 0 1.5.671 1.5 1.5s-.672 1.5-1.5 1.5z" fill="#211915"/></g><g><path d="m275.476 276.249h-23.291c-.828 0-1.5-.671-1.5-1.5s.672-1.5 1.5-1.5h23.291c.828 0 1.5.671 1.5 1.5s-.672 1.5-1.5 1.5z" fill="#211915"/></g><g><path d="m275.476 286.204h-23.291c-.828 0-1.5-.671-1.5-1.5s.672-1.5 1.5-1.5h23.291c.828 0 1.5.671 1.5 1.5s-.672 1.5-1.5 1.5z" fill="#211915"/></g><g><path d="m275.476 256.339h-23.291c-.828 0-1.5-.671-1.5-1.5s.672-1.5 1.5-1.5h23.291c.828 0 1.5.671 1.5 1.5s-.672 1.5-1.5 1.5z" fill="#211915"/></g><g><path d="m275.476 246.384h-23.291c-.828 0-1.5-.671-1.5-1.5s.672-1.5 1.5-1.5h23.291c.828 0 1.5.671 1.5 1.5s-.672 1.5-1.5 1.5z" fill="#211915"/></g></g></g><g><g><path d="m274.895 346.687h-45.419c-3.853 0-6.977 3.124-6.977 6.977v9.113c0 3.853 3.124 6.977 6.977 6.977h45.419c3.853 0 6.977-3.124 6.977-6.977v-9.113c-.001-3.853-3.124-6.977-6.977-6.977z" fill="#decee5"/><path d="m274.895 371.254h-45.419c-4.674 0-8.477-3.803-8.477-8.477v-9.113c0-4.674 3.803-8.477 8.477-8.477h45.419c4.674 0 8.477 3.803 8.477 8.477v9.113c-.001 4.674-3.804 8.477-8.477 8.477zm-45.419-23.066c-3.02 0-5.477 2.457-5.477 5.477v9.113c0 3.02 2.457 5.477 5.477 5.477h45.419c3.02 0 5.477-2.457 5.477-5.477v-9.113c0-3.02-2.457-5.477-5.477-5.477z" fill="#211915"/></g><g><g><path d="m274.895 346.687h-15.419c-3.853 0-6.977 3.124-6.977 6.977v9.113c0 3.853 3.124 6.977 6.977 6.977h15.419c3.853 0 6.977-3.124 6.977-6.977v-9.113c-.001-3.853-3.124-6.977-6.977-6.977z" fill="#53b976"/><path d="m274.895 371.254h-15.419c-4.674 0-8.477-3.803-8.477-8.477v-9.113c0-4.674 3.803-8.477 8.477-8.477h15.419c4.674 0 8.477 3.803 8.477 8.477v9.113c-.001 4.674-3.804 8.477-8.477 8.477zm-15.419-23.066c-3.02 0-5.477 2.457-5.477 5.477v9.113c0 3.02 2.457 5.477 5.477 5.477h15.419c3.02 0 5.477-2.457 5.477-5.477v-9.113c0-3.02-2.457-5.477-5.477-5.477z" fill="#211915"/></g><g><g><path d="m267.185 364.952c-.828 0-1.5-.671-1.5-1.5v-10.462c0-.829.672-1.5 1.5-1.5s1.5.671 1.5 1.5v10.462c0 .828-.672 1.5-1.5 1.5z" fill="#211915"/></g><g><path d="m260.185 364.952c-.828 0-1.5-.671-1.5-1.5v-10.462c0-.829.672-1.5 1.5-1.5s1.5.671 1.5 1.5v10.462c0 .828-.672 1.5-1.5 1.5z" fill="#211915"/></g><g><path d="m274.185 364.952c-.828 0-1.5-.671-1.5-1.5v-10.462c0-.829.672-1.5 1.5-1.5s1.5.671 1.5 1.5v10.462c0 .828-.672 1.5-1.5 1.5z" fill="#211915"/></g></g></g></g></g><g><g><g><g><g><path d="m166.044 333.474c-6.405 0-11.617-5.215-11.617-11.625v-5.562h23.243v5.562c0 4.715-2.813 8.932-7.167 10.742-1.431.586-2.929.883-4.459.883z" fill="#2e3140"/></g><g><path d="m176.169 317.786v4.062c0 4.215-2.581 7.834-6.242 9.357-1.197.491-2.505.768-3.883.768-5.585 0-10.118-4.533-10.118-10.125v-4.062zm3-3h-3-20.243-3v3 4.062c0 7.237 5.885 13.125 13.118 13.125 1.727 0 3.416-.334 5.021-.993 4.928-2.049 8.104-6.809 8.104-12.132v-4.062z" fill="#211915"/></g></g><g><path d="m176.169 317.786v4.062c0 4.215-2.581 7.834-6.243 9.357-3.668-1.523-6.249-5.135-6.249-9.357v-4.062z" fill="#3e4e60"/></g></g><g><g><g><path d="m187.314 301.426c.021 4.069-4.319 4.817-7.474 7.474-.623.533-.533 3.218-.533 3.218 0 5.931-3.896 10.956-9.267 12.644-1.26.401-2.602.616-3.993.616-7.35.048-13.309-6.118-13.253-13.26 0 0 .09-2.685-.533-3.218-3.149-2.671-7.474-3.35-7.474-7.474 0-4.132 3.343-7.481 7.474-7.481h27.579c4.131-.001 7.474 3.349 7.474 7.481z" fill="#a583bb"/></g></g><g><g><path d="m187.314 301.426c.021 4.069-4.319 4.817-7.474 7.474-.623.533-.533 3.218-.533 3.218 0 5.931-3.896 10.956-9.267 12.644-5.391-1.723-9.281-6.865-9.239-12.644 0 0 .09-2.685-.533-3.218-3.149-2.671-7.474-3.35-7.474-7.474 0-4.132 3.343-7.481 7.474-7.481h19.572c4.131-.001 7.474 3.349 7.474 7.481z" fill="#c1b7d3"/></g></g><g><g><path d="m165.949 326.878c-3.865 0-7.53-1.534-10.319-4.325-2.785-2.789-4.366-6.596-4.337-10.447.027-.847-.047-1.81-.159-2.193-.836-.681-1.799-1.244-2.731-1.789-2.397-1.402-5.116-2.991-5.116-6.699 0-4.952 4.026-8.981 8.975-8.981h27.579c4.946 0 8.971 4.027 8.974 8.977.018 3.681-2.719 5.292-5.133 6.713-.925.544-1.88 1.106-2.715 1.781-.11.384-.187 1.359-.16 2.153.001 6.529-4.145 12.185-10.315 14.125-1.456.464-2.985.686-4.543.685zm-13.688-31.434c-3.294 0-5.975 2.683-5.975 5.981 0 1.898 1.245 2.714 3.631 4.109 1.049.613 2.238 1.309 3.314 2.221.781.669 1.137 2.152 1.061 4.413-.022 3.013 1.238 6.04 3.461 8.264 2.221 2.224 5.133 3.446 8.207 3.446h.077c1.223 0 2.413-.183 3.548-.545 4.92-1.547 8.222-6.053 8.222-11.215-.075-2.21.281-3.694 1.059-4.358 1.073-.904 2.253-1.599 3.293-2.211 2.409-1.418 3.665-2.245 3.655-4.115v-.008c0-3.298-2.68-5.981-5.974-5.981h-27.579z" fill="#211915"/></g></g><g><g><path d="m152.261 307.4h27.579v3h-27.579z" fill="#211915"/></g><g><path d="m152.99 312.937h26.112v3h-26.112z" fill="#211915"/></g><g><path d="m155.383 318.473h21.346v3h-21.346z" fill="#211915"/></g><g><path d="m145.339 301.863h41.578v3h-41.578z" fill="#211915"/></g></g></g><g><g><path d="m194.629 254.648c.068 8.481-5.045 14.571-8.72 21.496-1.735 3.297-6.338 17.253-6.429 17.8h-26.86s-4.748-15.392-7.544-19.925c-3.695-5.958-7.604-11.887-7.613-19.371-.25-17.63 16.667-31.669 34.099-28.05 13.208 2.588 23.088 14.239 23.067 28.05z" fill="#daab42"/></g><g><path d="m194.629 254.648c.068 8.481-5.045 14.571-8.72 21.496-1.735 3.297-6.338 17.253-6.429 17.8h-15.835s-4.748-15.392-7.544-19.925c-3.695-5.958-7.604-11.887-7.613-19.371-.025-13.666 9.742-25.45 23.074-28.05 13.208 2.588 23.088 14.239 23.067 28.05z" fill="#f9c744"/></g><g><circle cx="177.703" cy="251.16" fill="#fbd9a3" r="11.728"/></g><g><path d="m180.735 295.513-1.256-.068h-27.967l-.326-1.058c-.047-.152-4.723-15.26-7.386-19.579l-.499-.803c-3.603-5.792-7.328-11.781-7.338-19.354-.125-8.851 3.868-17.294 10.957-23.146 7.107-5.867 16.202-8.19 24.946-6.375 6.555 1.284 12.592 4.802 16.985 9.903.54.628.47 1.575-.158 2.116-.629.54-1.575.469-2.115-.158-3.956-4.594-9.392-7.762-15.305-8.92-7.866-1.634-16.042.462-22.443 5.747-6.383 5.27-9.979 12.854-9.867 20.81.009 6.737 3.349 12.107 6.885 17.792l.503.809c2.461 3.99 6.231 15.611 7.371 19.215h24.644c1.156-3.681 4.725-14.166 6.216-16.999.852-1.606 1.781-3.171 2.681-4.685 3.042-5.122 5.916-9.959 5.866-16.1-.007-.829.659-1.505 1.488-1.512h.012c.823 0 1.493.664 1.5 1.488.057 6.977-3.168 12.406-6.287 17.656-.881 1.483-1.792 3.017-2.607 4.555-1.658 3.149-6.074 16.543-6.289 17.414z" fill="#211915"/></g></g><g><path d="m171.554 293.944h-3v-18.273h-4.851v18.273h-3v-18.273h-4.339c-2.218 0-4.021-1.804-4.021-4.021v-7.057c0-2.217 1.804-4.021 4.021-4.021h3.317c2.218 0 4.021 1.804 4.021 4.021v8.078h4.851v-8.078c0-2.217 1.804-4.021 4.021-4.021h3.316c2.218 0 4.021 1.804 4.021 4.021v7.057c0 2.217-1.804 4.021-4.021 4.021h-4.338v18.273zm0-21.273h4.338c.563 0 1.021-.458 1.021-1.021v-7.057c0-.563-.458-1.021-1.021-1.021h-3.316c-.563 0-1.021.458-1.021 1.021v8.078zm-15.19-9.099c-.563 0-1.021.458-1.021 1.021v7.057c0 .563.458 1.021 1.021 1.021h4.339v-8.078c0-.563-.458-1.021-1.021-1.021z" fill="#211915"/></g></g><g><g><path d="m188.755 346.687h-45.419c-3.853 0-6.977 3.124-6.977 6.977v9.113c0 3.853 3.124 6.977 6.977 6.977h45.419c3.853 0 6.977-3.124 6.977-6.977v-9.113c0-3.853-3.124-6.977-6.977-6.977z" fill="#decee5"/><path d="m188.755 371.254h-45.419c-4.674 0-8.477-3.803-8.477-8.477v-9.113c0-4.674 3.803-8.477 8.477-8.477h45.419c4.674 0 8.477 3.803 8.477 8.477v9.113c-.001 4.674-3.803 8.477-8.477 8.477zm-45.419-23.066c-3.02 0-5.477 2.457-5.477 5.477v9.113c0 3.02 2.457 5.477 5.477 5.477h45.419c3.02 0 5.477-2.457 5.477-5.477v-9.113c0-3.02-2.457-5.477-5.477-5.477z" fill="#211915"/></g><g><g><path d="m188.755 346.687h-15.419c-3.853 0-6.977 3.124-6.977 6.977v9.113c0 3.853 3.124 6.977 6.977 6.977h15.419c3.853 0 6.977-3.124 6.977-6.977v-9.113c0-3.853-3.124-6.977-6.977-6.977z" fill="#53b976"/><path d="m188.755 371.254h-15.419c-4.674 0-8.477-3.803-8.477-8.477v-9.113c0-4.674 3.803-8.477 8.477-8.477h15.419c4.674 0 8.477 3.803 8.477 8.477v9.113c-.001 4.674-3.803 8.477-8.477 8.477zm-15.419-23.066c-3.02 0-5.477 2.457-5.477 5.477v9.113c0 3.02 2.457 5.477 5.477 5.477h15.419c3.02 0 5.477-2.457 5.477-5.477v-9.113c0-3.02-2.457-5.477-5.477-5.477z" fill="#211915"/></g><g><g><path d="m181.046 364.952c-.828 0-1.5-.671-1.5-1.5v-10.462c0-.829.672-1.5 1.5-1.5s1.5.671 1.5 1.5v10.462c0 .828-.672 1.5-1.5 1.5z" fill="#211915"/></g><g><path d="m174.046 364.952c-.828 0-1.5-.671-1.5-1.5v-10.462c0-.829.672-1.5 1.5-1.5s1.5.671 1.5 1.5v10.462c0 .828-.672 1.5-1.5 1.5z" fill="#211915"/></g><g><path d="m188.046 364.952c-.828 0-1.5-.671-1.5-1.5v-10.462c0-.829.672-1.5 1.5-1.5s1.5.671 1.5 1.5v10.462c0 .828-.672 1.5-1.5 1.5z" fill="#211915"/></g></g></g></g></g><g><g><g><g><path d="m375.639 285.564v38.41c0 3.684-2.314 6.82-5.577 8.031-.924.344-1.938.535-2.983.535h-49.877c-1.052 0-2.059-.191-2.989-.535-3.257-1.211-5.571-4.347-5.571-8.031v-38.41c0-3.678 2.314-6.82 5.571-8.031.931-.344 1.938-.535 2.989-.535h49.877c1.045 0 2.059.191 2.983.535 3.264 1.211 5.577 4.353 5.577 8.031z" fill="#755c8e"/></g><g><path d="m375.639 285.564v30.5c0 3.684-2.314 6.82-5.577 8.031-.924.344-1.938.535-2.983.535h-49.877c-1.052 0-2.059-.191-2.989-.535-3.257-1.211-5.571-4.347-5.571-8.031v-30.5c0-3.678 2.314-6.82 5.571-8.031.931-.344 1.938-.535 2.989-.535h49.877c1.045 0 2.059.191 2.983.535 3.264 1.211 5.577 4.353 5.577 8.031z" fill="#a583bb"/></g><g><path d="m375.641 285.563v7.993h-67.002v-7.993c0-3.68 2.318-6.817 5.576-8.029.93-.347 1.937-.537 2.988-.537h49.875c1.051 0 2.058.19 2.988.537 3.256 1.212 5.575 4.349 5.575 8.029z" fill="#decee5"/></g><g><path d="m375.641 295.009h-67.002c-.828 0-1.5-.671-1.5-1.5s.672-1.5 1.5-1.5h67.002c.828 0 1.5.671 1.5 1.5s-.672 1.5-1.5 1.5z" fill="#211915"/></g><g><path d="m367.077 334.041h-49.875c-1.207 0-2.389-.212-3.513-.632-3.917-1.454-6.551-5.245-6.551-9.432v-34.737c0-.829.672-1.5 1.5-1.5s1.5.671 1.5 1.5v34.737c0 2.939 1.848 5.599 4.598 6.62.789.294 1.618.443 2.466.443h49.875c.848 0 1.677-.149 2.463-.442 2.753-1.022 4.601-3.683 4.601-6.621v-38.415c0-2.938-1.849-5.6-4.6-6.623-.788-.294-1.616-.443-2.464-.443h-49.875c-.847 0-1.676.149-2.464.443-.774.29-1.641-.104-1.93-.881-.29-.776.104-1.64.881-1.93 1.125-.419 2.307-.632 3.513-.632h49.875c1.207 0 2.389.213 3.512.632 3.918 1.458 6.552 5.249 6.552 9.434v38.415c0 4.187-2.634 7.977-6.554 9.433-1.12.419-2.302.631-3.51.631z" fill="#211915"/></g></g><g><path d="m348.653 305.911c0-3.597-2.916-6.513-6.513-6.513s-6.513 2.916-6.513 6.513c0 2.499 1.409 4.666 3.474 5.758v9.293c0 1.678 1.361 3.039 3.039 3.039s3.039-1.361 3.039-3.039v-9.293c2.065-1.092 3.474-3.259 3.474-5.758z" fill="#3e4e60"/><path d="m342.141 325.5c-2.503 0-4.539-2.036-4.539-4.539v-8.45c-2.163-1.485-3.474-3.938-3.474-6.601 0-4.418 3.595-8.013 8.013-8.013s8.012 3.594 8.012 8.013c0 2.663-1.311 5.116-3.474 6.601v8.45c0 2.503-2.036 4.539-4.538 4.539zm0-24.602c-2.764 0-5.013 2.249-5.013 5.013 0 1.861 1.024 3.56 2.675 4.432l.799.422v10.197c0 .848.69 1.539 1.539 1.539.848 0 1.538-.69 1.538-1.539v-10.197l.799-.422c1.65-.872 2.675-2.57 2.675-4.432-.001-2.764-2.249-5.013-5.012-5.013z" fill="#211915"/></g><g><g><path d="m364.612 258.821v18.176h-9.385v-18.176c0-2.511-2.041-4.552-4.552-4.552h-17.07c-2.511 0-4.552 2.041-4.552 4.552v18.176h-9.386v-18.176c0-3.405 1.227-6.528 3.263-8.949 2.557-3.048 6.395-4.988 10.675-4.988h17.07c4.28 0 8.118 1.94 10.675 4.988 1.12 1.333 1.995 2.877 2.554 4.564.459 1.378.708 2.852.708 4.385z" fill="#755c8e"/></g><g><path d="m333.605 254.269c-2.511 0-4.552 2.041-4.552 4.552v18.176h-4.745v-17.361c0-2.964 2.402-5.366 5.366-5.366h3.931z" fill="#a583bb"/></g><g><path d="m364.612 258.821v18.176h-4.745v-17.361c0-2.506 1.716-4.61 4.036-5.2.46 1.378.709 2.852.709 4.385z" fill="#a583bb"/></g><g><path d="m361.349 249.872c-.904.966-2.188 1.571-3.614 1.571h-31.19c-1.366 0-2.602-.554-3.499-1.451-.039-.039-.077-.079-.116-.12 2.557-3.048 6.395-4.988 10.675-4.988h17.07c4.279 0 8.117 1.939 10.674 4.988z" fill="#a583bb"/></g><g><path d="m366.111 278.497h-12.385v-19.676c0-1.683-1.369-3.052-3.052-3.052h-17.07c-1.683 0-3.052 1.369-3.052 3.052v19.676h-12.386v-19.676c0-1.94.357-3.833 1.061-5.624.303-.771 1.171-1.152 1.945-.848.771.303 1.15 1.173.848 1.944-.566 1.441-.854 2.964-.854 4.527v16.676h6.386v-16.676c0-3.337 2.715-6.052 6.052-6.052h17.07c3.337 0 6.052 2.715 6.052 6.052v16.676h6.385v-16.676c0-1.341-.212-2.656-.631-3.91-.496-1.495-1.263-2.864-2.279-4.073-2.375-2.831-5.846-4.454-9.526-4.454h-17.07c-1.783 0-3.504.371-5.115 1.101-.752.341-1.644.007-1.985-.747-.342-.755-.008-1.644.747-1.986 2.003-.908 4.141-1.369 6.354-1.369h17.07c4.569 0 8.879 2.013 11.823 5.524 1.262 1.5 2.214 3.201 2.829 5.056.52 1.558.784 3.193.784 4.857v19.678z" fill="#211915"/></g></g></g><g><g><path d="m364.849 346.687h-45.419c-3.853 0-6.977 3.124-6.977 6.977v9.113c0 3.853 3.124 6.977 6.977 6.977h45.419c3.853 0 6.977-3.124 6.977-6.977v-9.113c0-3.853-3.124-6.977-6.977-6.977z" fill="#decee5"/><path d="m364.849 371.254h-45.419c-4.674 0-8.477-3.803-8.477-8.477v-9.113c0-4.674 3.803-8.477 8.477-8.477h45.419c4.674 0 8.477 3.803 8.477 8.477v9.113c-.001 4.674-3.804 8.477-8.477 8.477zm-45.419-23.066c-3.02 0-5.477 2.457-5.477 5.477v9.113c0 3.02 2.457 5.477 5.477 5.477h45.419c3.02 0 5.477-2.457 5.477-5.477v-9.113c0-3.02-2.457-5.477-5.477-5.477z" fill="#211915"/></g><g><g><path d="m364.849 346.687h-15.419c-3.853 0-6.977 3.124-6.977 6.977v9.113c0 3.853 3.124 6.977 6.977 6.977h15.419c3.853 0 6.977-3.124 6.977-6.977v-9.113c0-3.853-3.124-6.977-6.977-6.977z" fill="#53b976"/><path d="m364.849 371.254h-15.419c-4.674 0-8.477-3.803-8.477-8.477v-9.113c0-4.674 3.803-8.477 8.477-8.477h15.419c4.674 0 8.477 3.803 8.477 8.477v9.113c-.001 4.674-3.804 8.477-8.477 8.477zm-15.419-23.066c-3.02 0-5.477 2.457-5.477 5.477v9.113c0 3.02 2.457 5.477 5.477 5.477h15.419c3.02 0 5.477-2.457 5.477-5.477v-9.113c0-3.02-2.457-5.477-5.477-5.477z" fill="#211915"/></g><g><g><path d="m357.14 364.952c-.828 0-1.5-.671-1.5-1.5v-10.462c0-.829.672-1.5 1.5-1.5s1.5.671 1.5 1.5v10.462c0 .828-.672 1.5-1.5 1.5z" fill="#211915"/></g><g><path d="m350.14 364.952c-.828 0-1.5-.671-1.5-1.5v-10.462c0-.829.672-1.5 1.5-1.5s1.5.671 1.5 1.5v10.462c0 .828-.672 1.5-1.5 1.5z" fill="#211915"/></g><g><path d="m364.14 364.952c-.828 0-1.5-.671-1.5-1.5v-10.462c0-.829.672-1.5 1.5-1.5s1.5.671 1.5 1.5v10.462c0 .828-.672 1.5-1.5 1.5z" fill="#211915"/></g></g></g></g></g></g></g><g><g><g><path d="m348.178 58.926v53.832c0 9.392-3.185 18.044-8.539 24.929-7.436 9.58-19.06 15.737-32.126 15.737h-38.973l-11.123 34.753c-.426 1.404-2.408 1.404-2.834 0l-11.123-34.753h-38.973c-13.066 0-24.69-6.157-32.126-15.737-5.354-6.884-8.539-15.536-8.539-24.929v-53.832c0-9.405 3.185-18.044 8.539-24.929 7.436-9.58 19.06-15.737 32.126-15.737h103.025c13.066 0 24.69 6.157 32.126 15.737 5.355 6.884 8.54 15.524 8.54 24.929z" fill="#c2aacf"/></g><g><path d="m348.178 58.926v42.835c0 9.392-3.185 18.044-8.539 24.929-7.436 9.58-19.06 15.737-32.126 15.737h-41.481l-8.615 30.991c-.426 1.404-2.408 1.404-2.834 0l-8.615-30.991h-41.481c-13.066 0-24.69-6.157-32.126-15.737-5.354-6.884-8.539-15.536-8.539-24.929v-42.835c0-9.405 3.185-18.044 8.539-24.929 7.436-9.58 19.06-15.737 32.126-15.737h103.025c13.066 0 24.69 6.157 32.126 15.737 5.355 6.884 8.54 15.524 8.54 24.929z" fill="#fff"/></g><g><path d="m256 190.729c-1.321 0-2.468-.851-2.853-2.117l-10.781-33.689h-37.879c-13.12 0-25.262-5.948-33.311-16.317-5.792-7.447-8.854-16.385-8.854-25.848v-53.832c0-9.463 3.062-18.401 8.855-25.85.508-.655 1.451-.772 2.104-.263.654.509.771 1.451.263 2.105-5.379 6.917-8.223 15.218-8.223 24.008v53.832c0 8.79 2.844 17.091 8.223 24.007 7.479 9.634 18.756 15.158 30.942 15.158h40.068l11.456 35.796 11.433-35.796h40.068c12.187 0 23.464-5.524 30.941-15.157 5.38-6.917 8.224-15.219 8.224-24.008v-53.832c0-8.79-2.844-17.091-8.223-24.008-7.479-9.634-18.756-15.158-30.942-15.158h-103.024c-.828 0-1.5-.671-1.5-1.5s.672-1.5 1.5-1.5h103.025c13.12 0 25.261 5.947 33.311 16.317 5.792 7.447 8.854 16.386 8.854 25.849v53.832c0 9.463-3.062 18.401-8.855 25.849-8.048 10.369-20.189 16.316-33.31 16.316h-37.879l-10.788 33.71c-.377 1.246-1.524 2.096-2.845 2.096z" fill="#211915"/></g></g><g><g><g><g><g><path d="m288.252 59.46c-.39 0-.773-.152-1.061-.439l-8.982-8.985c-.281-.281-.439-.663-.439-1.061v-13.389c0-2.076 1.688-3.765 3.762-3.765h4.458c2.075 0 3.763 1.689 3.763 3.765v22.374c0 .607-.365 1.154-.926 1.386-.186.077-.382.114-.575.114z" fill="#c0405c"/></g><g><path d="m285.989 33.321c1.249 0 2.262 1.013 2.262 2.265v22.374l-8.982-8.985v-13.389c0-1.251 1.013-2.265 2.262-2.265zm0-3h-4.458c-2.902 0-5.262 2.362-5.262 5.265v13.389c0 .795.316 1.558.878 2.121l8.982 8.985c.574.574 1.342.879 2.122.879.386 0 .776-.075 1.147-.228 1.121-.464 1.852-1.558 1.852-2.772v-22.374c.002-2.903-2.359-5.265-5.261-5.265z" fill="#211915"/></g></g><g><path d="m288.252 35.586v19.053l-3.618-3.621c-1.31-1.308-2.043-3.083-2.043-4.931v-10.501c0-1.251 1.013-2.265 2.262-2.265h1.137c1.248 0 2.262 1.014 2.262 2.265z" fill="#e9465e"/></g></g><g><g><g><path d="m295.146 72.587v58.086c0 2.325-1.401 4.317-3.405 5.187-.688.296-1.446.462-2.243.462h-66.996c-.797 0-1.555-.166-2.24-.462-2.005-.866-3.408-2.862-3.408-5.187v-58.086l6.557-6.578 32.591-32.687z" fill="#daab42"/></g><g><path d="m295.146 72.587v58.086c0 2.325-1.401 4.317-3.405 5.187-.688.296-1.446.462-2.243.462h-60.441c-.797 0-1.552-.166-2.24-.462-2.002-.866-3.405-2.862-3.405-5.187v-64.665l32.591-32.687z" fill="#fbcb74"/></g><g><path d="m289.497 137.822h-66.996c-.982 0-1.936-.197-2.835-.585-2.62-1.133-4.313-3.709-4.313-6.563v-58.087c0-.397.157-.778.438-1.059l39.148-39.266c.281-.282.664-.441 1.062-.441.398 0 .781.159 1.062.441l39.145 39.266c.28.281.438.662.438 1.059v58.086c0 2.852-1.691 5.427-4.309 6.562-.905.39-1.859.587-2.84.587zm-71.144-64.615v57.466c0 1.657.982 3.152 2.503 3.81.521.225 1.075.339 1.646.339h66.996c.57 0 1.126-.114 1.65-.34 1.516-.658 2.498-2.153 2.498-3.809v-57.466l-37.645-37.761z" fill="#211915"/></g></g><g><g><path d="m309.417 81.089c0 1.211-.463 2.42-1.385 3.343-1.856 1.856-4.87 1.845-6.712-.024l-41.954-42.582c-1.85-1.88-4.883-1.88-6.733 0l-41.954 42.582c-.925.939-2.147 1.409-3.367 1.409-1.211 0-2.423-.463-3.345-1.385-1.559-1.559-1.8-3.936-.727-5.749.198-.334.441-.65.727-.936l48.698-48.695c1.845-1.848 4.84-1.845 6.685 0l48.682 48.695c.286.286.529.602.727.936.439.74.658 1.571.658 2.406z" fill="#e9465e"/></g><g><path d="m308.759 78.682c-.198.334-.441.65-.727.936v.003c-1.856 1.856-4.87 1.842-6.712-.027l-41.954-42.582c-1.85-1.88-4.883-1.88-6.733 0l-41.954 42.582c-.925.939-2.147 1.409-3.369 1.409-1.211 0-2.42-.46-3.343-1.383-.289-.289-.529-.604-.727-.939.198-.334.441-.65.727-.936l48.698-48.695c1.845-1.848 4.84-1.845 6.685 0l48.682 48.695c.286.287.53.603.727.937z" fill="#ee6781"/></g><g><path d="m207.312 87.316c-1.665 0-3.23-.648-4.406-1.825-2.011-2.01-2.405-5.125-.957-7.573.266-.449.588-.863.958-1.233l26.716-26.715c.586-.586 1.535-.586 2.121 0s.586 1.536 0 2.121l-26.716 26.715c-.192.193-.36.408-.498.64-.749 1.267-.545 2.881.498 3.923 1.224 1.225 3.361 1.22 4.584-.016l41.953-42.582c1.179-1.197 2.754-1.857 4.435-1.857 1.682 0 3.257.66 4.437 1.857l41.953 42.582c.608.617 1.421.958 2.288.961h.012c.862 0 1.673-.335 2.283-.945.609-.609.945-1.42.945-2.282 0-.58-.155-1.147-.448-1.643-.137-.231-.305-.447-.497-.64l-48.683-48.696c-.609-.609-1.42-.945-2.282-.945h-.001c-.861 0-1.671.335-2.279.945l-13.181 13.18c-.586.586-1.535.586-2.121 0s-.586-1.536 0-2.121l13.18-13.179c1.174-1.176 2.737-1.824 4.401-1.824h.002c1.663 0 3.227.648 4.402 1.824l48.683 48.696c.37.37.692.784.957 1.232.567.958.867 2.055.867 3.171 0 1.664-.647 3.228-1.824 4.403-1.177 1.176-2.74 1.824-4.404 1.824-.008 0-.016 0-.023 0-1.672-.006-3.24-.665-4.413-1.856l-41.954-42.583c-1.223-1.242-3.375-1.243-4.596 0l-41.957 42.585c-1.181 1.197-2.756 1.856-4.435 1.856z" fill="#211915"/></g></g></g></g><g><g><g><path d="m256 123.608c-13.946 0-25.292-11.346-25.292-25.292 0-8.634 4.337-16.585 11.601-21.269 1.462-.943 3.412-.522 4.356.94.943 1.462.522 3.413-.941 4.356-5.456 3.519-8.714 9.49-8.714 15.973 0 10.471 8.519 18.99 18.99 18.99s18.99-8.519 18.99-18.99c0-6.483-3.258-12.454-8.714-15.973-1.463-.943-1.883-2.893-.94-4.356.943-1.462 2.893-1.883 4.356-.94 7.264 4.684 11.601 12.635 11.601 21.269-.001 13.946-11.347 25.292-25.293 25.292z" fill="#fff"/></g><g><path d="m256 119.999c-13.351 0-24.312-10.401-25.223-23.525-.044.61-.069 1.224-.069 1.842 0 13.946 11.346 25.292 25.292 25.292s25.292-11.346 25.292-25.292c0-.618-.025-1.232-.069-1.842-.911 13.124-11.872 23.525-25.223 23.525z" fill="#c2aacf"/></g><g><path d="m256 125.108c-14.773 0-26.792-12.019-26.792-26.792 0-3.661.724-7.211 2.152-10.551.325-.762 1.205-1.116 1.969-.79.762.326 1.115 1.207.789 1.969-1.268 2.966-1.91 6.119-1.91 9.373 0 13.119 10.673 23.792 23.792 23.792s23.792-10.673 23.792-23.792c0-8.122-4.08-15.601-10.913-20.008-.371-.239-.814-.319-1.244-.226-.431.093-.8.348-1.038.718-.239.371-.319.812-.227 1.244s.349.8.719 1.039c5.887 3.796 9.401 10.239 9.401 17.233 0 11.298-9.191 20.49-20.49 20.49s-20.49-9.192-20.49-20.49c0-6.995 3.515-13.437 9.401-17.233.37-.239.626-.608.719-1.039s.013-.873-.227-1.243c-.239-.371-.607-.626-1.038-.719-.43-.092-.873-.013-1.243.227-1.668 1.076-3.195 2.351-4.539 3.79-.567.606-1.517.637-2.12.072-.605-.565-.639-1.515-.073-2.12 1.513-1.619 3.23-3.054 5.106-4.263 1.043-.673 2.287-.899 3.501-.638 1.216.262 2.255.982 2.928 2.026.673 1.043.899 2.287.638 3.501-.263 1.214-.981 2.254-2.026 2.928-5.025 3.241-8.026 8.741-8.026 14.712 0 9.644 7.846 17.49 17.49 17.49s17.49-7.846 17.49-17.49c0-5.971-3.001-11.471-8.026-14.712-1.045-.673-1.764-1.713-2.026-2.928-.262-1.214-.035-2.458.638-3.502s1.712-1.763 2.927-2.025c1.214-.263 2.457-.036 3.502.637 7.694 4.962 12.288 13.385 12.288 22.53-.002 14.771-12.021 26.79-26.794 26.79z" fill="#211915"/></g></g><g><g><path d="m259.152 69.589v16.091c0 1.742-1.412 3.151-3.151 3.151-1.742 0-3.151-1.408-3.151-3.151v-16.091c0-1.739 1.408-3.151 3.151-3.151 1.739 0 3.151 1.411 3.151 3.151z" fill="#c2aacf"/></g><g><path d="m259.152 69.589v12.484c0 1.739-1.412 3.151-3.151 3.151-1.742 0-3.151-1.412-3.151-3.151v-12.484c0-1.739 1.408-3.151 3.151-3.151 1.739 0 3.151 1.411 3.151 3.151z" fill="#fff"/></g><g><path d="m256.001 90.331c-2.564 0-4.651-2.086-4.651-4.651v-16.091c0-2.564 2.087-4.651 4.651-4.651s4.65 2.086 4.65 4.651v16.091c0 2.565-2.086 4.651-4.65 4.651zm0-22.393c-.91 0-1.651.741-1.651 1.651v16.091c0 .91.741 1.651 1.651 1.651s1.65-.741 1.65-1.651v-16.091c0-.91-.74-1.651-1.65-1.651z" fill="#211915"/></g></g></g></g></g></g></svg>