<svg id="Icons" enable-background="new 0 0 512 512" height="512" viewBox="0 0 512 512" width="512" xmlns="http://www.w3.org/2000/svg"><g><g><circle cx="256" cy="256" fill="#78c795" r="256"/></g><g><g><g><g><g><g><g><path d="m431.508 150.319c-.39 0-.773-.152-1.061-.439l-17.083-17.088c-.281-.281-.439-.663-.439-1.061v-25.465c0-3.202 2.604-5.808 5.803-5.808h8.478c3.199 0 5.803 2.605 5.803 5.808v42.553c0 .606-.365 1.153-.926 1.386-.187.077-.382.114-.575.114z" fill="#c0405c"/></g><g><path d="m427.205 101.959c2.375 0 4.302 1.927 4.302 4.308v42.553l-17.083-17.088v-25.465c0-2.38 1.927-4.308 4.302-4.308zm0-3h-8.478c-4.027 0-7.302 3.278-7.302 7.308v25.465c0 .795.316 1.559.878 2.121l17.083 17.088c.574.574 1.341.879 2.122.879.386 0 .776-.075 1.147-.229 1.121-.464 1.852-1.558 1.852-2.771v-42.553c.001-4.03-3.275-7.308-7.302-7.308z" fill="#211915"/></g></g><g><path d="m431.508 106.267v36.237l-6.881-6.886c-2.492-2.487-3.886-5.864-3.886-9.378v-19.972c0-2.38 1.928-4.308 4.303-4.308h2.161c2.375-.001 4.303 1.926 4.303 4.307z" fill="#e9465e"/></g></g><g><g><g><path d="m444.619 176.638v110.473c0 4.421-2.664 8.211-6.477 9.865-1.309.563-2.75.879-4.266.879h-127.417c-1.516 0-2.957-.316-4.26-.879-3.813-1.648-6.483-5.443-6.483-9.865v-110.473l12.471-12.511 61.983-62.167z" fill="#daab42"/></g><g><path d="m444.619 176.638v110.473c0 4.421-2.664 8.211-6.477 9.865-1.309.563-2.75.879-4.266.879h-114.952c-1.516 0-2.951-.316-4.26-.879-3.807-1.648-6.477-5.443-6.477-9.865v-122.985l61.983-62.167z" fill="#fbcb74"/></g><g><path d="m433.876 299.354h-127.417c-1.683 0-3.316-.337-4.855-1.001-4.488-1.94-7.388-6.354-7.388-11.242v-110.473c0-.397.157-.777.438-1.059l74.454-74.68c.562-.564 1.562-.565 2.125.001l74.449 74.679c.28.28.438.661.438 1.059v110.472c0 4.884-2.896 9.296-7.38 11.241-1.55.667-3.184 1.003-4.864 1.003zm-136.66-122.096v109.852c0 3.691 2.189 7.023 5.578 8.488 1.16.501 2.394.755 3.665.755h127.417c1.271 0 2.507-.255 3.675-.756 3.381-1.468 5.568-4.8 5.568-8.487v-109.852l-72.949-73.174z" fill="#211915"/></g></g><g><g><path d="m471.762 192.807c0 2.304-.88 4.603-2.634 6.357-3.53 3.53-9.261 3.509-12.765-.046l-79.792-80.987c-3.519-3.575-9.287-3.575-12.806 0l-79.792 80.987c-1.76 1.785-4.084 2.68-6.403 2.68-2.304 0-4.608-.88-6.362-2.634-2.965-2.965-3.423-7.486-1.383-10.935.376-.636.839-1.236 1.383-1.78l92.618-92.613c3.509-3.514 9.205-3.509 12.715 0l92.587 92.613c.544.544 1.007 1.144 1.383 1.78.834 1.41 1.251 2.991 1.251 4.578z" fill="#e9465e"/></g><g><path d="m470.511 188.23c-.376.636-.839 1.236-1.383 1.78v.005c-3.53 3.53-9.261 3.504-12.765-.051l-79.792-80.987c-3.519-3.575-9.287-3.575-12.806 0l-79.792 80.987c-1.76 1.785-4.084 2.68-6.408 2.68-2.304 0-4.603-.875-6.357-2.629-.549-.549-1.007-1.149-1.383-1.785.376-.636.839-1.236 1.383-1.78l92.618-92.613c3.509-3.514 9.205-3.509 12.715 0l92.587 92.613c.544.544 1.007 1.144 1.383 1.78z" fill="#ee6781"/></g><g><path d="m277.57 203.299c-2.806 0-5.441-1.092-7.423-3.074-3.39-3.388-4.053-8.635-1.614-12.759.445-.753.989-1.452 1.615-2.077l50.81-50.808c.586-.586 1.535-.586 2.121 0s.586 1.535 0 2.121l-50.811 50.809c-.448.448-.836.946-1.153 1.482-1.741 2.944-1.267 6.69 1.153 9.11 1.415 1.416 3.298 2.195 5.302 2.195 2.02 0 3.914-.793 5.334-2.233l79.792-80.986c1.985-2.018 4.64-3.129 7.472-3.129h.001c2.831 0 5.484 1.111 7.471 3.13l79.791 80.985c1.412 1.433 3.297 2.226 5.31 2.233h.028c2.002 0 3.883-.779 5.299-2.195 1.415-1.415 2.194-3.296 2.194-5.297 0-1.343-.36-2.661-1.042-3.813-.316-.536-.704-1.034-1.152-1.482l-92.588-92.613c-1.415-1.415-3.296-2.194-5.297-2.194-.001 0-.001 0-.002 0-2.001 0-3.881.778-5.294 2.193l-25.066 25.065c-.586.586-1.535.586-2.121 0s-.586-1.535 0-2.121l25.065-25.064c1.979-1.981 4.613-3.073 7.416-3.073h.003c2.802 0 5.437 1.092 7.417 3.073l92.588 92.613c.626.626 1.169 1.324 1.613 2.076.955 1.613 1.46 3.461 1.46 5.341 0 2.802-1.092 5.437-3.073 7.418-1.983 1.983-4.616 3.074-7.42 3.074-.013 0-.026 0-.039 0-2.818-.011-5.458-1.121-7.436-3.128l-79.792-80.986c-1.418-1.44-3.312-2.234-5.334-2.234-2.021 0-3.916.794-5.334 2.234l-79.793 80.986c-1.988 2.017-4.642 3.128-7.471 3.128z" fill="#211915"/></g></g></g></g><g><g><g><path d="m370.169 273.673c-26.523 0-48.102-21.578-48.102-48.102 0-16.42 8.248-31.542 22.063-40.451 2.78-1.793 6.49-.993 8.284 1.789 1.794 2.781.993 6.49-1.789 8.284-10.377 6.692-16.573 18.048-16.573 30.378 0 19.915 16.202 36.117 36.117 36.117s36.117-16.202 36.117-36.117c0-12.33-6.196-23.686-16.573-30.378-2.782-1.794-3.582-5.503-1.789-8.284 1.794-2.781 5.502-3.582 8.284-1.789 13.815 8.909 22.063 24.031 22.063 40.451 0 26.524-21.578 48.102-48.102 48.102z" fill="#fff"/></g><g><path d="m370.169 266.809c-25.392 0-46.238-19.781-47.971-44.741-.083 1.16-.131 2.327-.131 3.502 0 26.524 21.578 48.102 48.102 48.102s48.102-21.578 48.102-48.102c0-1.175-.047-2.342-.131-3.502-1.733 24.96-22.579 44.741-47.971 44.741z" fill="#c2aacf"/></g><g><path d="m370.169 275.173c-27.351 0-49.602-22.251-49.602-49.602 0-6.779 1.341-13.353 3.984-19.536.324-.761 1.205-1.118 1.969-.789.762.325 1.115 1.207.789 1.969-2.483 5.809-3.742 11.984-3.742 18.356 0 25.696 20.905 46.602 46.602 46.602s46.603-20.905 46.603-46.602c0-15.908-7.991-30.559-21.376-39.19-2.081-1.343-4.868-.741-6.211 1.342-1.342 2.081-.74 4.867 1.341 6.209 10.809 6.971 17.261 18.798 17.261 31.64 0 20.741-16.875 37.616-37.617 37.616s-37.617-16.875-37.617-37.616c0-12.842 6.452-24.669 17.261-31.64 1.008-.65 1.703-1.654 1.957-2.827.253-1.173.034-2.374-.616-3.382-.65-1.009-1.654-1.704-2.828-1.957-1.174-.257-2.374-.036-3.383.615-3.265 2.105-6.255 4.602-8.887 7.42-.567.607-1.516.637-2.12.073-.605-.565-.639-1.515-.073-2.12 2.801-2.999 5.982-5.655 9.455-7.895 1.681-1.085 3.682-1.451 5.641-1.026 1.957.422 3.632 1.581 4.717 3.264 1.085 1.682 1.449 3.685 1.026 5.642-.423 1.956-1.581 3.631-3.264 4.715-9.947 6.415-15.886 17.301-15.886 29.118 0 19.088 15.529 34.616 34.617 34.616s34.617-15.528 34.617-34.616c0-11.817-5.938-22.703-15.886-29.118-3.473-2.238-4.476-6.885-2.237-10.356 2.239-3.474 6.887-4.476 10.357-2.237 14.246 9.187 22.751 24.78 22.751 41.712-.001 27.349-22.252 49.6-49.603 49.6z" fill="#211915"/></g></g><g><g><path d="m376.163 170.936v30.604c0 3.314-2.685 5.993-5.993 5.993-3.314 0-5.993-2.679-5.993-5.993v-30.604c0-3.308 2.679-5.993 5.993-5.993 3.309 0 5.993 2.685 5.993 5.993z" fill="#c2aacf"/></g><g><path d="m376.163 170.936v23.743c0 3.308-2.685 5.993-5.993 5.993-3.314 0-5.993-2.685-5.993-5.993v-23.743c0-3.308 2.679-5.993 5.993-5.993 3.309 0 5.993 2.685 5.993 5.993z" fill="#fff"/></g><g><path d="m370.171 209.032c-4.132 0-7.493-3.361-7.493-7.492v-30.604c0-4.131 3.361-7.492 7.493-7.492 4.131 0 7.492 3.361 7.492 7.492v30.604c0 4.131-3.361 7.492-7.492 7.492zm0-42.589c-2.478 0-4.493 2.016-4.493 4.492v30.604c0 2.477 2.016 4.492 4.493 4.492s4.492-2.016 4.492-4.492v-30.604c0-2.476-2.016-4.492-4.492-4.492z" fill="#211915"/></g></g></g></g><g><g><g><g><g><path d="m203.17 150.319c-.39 0-.773-.152-1.061-.439l-17.083-17.088c-.281-.281-.439-.663-.439-1.061v-25.465c0-3.202 2.604-5.808 5.803-5.808h8.478c3.199 0 5.803 2.605 5.803 5.808v42.553c0 .606-.365 1.153-.926 1.386-.186.077-.382.114-.575.114z" fill="#c0405c"/></g><g><path d="m198.867 101.959c2.375 0 4.303 1.927 4.303 4.308v42.553l-17.083-17.088v-25.465c0-2.38 1.928-4.308 4.303-4.308zm0-3h-8.478c-4.027 0-7.303 3.278-7.303 7.308v25.465c0 .795.316 1.559.878 2.121l17.083 17.088c.574.574 1.341.879 2.122.879.386 0 .776-.075 1.147-.229 1.121-.464 1.852-1.558 1.852-2.771v-42.553c.002-4.03-3.274-7.308-7.301-7.308z" fill="#211915"/></g></g><g><path d="m203.17 106.267v36.237l-6.881-6.886c-2.492-2.487-3.886-5.864-3.886-9.378v-19.972c0-2.38 1.928-4.308 4.303-4.308h2.161c2.375-.001 4.303 1.926 4.303 4.307z" fill="#e9465e"/></g></g><g><g><g><path d="m216.281 176.638v110.473c0 4.421-2.664 8.211-6.477 9.865-1.309.563-2.75.879-4.266.879h-127.417c-1.516 0-2.957-.316-4.26-.879-3.813-1.648-6.483-5.443-6.483-9.865v-110.473l12.471-12.511 61.983-62.167z" fill="#daab42"/></g><g><path d="m216.281 176.638v110.473c0 4.421-2.664 8.211-6.477 9.865-1.309.563-2.75.879-4.266.879h-114.952c-1.516 0-2.951-.316-4.26-.879-3.807-1.648-6.477-5.443-6.477-9.865v-122.985l61.983-62.167z" fill="#fbcb74"/></g><g><path d="m205.538 299.354h-127.417c-1.684 0-3.317-.337-4.855-1.001-4.488-1.94-7.388-6.354-7.388-11.242v-110.473c0-.397.157-.777.438-1.059l74.454-74.68c.562-.564 1.562-.565 2.125.001l74.449 74.679c.28.28.438.661.438 1.059v110.472c0 4.884-2.896 9.296-7.38 11.241-1.549.667-3.184 1.003-4.864 1.003zm-136.66-122.096v109.852c0 3.691 2.189 7.023 5.578 8.488 1.159.501 2.393.755 3.665.755h127.417c1.271 0 2.507-.255 3.675-.756 3.381-1.468 5.568-4.8 5.568-8.487v-109.852l-72.949-73.174z" fill="#211915"/></g></g><g><g><path d="m243.424 192.807c0 2.304-.88 4.603-2.634 6.357-3.53 3.53-9.261 3.509-12.765-.046l-79.792-80.987c-3.519-3.575-9.287-3.575-12.806 0l-79.792 80.987c-1.76 1.785-4.084 2.68-6.403 2.68-2.304 0-4.608-.88-6.362-2.634-2.965-2.965-3.423-7.486-1.383-10.935.376-.636.839-1.236 1.383-1.78l92.618-92.613c3.509-3.514 9.205-3.509 12.715 0l92.587 92.613c.544.544 1.007 1.144 1.383 1.78.834 1.41 1.251 2.991 1.251 4.578z" fill="#e9465e"/></g><g><path d="m242.173 188.23c-.376.636-.839 1.236-1.383 1.78v.005c-3.53 3.53-9.261 3.504-12.765-.051l-79.792-80.987c-3.519-3.575-9.287-3.575-12.806 0l-79.792 80.987c-1.76 1.785-4.084 2.68-6.408 2.68-2.304 0-4.603-.875-6.357-2.629-.549-.549-1.007-1.149-1.383-1.785.376-.636.839-1.236 1.383-1.78l92.618-92.613c3.509-3.514 9.205-3.509 12.715 0l92.587 92.613c.544.544 1.007 1.144 1.383 1.78z" fill="#ee6781"/></g><g><path d="m49.232 203.299c-2.806 0-5.441-1.092-7.423-3.074-3.39-3.388-4.053-8.635-1.614-12.759.445-.753.989-1.452 1.615-2.077l50.81-50.808c.586-.586 1.535-.586 2.121 0s.586 1.535 0 2.121l-50.811 50.809c-.448.448-.836.946-1.153 1.482-1.741 2.944-1.267 6.69 1.153 9.11 1.415 1.416 3.298 2.195 5.302 2.195 2.02 0 3.914-.793 5.334-2.233l79.792-80.986c1.985-2.018 4.64-3.129 7.472-3.129h.001c2.831 0 5.484 1.111 7.471 3.13l79.791 80.985c1.412 1.433 3.297 2.226 5.31 2.233h.028c2.002 0 3.883-.779 5.299-2.195 1.415-1.415 2.194-3.296 2.194-5.297 0-1.343-.36-2.661-1.042-3.813-.316-.536-.704-1.034-1.152-1.482l-92.588-92.613c-1.415-1.415-3.296-2.194-5.297-2.194-.001 0-.001 0-.002 0-2.001 0-3.881.778-5.294 2.193l-25.066 25.065c-.586.586-1.535.586-2.121 0s-.586-1.535 0-2.121l25.065-25.064c1.979-1.981 4.613-3.073 7.416-3.073h.003c2.802 0 5.437 1.092 7.417 3.073l92.588 92.613c.626.626 1.169 1.324 1.613 2.076.955 1.613 1.46 3.461 1.46 5.341 0 2.802-1.092 5.437-3.073 7.418-1.983 1.983-4.616 3.074-7.42 3.074-.013 0-.026 0-.039 0-2.818-.011-5.458-1.121-7.436-3.128l-79.792-80.986c-1.418-1.44-3.312-2.234-5.334-2.234-2.021 0-3.916.794-5.334 2.234l-79.793 80.986c-1.988 2.017-4.641 3.128-7.471 3.128z" fill="#211915"/></g></g></g></g><g><g><g><path d="m141.831 273.673c-26.523 0-48.102-21.578-48.102-48.102 0-16.42 8.248-31.542 22.063-40.451 2.78-1.793 6.49-.993 8.284 1.789 1.794 2.781.993 6.49-1.789 8.284-10.377 6.692-16.573 18.048-16.573 30.378 0 19.915 16.202 36.117 36.117 36.117s36.117-16.202 36.117-36.117c0-12.33-6.196-23.686-16.573-30.378-2.782-1.794-3.582-5.503-1.789-8.284 1.794-2.781 5.502-3.582 8.284-1.789 13.815 8.909 22.063 24.031 22.063 40.451 0 26.524-21.578 48.102-48.102 48.102z" fill="#fff"/></g><g><path d="m141.831 266.809c-25.392 0-46.238-19.781-47.971-44.741-.084 1.16-.131 2.327-.131 3.502 0 26.524 21.578 48.102 48.102 48.102s48.102-21.578 48.102-48.102c0-1.175-.047-2.342-.131-3.502-1.732 24.96-22.578 44.741-47.971 44.741z" fill="#c2aacf"/></g><g><path d="m141.831 275.173c-27.351 0-49.603-22.251-49.603-49.602 0-6.777 1.341-13.351 3.985-19.536.324-.761 1.205-1.118 1.969-.789.762.325 1.115 1.207.789 1.969-2.483 5.811-3.743 11.986-3.743 18.356 0 25.696 20.906 46.602 46.603 46.602s46.602-20.905 46.602-46.602c0-15.908-7.991-30.56-21.375-39.19-2.081-1.343-4.868-.741-6.211 1.342-1.342 2.081-.74 4.867 1.341 6.209 10.809 6.971 17.261 18.798 17.261 31.64 0 20.741-16.875 37.616-37.617 37.616s-37.617-16.875-37.617-37.616c0-12.842 6.452-24.669 17.261-31.64 1.008-.65 1.703-1.654 1.957-2.827.253-1.173.034-2.374-.616-3.382-.65-1.009-1.654-1.704-2.828-1.957-1.174-.257-2.373-.036-3.383.615-3.268 2.106-6.257 4.604-8.887 7.42-.567.607-1.516.637-2.12.073-.605-.565-.639-1.515-.073-2.12 2.799-2.998 5.979-5.653 9.455-7.895 1.681-1.085 3.684-1.451 5.641-1.026 1.957.422 3.632 1.581 4.717 3.264 1.085 1.682 1.449 3.685 1.026 5.642-.423 1.956-1.581 3.631-3.264 4.715-9.947 6.415-15.886 17.301-15.886 29.118 0 19.088 15.529 34.616 34.617 34.616s34.617-15.528 34.617-34.616c0-11.817-5.938-22.703-15.886-29.118-3.473-2.238-4.476-6.885-2.237-10.356 2.24-3.474 6.888-4.476 10.357-2.237 14.245 9.187 22.75 24.779 22.75 41.712 0 27.349-22.251 49.6-49.602 49.6z" fill="#211915"/></g></g><g><g><path d="m147.825 170.936v30.604c0 3.314-2.685 5.993-5.993 5.993-3.314 0-5.993-2.679-5.993-5.993v-30.604c0-3.308 2.679-5.993 5.993-5.993 3.309 0 5.993 2.685 5.993 5.993z" fill="#c2aacf"/></g><g><path d="m147.825 170.936v23.743c0 3.308-2.685 5.993-5.993 5.993-3.314 0-5.993-2.685-5.993-5.993v-23.743c0-3.308 2.679-5.993 5.993-5.993 3.309 0 5.993 2.685 5.993 5.993z" fill="#fff"/></g><g><path d="m141.833 209.032c-4.132 0-7.493-3.361-7.493-7.492v-30.604c0-4.131 3.361-7.492 7.493-7.492 4.131 0 7.492 3.361 7.492 7.492v30.604c0 4.131-3.361 7.492-7.492 7.492zm0-42.589c-2.478 0-4.493 2.016-4.493 4.492v30.604c0 2.477 2.016 4.492 4.493 4.492s4.492-2.016 4.492-4.492v-30.604c0-2.476-2.015-4.492-4.492-4.492z" fill="#211915"/></g></g></g></g></g><g><g><path d="m141.829 385.141c-.828 0-1.5-.672-1.5-1.5v-85.787c0-.828.672-1.5 1.5-1.5s1.5.672 1.5 1.5v85.787c0 .828-.672 1.5-1.5 1.5z" fill="#211915"/></g><g><path d="m370.171 385.141c-.828 0-1.5-.672-1.5-1.5v-85.787c0-.828.672-1.5 1.5-1.5s1.5.672 1.5 1.5v85.787c0 .828-.672 1.5-1.5 1.5z" fill="#211915"/></g><g><path d="m449.186 385.141h-386.372c-.828 0-1.5-.672-1.5-1.5s.672-1.5 1.5-1.5h386.371c.828 0 1.5.672 1.5 1.5s-.671 1.5-1.499 1.5z" fill="#211915"/></g><g><g><path d="m164.103 381.943c0 11.726-9.498 21.239-21.224 21.239s-21.239-9.513-21.239-21.239c0-1.415.136-2.8.406-4.14 1.927-9.754 10.522-17.1 20.833-17.1s18.891 7.346 20.818 17.1c.27 1.34.406 2.725.406 4.14z" fill="#c2aacf"/></g><g><path d="m163.697 377.804c-1.927 9.754-10.507 17.1-20.818 17.1s-18.906-7.346-20.833-17.1c1.927-9.754 10.522-17.1 20.833-17.1s18.891 7.345 20.818 17.1z" fill="#fff"/></g><g><path d="m142.879 404.683c-12.539 0-22.74-10.201-22.74-22.739 0-1.513.147-3.006.438-4.438.655-3.325 2.021-6.401 4.058-9.135.496-.664 1.436-.801 2.099-.308.665.495.803 1.435.308 2.099-1.768 2.373-2.952 5.042-3.522 7.932-.252 1.243-.379 2.536-.379 3.85 0 10.884 8.855 19.739 19.74 19.739 10.876 0 19.724-8.855 19.724-19.739 0-1.316-.127-2.609-.376-3.842-1.82-9.215-9.957-15.897-19.348-15.897-.828 0-1.5-.672-1.5-1.5s.672-1.5 1.5-1.5c10.819 0 20.193 7.7 22.289 18.309.288 1.421.435 2.914.435 4.431-.002 12.536-10.196 22.738-22.726 22.738z" fill="#211915"/></g></g><g><g><path d="m392.441 381.943c0 11.726-9.498 21.239-21.224 21.239s-21.239-9.513-21.239-21.239c0-1.415.135-2.8.406-4.14 1.927-9.754 10.522-17.1 20.833-17.1s18.891 7.346 20.818 17.1c.27 1.34.406 2.725.406 4.14z" fill="#c2aacf"/></g><g><path d="m392.034 377.804c-1.927 9.754-10.507 17.1-20.818 17.1s-18.906-7.346-20.833-17.1c1.927-9.754 10.522-17.1 20.833-17.1 10.312 0 18.892 7.345 20.818 17.1z" fill="#fff"/></g><g><path d="m371.217 404.683c-12.538 0-22.739-10.201-22.739-22.739 0-1.517.146-3.01.437-4.438.655-3.325 2.021-6.401 4.058-9.135.495-.664 1.436-.801 2.099-.308.665.495.803 1.435.308 2.099-1.768 2.373-2.952 5.042-3.522 7.932-.251 1.24-.378 2.533-.378 3.85 0 10.884 8.855 19.739 19.739 19.739 10.876 0 19.724-8.855 19.724-19.739 0-1.316-.127-2.609-.376-3.842-1.82-9.215-9.957-15.897-19.348-15.897-.828 0-1.5-.672-1.5-1.5s.672-1.5 1.5-1.5c10.819 0 20.193 7.7 22.289 18.309.288 1.421.435 2.914.435 4.431-.003 12.536-10.196 22.738-22.726 22.738z" fill="#211915"/></g></g></g></g></g></svg>