<svg id="Capa_1" enable-background="new 0 0 512 512" height="512" viewBox="0 0 512 512" width="512" xmlns="http://www.w3.org/2000/svg"><g><path d="m0 256c0-141.208 114.328-255.713 255.468-255.999 141.09-.287 256.481 114.814 256.532 255.905.033 91.547-47.987 171.88-120.219 217.159-6.497 4.073-14.622 4.413-21.481.985-34.404-17.196-73.222-26.871-114.299-26.871-41.374 0-80.456 9.815-115.043 27.244-6.306 3.177-13.816 2.942-19.815-.783-72.722-45.156-121.143-125.743-121.143-217.64z" fill="#5596fb"/><path d="m123.165 362.594c-9.875 9.875-25.885 9.875-35.759 0-8.907-8.907-9.9-23.013-2.327-33.08 0 0 13.609-18.091 18.146-24.122 1.032-1.372 3.091-1.372 4.122 0 4.536 6.031 18.146 24.122 18.146 24.122 7.572 10.067 6.58 24.173-2.328 33.08zm-47.673-153.08s-13.609-18.091-18.146-24.122c-1.032-1.372-3.09-1.372-4.122 0-4.536 6.031-18.146 24.122-18.146 24.122-7.573 10.067-6.58 24.172 2.327 33.08 9.875 9.875 25.884 9.875 35.759 0 8.909-8.907 9.901-23.013 2.328-33.08z" fill="#0a66ea"/><path d="m256 120c-5.523 0-10-4.477-10-10v-100c0-5.523 4.477-10 10-10 5.523 0 10 4.477 10 10v100c0 5.523-4.477 10-10 10z" fill="#d63030"/><path d="m271 120h-30c-5.523 0-10-4.477-10-10v-60c0-5.523 4.477-10 10-10h30c5.523 0 10 4.477 10 10v60c0 5.523-4.477 10-10 10z" fill="#af2727"/><path d="m392 75v397.927c-12.002 7.541-24.675 14.113-37.907 19.607-30.211 12.543-165.907 12.557-196.094.038-13.266-5.502-25.969-12.087-37.999-19.645v-397.927c0-8.284 6.716-15 15-15h242c8.284 0 15 6.716 15 15z" fill="#f44545"/><path d="m135 60h38c-8.284 0-15 6.716-15 15v417.572c-13.266-5.502-25.97-12.087-38-19.645v-397.927c0-8.284 6.716-15 15-15z" fill="#d63030"/><path d="m157.908 492.533c-4.472-11.68-6.918-24.362-6.908-37.617.046-58.984 49.71-106.872 108.659-104.853 56.296 1.928 101.341 48.172 101.341 104.937 0 13.225-2.445 25.878-6.908 37.533-8.865 3.681-17.982 6.878-27.318 9.558-.422.121-48.9-19.424-70.774-19.424-21.728 0-70.482 19.508-70.773 19.425-9.336-2.681-18.454-5.878-27.319-9.559z" fill="#af2727"/><path d="m341 455c0 17.417-5.239 33.611-14.226 47.091-22.477 6.453-46.222 9.909-70.774 9.909s-48.297-3.456-70.774-9.909c-8.987-13.48-14.226-29.674-14.226-47.091 0-46.944 38.056-85 85-85s85 38.056 85 85z" fill="#fff5f5"/><path d="m271 455c0 8.284-6.716 15-15 15s-15-6.716-15-15 6.716-15 15-15 15 6.716 15 15z" fill="#f44545"/><path d="m360 110v190c0 5.523-4.477 10-10 10h-190c-5.523 0-10-4.477-10-10v-190c0-5.523 4.477-10 10-10h190c5.523 0 10 4.477 10 10z" fill="#fff5f5"/><path d="m180 281.25c0 4.142-3.358 7.5-7.5 7.5h-22.5v-15h22.5c4.142 0 7.5 3.358 7.5 7.5zm-7.5-129.5h-22.5v15h22.5c4.142 0 7.5-3.358 7.5-7.5s-3.358-7.5-7.5-7.5zm0 61h-22.5v15h22.5c4.142 0 7.5-3.358 7.5-7.5s-3.358-7.5-7.5-7.5zm-2.5-23c0-4.142-3.358-7.5-7.5-7.5h-12.5v15h12.5c4.142 0 7.5-3.358 7.5-7.5zm0-61c0-4.142-3.358-7.5-7.5-7.5h-12.5v15h12.5c4.142 0 7.5-3.358 7.5-7.5zm0 122c0-4.142-3.358-7.5-7.5-7.5h-12.5v15h12.5c4.142 0 7.5-3.358 7.5-7.5zm177.5-129.5c-4.142 0-7.5 3.358-7.5 7.5s3.358 7.5 7.5 7.5h12.5v-15zm-7.5 129.5c0 4.142 3.358 7.5 7.5 7.5h12.5v-15h-12.5c-4.142 0-7.5 3.358-7.5 7.5zm-10 30.5c0 4.142 3.358 7.5 7.5 7.5h22.5v-15h-22.5c-4.142 0-7.5 3.358-7.5 7.5zm10-91.5c0 4.142 3.358 7.5 7.5 7.5h12.5v-15h-12.5c-4.142 0-7.5 3.358-7.5 7.5zm-10 30.5c0 4.142 3.358 7.5 7.5 7.5h22.5v-15h-22.5c-4.142 0-7.5 3.358-7.5 7.5zm0-61c0 4.142 3.358 7.5 7.5 7.5h22.5v-15h-22.5c-4.142 0-7.5 3.358-7.5 7.5z" fill="#b4e7fd"/><path d="m231 130v70c0 5.523-4.477 10-10 10s-10-4.477-10-10v-70c0-5.523 4.477-10 10-10s10 4.477 10 10zm60-10c-5.523 0-10 4.477-10 10v50c0 5.523 4.477 10 10 10s10-4.477 10-10v-50c0-5.523-4.477-10-10-10z" fill="#97bffd"/><path d="m241 270c0 11.046-8.954 20-20 20s-20-8.954-20-20c0-7.403 4.022-13.866 10-17.324v-52.676c0-5.523 4.477-10 10-10s10 4.477 10 10v52.676c5.978 3.458 10 9.921 10 17.324zm60-17.324v-92.676c0-5.523-4.477-10-10-10s-10 4.477-10 10v92.676c-5.978 3.458-10 9.921-10 17.324 0 11.046 8.954 20 20 20s20-8.954 20-20c0-7.403-4.022-13.866-10-17.324z" fill="#0a3575"/><path d="m328.5 455c0 20.393-8.464 38.847-22.063 52.032-13.59 2.715-27.567 4.355-41.841 4.826 9.828-1.479 18.85-5.456 26.396-11.26l-10.243-10.243c-2.929-2.929-2.929-7.678 0-10.606 2.929-2.929 7.678-2.929 10.607 0l10.243 10.243c6.019-7.826 10.073-17.238 11.414-27.492h-14.513c-4.142 0-7.5-3.358-7.5-7.5s3.358-7.5 7.5-7.5h14.513c-1.341-10.254-5.395-19.666-11.414-27.492l-10.243 10.243c-2.929 2.929-7.678 2.929-10.607 0s-2.929-7.677 0-10.606l10.243-10.243c-7.826-6.02-17.238-10.073-27.492-11.414v14.512c0 4.142-3.358 7.5-7.5 7.5s-7.5-3.358-7.5-7.5v-14.513c-10.254 1.341-19.666 5.395-27.492 11.414l10.243 10.243c2.929 2.929 2.929 7.678 0 10.606-2.929 2.929-7.678 2.929-10.607 0l-10.243-10.243c-6.019 7.826-10.073 17.238-11.414 27.492h14.513c4.142 0 7.5 3.358 7.5 7.5s-3.358 7.5-7.5 7.5h-14.513c1.341 10.254 5.395 19.666 11.414 27.492l10.243-10.243c2.929-2.929 7.678-2.929 10.607 0s2.929 7.677 0 10.606l-10.243 10.243c7.546 5.804 16.567 9.78 26.396 11.26-14.274-.471-28.252-2.111-41.841-4.826-13.599-13.184-22.063-31.638-22.063-52.031 0-39.977 32.523-72.5 72.5-72.5s72.5 32.523 72.5 72.5zm-72.5 35c-4.142 0-7.5 3.358-7.5 7.5v14.392c2.491.072 4.991.108 7.5.108s5.009-.036 7.5-.108v-14.392c0-4.142-3.358-7.5-7.5-7.5z" fill="#97bffd"/><path d="m470.572 248.352c15.272 20.302 13.271 48.749-4.693 66.713-19.914 19.914-52.202 19.914-72.116 0-17.964-17.964-19.965-46.411-4.693-66.713 0 0 27.446-36.485 36.594-48.647 2.081-2.766 6.233-2.766 8.313 0 9.149 12.161 36.595 48.647 36.595 48.647zm36.349-56.757s-13.609-18.091-18.146-24.122c-1.032-1.372-3.091-1.372-4.122 0-4.536 6.031-18.146 24.122-18.146 24.122-7.573 10.067-6.58 24.172 2.327 33.08 9.875 9.875 25.884 9.875 35.759 0 8.908-8.907 9.901-23.013 2.328-33.08z" fill="#d5f1fe"/><path d="m472.593 306.783c-1.91 2.938-4.149 5.717-6.714 8.282-19.914 19.914-52.202 19.914-72.116 0-17.964-17.964-19.965-46.411-4.693-66.713 0 0 6.76-8.986 14.688-19.526-6.271 21.037-.913 44.538 15.397 60.847 14.545 14.545 34.584 20.248 53.438 17.11zm8.832-94.699c-8.087-8.087-10.744-19.74-7.635-30.171-3.931 5.226-7.283 9.682-7.283 9.682-7.573 10.067-6.58 24.172 2.327 33.08 9.875 9.875 25.884 9.875 35.759 0 1.272-1.271 2.382-2.649 3.329-4.106-9.348 1.556-19.284-1.272-26.497-8.485z" fill="#b4e7fd"/></g></svg>