<svg id="color" enable-background="new 0 0 24 24" height="512" viewBox="0 0 24 24" width="512" xmlns="http://www.w3.org/2000/svg"><path d="m6.5 16h-3c-.553 0-1-.448-1-1s.447-1 1-1h3c.553 0 1 .448 1 1s-.447 1-1 1z" fill="#607d8b"/><path d="m2 17c-1.103 0-2-.897-2-2s.897-2 2-2 2 .897 2 2-.897 2-2 2z" fill="#ffc107"/><path d="m20.5 16h-3c-.553 0-1-.448-1-1s.447-1 1-1h3c.553 0 1 .448 1 1s-.447 1-1 1z" fill="#607d8b"/><path d="m22 17c-1.103 0-2-.897-2-2s.897-2 2-2 2 .897 2 2-.897 2-2 2z" fill="#ffc107"/><path d="m7.5 15h-3.5c0 .364-.098.706-.268 1h2.768c.553 0 1-.448 1-1z" fill="#546d79"/><path d="m4 15h-4c0 1.103.897 2 2 2 .739 0 1.385-.403 1.732-1 .17-.294.268-.636.268-1z" fill="#dea806"/><path d="m20 15h-3.5c0 .552.447 1 1 1h2.768c-.17-.294-.268-.636-.268-1z" fill="#546d79"/><path d="m24 15h-4c0 .364.098.706.268 1 .346.597.993 1 1.732 1 1.103 0 2-.897 2-2z" fill="#dea806"/><path d="m6.5 10h-3c-.553 0-1-.448-1-1s.447-1 1-1h3c.553 0 1 .448 1 1s-.447 1-1 1z" fill="#607d8b"/><path d="m2 11c-1.103 0-2-.897-2-2s.897-2 2-2 2 .897 2 2-.897 2-2 2z" fill="#ffc107"/><path d="m20.5 10h-3c-.553 0-1-.448-1-1s.447-1 1-1h3c.553 0 1 .448 1 1s-.447 1-1 1z" fill="#607d8b"/><path d="m22 11c-1.103 0-2-.897-2-2s.897-2 2-2 2 .897 2 2-.897 2-2 2z" fill="#ffc107"/><path d="m7.5 9h-3.5c0 .364-.098.706-.268 1h2.768c.553 0 1-.448 1-1z" fill="#546d79"/><path d="m4 9h-4c0 1.103.897 2 2 2 .739 0 1.385-.403 1.732-1 .17-.294.268-.636.268-1z" fill="#dea806"/><path d="m20 9h-3.5c0 .552.447 1 1 1h2.768c-.17-.294-.268-.636-.268-1z" fill="#546d79"/><path d="m24 9h-4c0 .364.098.706.268 1 .346.597.993 1 1.732 1 1.103 0 2-.897 2-2z" fill="#dea806"/><path d="m15 21.5c-.553 0-1-.448-1-1v-3c0-.552.447-1 1-1s1 .448 1 1v3c0 .552-.447 1-1 1z" fill="#607d8b"/><path d="m15 24c-1.103 0-2-.897-2-2s.897-2 2-2 2 .897 2 2-.897 2-2 2z" fill="#ffc107"/><path d="m15 7.5c-.553 0-1-.448-1-1v-3c0-.552.447-1 1-1s1 .448 1 1v3c0 .552-.447 1-1 1z" fill="#607d8b"/><path d="m15 4c-1.103 0-2-.897-2-2s.897-2 2-2 2 .897 2 2-.897 2-2 2z" fill="#ffc107"/><path d="m15 16.5c-.553 0-1 .448-1 1v2.768c.294-.17.636-.268 1-.268z" fill="#546d79"/><path d="m15 20c-.364 0-.706.098-1 .268-.597.346-1 .993-1 1.732 0 1.103.897 2 2 2z" fill="#dea806"/><path d="m14 3.732v2.768c0 .552.447 1 1 1v-3.5c-.364 0-.706-.098-1-.268z" fill="#546d79"/><path d="m15 0c-1.103 0-2 .897-2 2 0 .739.403 1.385 1 1.732.294.17.636.268 1 .268z" fill="#dea806"/><path d="m9 21.5c-.553 0-1-.448-1-1v-3c0-.552.447-1 1-1s1 .448 1 1v3c0 .552-.447 1-1 1z" fill="#607d8b"/><path d="m9 24c-1.103 0-2-.897-2-2s.897-2 2-2 2 .897 2 2-.897 2-2 2z" fill="#ffc107"/><path d="m9 7.5c-.553 0-1-.448-1-1v-3c0-.552.447-1 1-1s1 .448 1 1v3c0 .552-.447 1-1 1z" fill="#607d8b"/><path d="m9 4c-1.103 0-2-.897-2-2s.897-2 2-2 2 .897 2 2-.897 2-2 2z" fill="#ffc107"/><path d="m9 16.5c-.553 0-1 .448-1 1v2.768c.294-.17.636-.268 1-.268z" fill="#546d79"/><path d="m9 20c-.364 0-.706.098-1 .268-.597.347-1 .993-1 1.732 0 1.103.897 2 2 2z" fill="#dea806"/><path d="m8 3.732v2.768c0 .552.447 1 1 1v-3.5c-.364 0-.706-.098-1-.268z" fill="#546d79"/><path d="m9 0c-1.103 0-2 .897-2 2 0 .739.403 1.385 1 1.732.294.17.636.268 1 .268z" fill="#dea806"/><path d="m15.25 18h-6.5c-1.517 0-2.75-1.233-2.75-2.75v-6.5c0-1.517 1.233-2.75 2.75-2.75h6.5c1.517 0 2.75 1.233 2.75 2.75v6.5c0 1.517-1.233 2.75-2.75 2.75z" fill="#2196f3"/><path d="m12 6h-3.25c-1.517 0-2.75 1.233-2.75 2.75v6.5c0 1.517 1.233 2.75 2.75 2.75h3.25z" fill="#1d83d4"/></svg>