<svg id="Layer_1" enable-background="new 0 0 512 512" height="512" viewBox="0 0 512 512" width="512" xmlns="http://www.w3.org/2000/svg"><g><path d="m195.5 10h306.5v492h-492v-492z" fill="#fff"/><g fill="#b8ecbc"><path d="m502 335v167h-142v-84.5c45.56 0 82.5-36.94 82.5-82.5z"/><path d="m298 10h204v87h-204z"/><path d="m190 256h40v65h-40z"/></g><circle cx="401" cy="166" fill="#ff7d97" r="20"/><circle cx="101" cy="128" fill="#ff7d97" r="20"/><circle cx="130" cy="365" fill="#ff7d97" r="20"/><g><circle cx="255.5" cy="502" r="10"/><path d="m509.069 2.93c-1.859-1.861-4.439-2.93-7.069-2.93h-492c-2.63 0-5.21 1.069-7.07 2.93s-2.93 4.44-2.93 7.07v492c0 2.63 1.069 5.21 2.93 7.069 1.86 1.861 4.44 2.931 7.07 2.931h200.5c5.51 0 10-4.49 10-10s-4.49-10-10-10h-60.886l33.479-46.126c3.244-4.47 2.251-10.723-2.219-13.967-4.469-3.244-10.723-2.251-13.967 2.219l-42.005 57.874h-104.902v-117h81.72c4.128 11.639 15.243 20 28.28 20 16.542 0 30-13.458 30-30s-13.458-30-30-30c-13.036 0-24.152 8.361-28.28 20h-81.72v-89h160v55c0 5.522 4.478 10 10 10h40c5.522 0 10-4.478 10-10v-55h58.563l65.289 50.888c1.826 1.423 3.991 2.113 6.141 2.112 2.977 0 5.923-1.323 7.895-3.853 3.395-4.356 2.616-10.64-1.74-14.035l-68-53c-1.757-1.369-3.92-2.112-6.147-2.112h-102.001v-67c0-5.522-4.478-10-10-10s-10 4.478-10 10v10h-69v-32.72c11.639-4.128 20-15.243 20-28.28 0-16.542-13.458-30-30-30s-30 13.458-30 30c0 13.036 8.361 24.152 20 28.28v42.72c0 5.522 4.478 10 10 10h79v37h-160v-226h160v59c0 2.228.743 4.391 2.112 6.147l53 68c1.972 2.529 4.918 3.854 7.895 3.853 2.149 0 4.314-.689 6.141-2.112 4.356-3.396 5.135-9.679 1.74-14.035l-50.888-65.29v-55.563h88v77c0 5.522 4.478 10 10 10h22v59c0 5.522 4.478 10 10 10h42.72c4.128 11.639 15.243 20 28.28 20 16.542 0 30-13.458 30-30s-13.458-30-30-30c-13.036 0-24.152 8.361-28.28 20h-32.72v-49h152v139h-90c-5.522 0-10 4.478-10 10s4.478 10 10 10h90v59h-49.5c-5.522 0-10 4.478-10 10 0 39.977-32.523 72.5-72.5 72.5-5.522 0-10 4.478-10 10v74.5h-49.5c-5.51 0-10 4.49-10 10s4.49 10 10 10h201.5c2.63 0 5.21-1.07 7.069-2.931 1.861-1.859 2.931-4.439 2.931-7.069v-492c0-2.63-1.07-5.21-2.931-7.07zm-379.069 352.07c5.514 0 10 4.486 10 10s-4.486 10-10 10-10-4.486-10-10 4.486-10 10-10zm-29-237c5.514 0 10 4.486 10 10s-4.486 10-10 10-10-4.486-10-10 4.486-10 10-10zm119 193h-20v-45h20zm181-155c5.514 0 10 4.486 10 10s-4.486 10-10 10-10-4.486-10-10 4.486-10 10-10zm-93-69v-67h184v67zm62 339.963c43.035-4.646 77.317-38.928 81.963-81.963h40.037v147h-122z"/></g></g></svg>