<svg height="512pt" viewBox="-1 0 512 512" width="512pt" xmlns="http://www.w3.org/2000/svg"><path d="m187.5 82.5h315v217.5h-315zm0 0" fill="#b9ecff"/><path d="m378.75 82.5-136.875 217.5h-54.375v-217.5zm0 0" fill="#7fddff"/><path d="m345 82.5c0 20.710938-16.789062 37.5-37.5 37.5s-37.5-16.789062-37.5-37.5 16.789062-37.5 37.5-37.5 37.5 16.789062 37.5 37.5zm0 0" fill="#ff9c43"/><path d="m187.5 300h315v30h-315zm0 0" fill="#ff9c43"/><path d="m7.5 287h105v120h-105zm0 0" fill="#fef0bd"/><path d="m5.625 387h108.75v18.5h-108.75zm0 0" fill="#fa640d"/><g fill="#ff9c43"><path d="m15 489.5h15v22.5h-15zm0 0"/><path d="m52.5 489.5h15v22.5h-15zm0 0"/><path d="m90 489.5h15v22.5h-15zm0 0"/></g><path d="m105 279.5v-15h-15v15h-90v135h15v60h15v-60h22.5v60h15v-60h22.5v60h15v-60h15v-135zm0 120h-90v-105h90zm0 0"/><path d="m90 234.5h15v15h-15zm0 0" fill="#ff9c43"/><path d="m90 204.5h15v15h-15zm0 0" fill="#ff9c43"/><path d="m90 174.5h15v15h-15zm0 0" fill="#ff9c43"/><path d="m187.5 435.5c-24.8125 0-45-20.1875-45-45v-356.25c0-10.339844-8.410156-18.75-18.75-18.75s-18.75 8.410156-18.75 18.75v125.25h-15v-125.25c0-18.609375 15.140625-33.75 33.75-33.75s33.75 15.140625 33.75 33.75v356.25c0 16.542969 13.457031 30 30 30s30-13.457031 30-30v-22.5h15v22.5c0 24.8125-20.1875 45-45 45zm0 0"/><path d="m307.5 127.5c-24.8125 0-45-20.1875-45-45s20.1875-45 45-45 45 20.1875 45 45-20.1875 45-45 45zm0-75c-16.542969 0-30 13.457031-30 30s13.457031 30 30 30 30-13.457031 30-30-13.457031-30-30-30zm0 0"/><path d="m300 0h15v22.5h-15zm0 0"/><path d="m254.46875 18.855469 15.910156 15.910156-10.605468 10.605469-15.910157-15.910156zm0 0"/><path d="m225 75h22.5v15h-22.5zm0 0"/><path d="m259.769531 119.621094 10.605469 10.605468-15.910156 15.910157-10.605469-10.605469zm0 0"/><path d="m300 142.5h15v22.5h-15zm0 0"/><path d="m355.238281 119.617188 15.90625 15.910156-10.605469 10.605468-15.910156-15.910156zm0 0"/><path d="m367.5 75h22.5v15h-22.5zm0 0"/><path d="m360.515625 18.867188 10.609375 10.609374-15.910156 15.90625-10.605469-10.605468zm0 0"/><path d="m397.5 277.5h-52.5v-90h52.5v22.5h-15v-7.5h-22.5v22.5h37.5zm-37.5-15h22.5v-22.5h-22.5zm0 0"/><path d="m405 187.5v90h52.5v-90zm33.136719 15-18.136719 38.179688v-38.179688zm-11.898438 60 16.261719-34.230469v34.230469zm0 0"/><path d="m465 157.5h15v15h-15zm0 0" fill="#ff9c43"/><path d="m210 262.5h15v15h-15zm0 0" fill="#fff"/><path d="m210 232.5h15v15h-15zm0 0" fill="#fff"/><path d="m210 202.5h15v15h-15zm0 0" fill="#fff"/><path d="m240 262.5h67.5v15h-67.5zm0 0"/><path d="m240 232.5h37.5v15h-37.5zm0 0"/><path d="m240 202.5h82.5v15h-82.5zm0 0"/><path d="m210 172.5h15v15h-15zm0 0" fill="#fff"/><path d="m240 172.5h22.5v15h-22.5zm0 0"/><path d="m465 105h15v15h-15zm0 0" fill="#ff9c43"/><path d="m435 105h15v15h-15zm0 0"/><path d="m405 75v15h90v202.5h-300v-202.5h15v-15h-30v262.5h37.5v15.5h15v-15.5h277.5v-262.5zm90 247.5h-300v-15h300zm0 0"/><path d="m52.5 315.5h15v60h-15zm0 0"/></svg>