<svg id="_x33_0" enable-background="new 0 0 64 64" height="512" viewBox="0 0 64 64" width="512" xmlns="http://www.w3.org/2000/svg"><path d="m29 14h6v9h-6z" fill="#fcd770"/><path d="m38.14 23.9c.53.54.86 1.28.86 2.1v2 1h-14v-1-2c0-.82.33-1.56.86-2.1.54-.56 1.3-.9 2.14-.9h1 6 1c.84 0 1.6.34 2.14.9z" fill="#ffeaa7"/><path d="m37 8v5c0 .55-.45 1-1 1h-1-6-1c-.55 0-1-.45-1-1v-5z" fill="#ffeaa7"/><path d="m45 3v5h-4-4-10-4-4v-5c0-.55.45-1 1-1h24c.55 0 1 .45 1 1z" fill="#aab2bd"/><path d="m43 30v7h-4v-4h-4v4h-6v-4h-4v4h-4v-7c0-.55.45-1 1-1h3 14 3c.55 0 1 .45 1 1z" fill="#aab2bd"/><path d="m25.86 23.9c-.53.54-.86 1.28-.86 2.1v2l-1.55-1.03c-2.78-1.86-4.45-4.98-4.45-8.32v-10.65h4v11c0 1.95 1.25 3.77 2.86 4.9z" fill="#e6e9ed"/><path d="m45 8v10.65c0 3.34-1.67 6.46-4.45 8.32l-1.55 1.03v-2c0-.82-.33-1.56-.86-2.1 1.61-1.13 2.86-2.95 2.86-4.9v-11z" fill="#e6e9ed"/><g fill="#69d6f4"><path d="m6 51v2.89c0 1-.68 1.92-1.66 2.08-1.26.21-2.34-.76-2.34-1.97 0-2 2.36-4 3-4 .55 0 1 .45 1 1z"/><path d="m15 58c0-2 2.36-4 3-4 .55 0 1 .45 1 1v2.89c0 1-.68 1.92-1.66 2.08-1.26.21-2.34-.76-2.34-1.97z"/><path d="m45 57.89v-2.89c0-.55.45-1 1-1 .64 0 3 2 3 4 0 1.21-1.08 2.18-2.34 1.97-.98-.16-1.66-1.08-1.66-2.08z"/><path d="m35 59c0 1.66-1.34 3-3 3s-3-1.34-3-3 2-5 3-5 3 3.34 3 5z"/><path d="m59 50c.64 0 3 2 3 4 0 1.21-1.08 2.18-2.34 1.97-.98-.16-1.66-1.08-1.66-2.08v-2.89c0-.55.45-1 1-1z"/></g><path d="m44 38v-8c0-1.103-.897-2-2-2h-1.197l.299-.199c3.067-2.044 4.898-5.466 4.898-9.153v-15.648c0-1.103-.897-2-2-2h-24c-1.103 0-2 .897-2 2v15.648c0 3.687 1.831 7.108 4.898 9.152l.299.2h-1.197c-1.103 0-2 .897-2 2v8h6v-4h2v4h8v-4h2v4zm-20-29h2v4c0 1.103.897 2 2 2v7c-.786 0-1.515.236-2.134.629-1.15-1.015-1.866-2.369-1.866-3.629zm14.134 13.629c-.619-.393-1.348-.629-2.134-.629v-7c1.103 0 2-.897 2-2v-4h2v10c0 1.26-.716 2.614-1.866 3.629zm-4.134-7.629v7h-4v-7zm2-2h-8v-4h8zm-10 13c0-1.103.897-2 2-2h8c1.103 0 2 .897 2 2v2h-12zm14 .131v-.131c0-.694-.193-1.337-.505-1.906 1.562-1.392 2.505-3.259 2.505-5.094v-10h2v9.648c0 3.014-1.495 5.809-4 7.483zm4-23.131v4h-24v-4zm-24 15.648v-9.648h2v10c0 1.835.943 3.702 2.505 5.094-.312.569-.505 1.212-.505 1.906v.131c-2.505-1.674-4-4.469-4-7.483zm14 13.352v4h-4v-4h-6v4h-2v-6h20v6h-2v-4z"/><path d="m32 53c-1.908 0-4 4.212-4 6 0 2.206 1.794 4 4 4s4-1.794 4-4c0-1.788-2.092-6-4-6zm0 8c-1.103 0-2-.897-2-2 0-1.129 1.314-3.39 2-3.931.686.541 2 2.802 2 3.931 0 1.103-.897 2-2 2z"/><path d="m5 49c-1.258 0-4 2.51-4 5 0 .882.386 1.715 1.058 2.286.546.465 1.235.714 1.946.714.164 0 .328-.014.493-.04 1.427-.232 2.503-1.552 2.503-3.067v-2.893c0-1.103-.897-2-2-2zm0 4.893c0 .538-.362 1.018-.825 1.093-.3.051-.595-.03-.822-.223-.224-.191-.353-.469-.353-.763 0-1.209 1.386-2.601 2-2.95z"/><path d="m18 53c-1.258 0-4 2.51-4 5 0 .882.386 1.715 1.058 2.286.546.465 1.235.714 1.946.714.164 0 .328-.014.493-.04 1.427-.232 2.503-1.552 2.503-3.067v-2.893c0-1.103-.897-2-2-2zm0 4.893c0 .538-.362 1.018-.825 1.093-.3.051-.595-.029-.822-.223-.224-.191-.353-.469-.353-.763 0-1.209 1.386-2.601 2-2.95z"/><path d="m31 40h2v11h-2z"/><path d="m16.785 40.023c-5.206 1.146-8.91 4.604-10.641 7.458l1.711 1.037c1.516-2.501 4.77-5.532 9.359-6.542z"/><path d="m18.048 50.694 1.904.611c.82-2.553 3.34-5.909 5.616-7.483l-1.137-1.645c-2.671 1.847-5.416 5.509-6.383 8.517z"/><path d="m45.952 50.694c-.967-3.009-3.712-6.67-6.384-8.517l-1.137 1.645c2.276 1.574 4.796 4.931 5.616 7.483z"/><path d="m47.215 40.023-.43 1.953c4.59 1.01 7.844 4.041 9.359 6.542l1.711-1.037c-1.73-2.854-5.434-6.312-10.64-7.458z"/><path d="m59 49c-1.103 0-2 .897-2 2v2.893c0 1.516 1.076 2.835 2.503 3.067.165.026.329.04.493.04.711 0 1.4-.249 1.946-.714.672-.571 1.058-1.404 1.058-2.286 0-2.49-2.742-5-4-5zm1.647 5.763c-.228.192-.521.271-.822.223-.463-.076-.825-.555-.825-1.093v-2.843c.614.35 2 1.741 2 2.95 0 .294-.129.572-.353.763z"/><path d="m46 53c-1.103 0-2 .897-2 2v2.893c0 1.516 1.076 2.835 2.503 3.067.165.026.329.04.493.04.711 0 1.4-.249 1.946-.714.672-.571 1.058-1.404 1.058-2.286 0-2.49-2.742-5-4-5zm1.647 5.763c-.228.192-.521.271-.822.223-.463-.076-.825-.555-.825-1.093v-2.843c.614.35 2 1.741 2 2.95 0 .294-.129.572-.353.763z"/></svg>