<svg id="Layer_1" enable-background="new 0 0 510.023 510.023" height="512" viewBox="0 0 510.023 510.023" width="512" xmlns="http://www.w3.org/2000/svg"><g id="XMLID_3419_"><path id="XMLID_3520_" d="m422.64 87.381c-92.656-92.656-242.458-92.793-335.251 0-92.401 92.401-93.048 242.202 0 335.251 0 .001.001.001.001.002l.002.001 185.58-149.671 149.671-185.58c-.001-.002-.002-.002-.003-.003z" fill="#f9f9f9"/><path id="XMLID_3694_" d="m492.184 255.006c0-63.392-25.152-123.232-69.542-167.623l-335.25 335.252c21.846 21.845 47.921 39.46 76.877 51.496 155.396 64.593 327.915-50.24 327.915-219.125z" fill="#d8f1fb"/><path id="XMLID_3701_" d="m340.589 412.376c54.563 0 88.088-43.811 63.656-117.107-14.073-42.218-43.274-82.793-74.984-114.503-7.413 7.413-13.783 13.783-21.196 21.196 28.028 28.033 55.091 64.91 67.719 102.793 4.203 12.608 6.372 24.231 6.535 34.404 1.21 75.348-104.824 44.444-180.355-31.097-7.409 7.409-13.774 13.775-21.184 21.184 40.575 40.615 102.752 83.13 159.809 83.13z" fill="#ecbd2c"/><path id="XMLID_3699_" d="m404.245 214.755c11.066-33.199 13.588-72.875-11.281-97.693-7.441 7.441-13.835 13.835-21.277 21.277 15.833 15.833 11.179 45.685 4.097 66.93-23.361 70.083-100.301 147.108-170.513 170.513-21.24 7.08-51.093 11.737-66.93-4.097-7.441 7.442-13.836 13.836-21.278 21.278 11.351 11.338 27.313 18.057 46.839 19.155 87.474 4.922 208.025-100.412 240.343-197.363z" fill="#00cb75"/><path id="XMLID_3682_" d="m134.245 304.755c23.363-70.086 100.306-147.11 170.513-170.513 21.29-7.097 51.113-11.721 66.93 4.097l21.277-.064v-21.212c-24.833-24.783-64.527-22.336-97.693-11.281-79.075 26.358-163.122 110.391-189.488 189.487-11.033 33.098-13.611 72.833 11.28 97.694h21.212l.065-21.278c-15.831-15.833-11.179-45.681-4.096-66.93z" fill="#bee75e"/><path id="XMLID_3687_" d="m95.99 95.987c87.864-87.864 229.978-88.071 318.049 0l21.328-.115v-21.213c-99.738-99.737-261.352-99.354-360.705-.001-99.463 99.465-99.633 261.074 0 360.706h21.212l.115-21.328c-88.205-88.206-87.727-230.321.001-318.049z" fill="#ad7ffa"/><path id="XMLID_3731_" d="m435.366 435.364c99.352-99.353 99.731-260.976.001-360.705-7.459 7.459-13.869 13.869-21.328 21.328 42.113 42.113 65.976 98.884 65.976 159.024 0 160.219-163.667 269.159-311.09 207.881-27.471-11.419-52.209-28.131-72.935-48.856-7.459 7.459-13.869 13.869-21.328 21.328 99.738 99.738 261.352 99.354 360.704 0z" fill="#914efa"/><path id="XMLID_3689_" d="m170.853 127.712c47.556.929 102.976 40.009 137.212 74.25l21.204.008-.008-21.204c-31.724-31.724-72.298-60.916-114.503-74.984-86.744-28.912-137.669 22.886-108.974 108.974 14.033 42.097 43.384 82.844 74.997 114.49l21.198.014-.015-21.198c-77.68-77.69-104.787-181.79-31.111-180.35z" fill="#f4d844"/><path id="XMLID_3512_" d="m223.848 276.225-9.375-1.885c-11.67 11.67-199.07 199.07-210.065 210.066 3.71 3.709 6.897 6.897 10.607 10.606l115.717-103.069 92.464-105.112z" fill="#d8f1fb"/><path id="XMLID_3727_" d="m235.564 295.675-.799-9.83-11.569.985c-4.157 4.157-202.602 202.602-208.181 208.182 3.71 3.71 6.896 6.897 10.606 10.606 29.767-29.767 189.504-189.505 209.943-209.943z" fill="#9ddff6"/><path id="XMLID_3724_" d="m484.408 4.405c-29.323 29.323-178.955 178.954-209.999 209.999l.189 9.774 12.236-.986 106.954-90.62 101.227-117.56c-3.71-3.71-6.898-6.897-10.607-10.607z" fill="#d8f1fb"/><path id="XMLID_3728_" d="m505.621 25.618c-3.71-3.709-6.896-6.897-10.606-10.606-5.592 5.592-204.019 204.019-208.181 208.18v10.153l8.863 2.197c63.076-63.076 147.548-147.548 209.924-209.924z" fill="#9ddff6"/><path id="XMLID_3523_" d="m255.014 210.033c-11.523 0-23.047 4.386-31.82 13.159-18.605 18.606-16.643 46.715.001 63.638l43.488-20.15 20.15-43.488c-.23-.15-11.622-13.159-31.819-13.159z" fill="#a5e8fd"/><path id="XMLID_3692_" d="m286.834 223.192c-7.699 7.7-55.888 55.888-63.638 63.638 21.558 21.918 60.513 16.183 73.321-14.649 6.498-15.645 4.487-34.819-9.683-48.989z" fill="#7dd5f4"/><path id="XMLID_3526_" d="m255.014 240.019c-13.394 0-19.959 16.246-10.606 25.599l17.203-4.011 4.011-17.202c-2.124-2.323-6.281-4.386-10.608-4.386z" fill="#7dd5f4"/><path id="XMLID_3695_" d="m270.018 255.012c0-3.837-1.465-7.675-4.396-10.606-7.419 7.419-13.794 13.794-21.213 21.213 9.399 9.399 25.609 2.738 25.609-10.607z" fill="#4793ff"/></g></svg>