<svg height="512" viewBox="0 0 512 512" width="512" xmlns="http://www.w3.org/2000/svg"><g id="BULINE"><circle cx="256" cy="256" fill="#934cf5" r="256"/></g><g id="Icons"><path d="m184.79 269.34v53.77a7.71 7.71 0 0 0 7.7 7.71v148a7.15 7.15 0 0 0 7.16 7.15 7.15 7.15 0 0 0 7.15-7.15v-148a7.71 7.71 0 0 0 7.7-7.71v-53.77z" fill="#fefffd"/><path d="m184.79 269.34h29.72v18.56h-29.72z" fill="#e2e2e2"/><path d="m240.64 269.34v53.77a7.71 7.71 0 0 0 7.71 7.71v148a7.15 7.15 0 0 0 7.15 7.18 7.15 7.15 0 0 0 7.15-7.15v-148a7.71 7.71 0 0 0 7.71-7.71v-53.8z" fill="#fefffd"/><path d="m240.64 269.34h29.72v18.56h-29.72z" fill="#e2e2e2"/><path d="m298.42 269.34v53.77a7.71 7.71 0 0 0 7.71 7.71v148a7.15 7.15 0 0 0 7.15 7.15 7.15 7.15 0 0 0 7.15-7.15v-148a7.71 7.71 0 0 0 7.71-7.71v-53.77z" fill="#fefffd"/><path d="m298.42 269.34h29.72v18.56h-29.72z" fill="#e2e2e2"/><path d="m166.9 119.47h177.2a0 0 0 0 1 0 0v141.81a8.05 8.05 0 0 1 -8.05 8.05h-161.05a8.05 8.05 0 0 1 -8.05-8.05v-141.81a0 0 0 0 1 -.05 0z" fill="#db1b1b"/><path d="m338.57 56.85a7.45 7.45 0 0 0 5.53-7.16v-7.69a7.42 7.42 0 0 0 -7.42-7.41h-162.36a7.42 7.42 0 0 0 -7.42 7.41v7.7a7.45 7.45 0 0 0 5.53 7.16 20.92 20.92 0 0 1 0 40.35 7.45 7.45 0 0 0 -5.53 7.16v15.11h177.2v-15.12a7.45 7.45 0 0 0 -5.53-7.16 20.92 20.92 0 0 1 0-40.35zm-83.07 43.76a23.59 23.59 0 1 1 23.59-23.61 23.58 23.58 0 0 1 -23.59 23.61z" fill="#fefffd"/><path d="m166.9 235.62h177.2a0 0 0 0 1 0 0v25.66a8.05 8.05 0 0 1 -8.05 8.05h-161.05a8.05 8.05 0 0 1 -8.05-8.05v-25.66a0 0 0 0 1 -.05 0z" fill="#bc1919"/><path d="m196.83 269.34h-21.83a8.06 8.06 0 0 1 -8.06-8.06v-141.81h21.87v141.81a8.06 8.06 0 0 0 8.02 8.06z" fill="#bc1919"/><path d="m194.3 56.85a7.45 7.45 0 0 1 -5.53-7.16v-7.69a7.42 7.42 0 0 1 7.42-7.41h-21.87a7.42 7.42 0 0 0 -7.42 7.41v7.7a7.45 7.45 0 0 0 5.53 7.16 20.92 20.92 0 0 1 0 40.35 7.45 7.45 0 0 0 -5.53 7.16v15.11h21.87v-15.12a7.45 7.45 0 0 1 5.53-7.16 20.92 20.92 0 0 0 0-40.35z" fill="#e2e2e2"/><path d="m196.83 269.34h-21.83a8.06 8.06 0 0 1 -8.06-8.06v-25.66h21.87v25.66a8.06 8.06 0 0 0 8.02 8.06z" fill="#a31c1c"/><g fill="#e84949"><circle cx="314.52" cy="186.24" r="16.1"/><circle cx="314.52" cy="152.69" r="11.4"/></g></g></svg>