<svg id="Capa_1" enable-background="new 0 0 512 512" height="512" viewBox="0 0 512 512" width="512" xmlns="http://www.w3.org/2000/svg"><g id="XMLID_1484_"><path id="XMLID_1684_" d="m104 40h280v432h-280z" fill="#fff"/><path id="XMLID_1683_" d="m384 472 118 30v-492l-118 30z" fill="#ffcd69"/><path id="XMLID_1195_" d="m10 83.452h330v160h-330z" fill="#ff7b79"/><path id="XMLID_2473_" d="m256 361-87.387-50.453v23.955h-134.068v52.996h134.068v23.955z" fill="#8aa8bd"/><g id="XMLID_552_"><path id="XMLID_573_" d="m215.727 213.635c5.522 0 10-4.478 10-10v-80c0-5.523-4.478-10-10-10s-10 4.477-10 10v80c0 5.522 4.477 10 10 10z"/><path id="XMLID_645_" d="m83.402 134c5.522 0 10-4.477 10-10 0-5.522-4.478-10-10-10h-33.402c-5.522 0-10 4.478-10 10v79.27c0 5.523 4.478 10 10 10h33.401c5.522 0 10-4.477 10-10 0-5.522-4.478-10-10-10h-23.401v-19.635h20.938c5.522 0 10-4.478 10-10s-4.478-10-10-10h-20.938v-19.635z"/><path id="XMLID_646_" d="m113.611 211.81c1.75 1.233 3.76 1.826 5.75 1.826 3.143 0 6.236-1.477 8.184-4.242l21.999-31.228 21.965 31.223c1.947 2.768 5.042 4.247 8.188 4.247 1.987 0 3.995-.592 5.745-1.822 4.517-3.178 5.603-9.415 2.425-13.933l-26.087-37.084 22.123-31.404c3.181-4.515 2.1-10.753-2.416-13.934-4.514-3.181-10.753-2.099-13.934 2.416l-17.997 25.546-17.967-25.541c-3.178-4.516-9.413-5.603-13.933-2.425-4.517 3.178-5.603 9.415-2.425 13.933l22.09 31.401-26.126 37.086c-3.181 4.516-2.1 10.754 2.416 13.935z"/><path id="XMLID_650_" d="m255.727 133.635h12.001v70c0 5.522 4.478 10 10 10 5.523 0 10-4.478 10-10v-70h12.18c5.522 0 10-4.478 10-10 0-5.523-4.478-10-10-10h-44.181c-5.522 0-10 4.477-10 10 0 5.522 4.477 10 10 10z"/><path id="XMLID_653_" d="m508.139 2.106c-2.438-1.894-5.612-2.559-8.603-1.797l-116.786 29.691h-278.75c-5.522 0-10 4.478-10 10v33.452h-84c-5.523 0-10 4.478-10 10v160c0 5.522 4.477 10 10 10h84v71.05h-59.455c-5.522 0-10 4.477-10 10v52.996c0 5.523 4.478 10 10 10h59.455v74.502c0 5.522 4.478 10 10 10h278.75l116.786 29.691c.814.207 1.641.309 2.463.309 2.201 0 4.366-.727 6.14-2.106 2.436-1.894 3.861-4.808 3.861-7.894v-492c0-3.086-1.425-6-3.861-7.894zm-488.139 91.346h310v140h-310zm24.545 251.05h124.067c5.522 0 10-4.478 10-10v-6.635l57.388 33.133-57.388 33.133v-6.635c0-5.522-4.478-10-10-10h-124.067zm447.455 144.638-98-24.915v-163.162c0-5.522-4.478-10-10-10-5.523 0-10 4.478-10 10v160.937h-260v-64.502h44.612v13.955c0 3.572 1.906 6.874 5 8.66 1.547.893 3.273 1.34 5 1.34s3.453-.446 5-1.34l87.388-50.453c3.094-1.786 5-5.088 5-8.66s-1.906-6.874-5-8.66l-87.388-50.453c-3.094-1.787-6.906-1.787-10 0-3.094 1.786-5 5.088-5 8.66v13.955h-44.612v-71.05h226c5.522 0 10-4.478 10-10v-160c0-5.522-4.478-10-10-10h-226v-23.452h260v161.062c0 5.523 4.477 10 10 10 5.522 0 10-4.477 10-10v-163.286l98-24.915z"/><path id="XMLID_656_" d="m384.06 246.06c-2.63 0-5.21 1.07-7.069 2.931-1.86 1.859-2.931 4.439-2.931 7.069 0 2.641 1.07 5.21 2.931 7.07 1.859 1.86 4.44 2.93 7.069 2.93 2.63 0 5.21-1.069 7.07-2.93 1.87-1.86 2.93-4.44 2.93-7.07s-1.06-5.2-2.93-7.069c-1.86-1.861-4.43-2.931-7.07-2.931z"/></g></g></svg>