<svg id="Capa_1" enable-background="new 0 0 512 512" height="512" viewBox="0 0 512 512" width="512" xmlns="http://www.w3.org/2000/svg"><g><g><path d="m166.213 426.671h236.134v-341.342h-236.134c-5.523 0-10 4.477-10 10v321.342c0 5.523 4.477 10 10 10z" fill="#365e7d"/></g><g><path d="m345.137 85.329h57.21v341.342h-57.21z" fill="#2b4d66"/></g><g><path d="m166.206 85.329h236.141v32.977h-213.158v308.365h-22.984c-5.519 0-9.993-4.474-9.993-9.993v-321.356c.001-5.519 4.474-9.993 9.994-9.993z" fill="#e4f6ff"/></g><g><path d="m172.241 106.354v298.372c0 2.759-2.237 4.996-4.996 4.996h-11.032v6.955c0 5.519 4.474 9.993 9.993 9.993h22.984v-308.364h213.157v-16.948h-225.11c-2.759-.001-4.996 2.236-4.996 4.996z" fill="#d3effb"/></g><g><path d="m387.487 426.671h107.018c5.523 0 10-4.477 10-10v-321.342c0-5.523-4.477-10-10-10h-107.018z" fill="#f4fbff"/></g><g><path d="m387.487 426.671h107.018c5.523 0 10-4.477 10-10v-321.342c0-5.523-4.477-10-10-10h-107.018z" fill="#f4fbff"/></g><g><path d="m494.512 85.329h-33.657v341.342h33.657c5.519 0 9.993-4.474 9.993-9.993v-321.356c0-5.519-4.474-9.993-9.993-9.993z" fill="#e4f6ff"/></g><g><path d="m107.235 156.166c121.581 15.068 219.971 104.924 247.685 222.114 1.058 4.475-4.409 7.465-7.621 4.174-46.979-48.122-112.56-78.002-185.124-78.002-18.855 0-37.231 2.036-54.94 5.866z" fill="#ffe07d"/></g><g><path d="m332.136 315.452c9.878 19.769 17.578 40.816 22.783 62.828 1.058 4.475-4.409 7.465-7.621 4.174-46.979-48.122-112.56-78.002-185.124-78.002-18.855 0-37.231 2.036-54.94 5.866v-52.69c17.708-3.83 36.085-5.866 54.94-5.866 65.064.001 124.503 24.035 169.962 63.69z" fill="#ffd064"/></g><g><path d="m8.683 235.381 110.828-109.619c2.526-2.499 6.813-.709 6.813 2.844v219.237c0 3.553-4.287 5.342-6.813 2.844l-110.828-109.618c-1.583-1.565-1.583-4.122 0-5.688z" fill="#ffd064"/></g><g><path d="m119.515 125.758-43.913 43.434v138.068l43.913 43.434c2.524 2.497 6.808.709 6.808-2.842v-219.252c.001-3.551-4.283-5.339-6.808-2.842z" fill="#ffc250"/></g><g><circle cx="439.563" cy="256.248" fill="#365e7d" r="17.21"/></g><g><path d="m445.855 240.241c.767 1.951 1.203 4.068 1.203 6.291 0 9.505-7.705 17.21-17.21 17.21-2.223 0-4.341-.436-6.291-1.203 2.514 6.39 8.725 10.919 16.007 10.919 9.505 0 17.21-7.705 17.21-17.21 0-7.282-4.53-13.493-10.919-16.007z" fill="#2b4d66"/></g><g><path d="m494.512 77.834h-328.306c-9.643 0-17.488 7.845-17.488 17.488v61.319c-4.926-1.32-9.895-2.509-14.9-3.578v-24.463c0-4.651-2.773-8.814-7.065-10.606-4.292-1.79-9.202-.835-12.508 2.436l-110.835 109.625c-2.199 2.175-3.41 5.077-3.41 8.17 0 3.094 1.211 5.995 3.411 8.17l15.098 14.933c2.942 2.91 7.687 2.885 10.599-.058 2.911-2.943 2.885-7.689-.059-10.599l-12.583-12.446 102.363-101.246v202.493l-66.913-66.183c-2.942-2.912-7.688-2.885-10.599.058s-2.885 7.689.059 10.599l72.87 72.075c3.318 3.289 8.262 4.215 12.509 2.436 4.291-1.792 7.065-5.955 7.065-10.606v-34.304c4.942-.557 9.917-.969 14.9-1.235v104.366c0 9.643 7.845 17.488 17.488 17.488h175.431c4.139 0 7.495-3.355 7.495-7.495s-3.356-7.495-7.495-7.495h-144.955v-104.881c55.056 7.498 105.711 32.892 145.251 73.395 3.843 3.941 9.654 4.767 14.396 2.152 4.777-2.627 7.141-7.966 5.883-13.286-15.799-66.807-54.695-126.704-109.525-168.659-3.286-2.516-7.991-1.89-10.506 1.397-2.516 3.287-1.89 7.991 1.397 10.506 49.238 37.678 84.949 90.572 101.384 149.84-22.775-21.548-48.857-38.719-77.671-51.118-33.254-14.309-68.621-21.565-105.119-21.565-9.447 0-18.955.514-28.357 1.513v-130.06c29.619 6.677 57.819 18.014 83.924 33.78 1.212.732 2.548 1.08 3.867 1.08 2.538 0 5.015-1.29 6.423-3.621 2.14-3.542 1.002-8.15-2.541-10.29-9.356-5.65-18.968-10.761-28.807-15.324v-48.235h183.308v293.376h-6.069c-4.139 0-7.495 3.355-7.495 7.495s3.356 7.495 7.495 7.495h120.589c9.643 0 17.488-7.845 17.488-17.488v-321.356c.001-9.643-7.844-17.488-17.487-17.488zm-312.817 341.342h-15.489c-1.377 0-2.498-1.12-2.498-2.498v-104.712c6.033.036 12.033.273 17.987.726zm7.494-308.365c-4.139 0-7.495 3.355-7.495 7.495v49.291c-5.924-2.36-11.921-4.528-17.987-6.502v-65.773c0-1.378 1.121-2.498 2.498-2.498h213.787v17.987zm307.822 305.867c0 1.378-1.121 2.498-2.498 2.498h-99.53v-326.352h99.53c1.377 0 2.498 1.12 2.498 2.498z"/><path d="m471.666 248.753h-8.563c-3.181-9.969-12.529-17.211-23.539-17.211-13.622 0-24.705 11.083-24.705 24.705s11.083 24.705 24.705 24.705c11.01 0 20.358-7.241 23.539-17.211h8.563c4.139 0 7.495-3.355 7.495-7.495-.001-4.138-3.356-7.493-7.495-7.493zm-32.102 17.211c-5.357 0-9.715-4.358-9.715-9.716s4.358-9.716 9.715-9.716 9.715 4.358 9.715 9.716c0 5.357-4.358 9.716-9.715 9.716z"/></g></g></svg>