<svg id="Layer_1" enable-background="new 0 0 512 512" height="512" viewBox="0 0 512 512" width="512" xmlns="http://www.w3.org/2000/svg"><g><g><path d="m25.996 139.78c-17.996-65.667 12.659-115.046 48.244-127.225 40.748-13.946 71.196 8.585 71.196 8.585s23.018-19.08 49.814 6.628c21.695 20.814 30.512 62.056 11.327 108.154" fill="#7b7179"/><path d="m25.996 139.78c-17.996-65.667 12.659-115.046 48.244-127.225 40.748-13.946 71.196 8.585 71.196 8.585s23.018-19.08 49.814 6.628c21.695 20.814 30.512 62.056 11.327 108.154z" fill="#365e7d"/><path d="m48.949 154.44v-27.491c-.777-.08-1.565-.121-2.362-.121-12.618 0-22.846 10.24-22.846 22.871 0 12.632 10.228 22.872 22.846 22.872 1.596 0 3.154-.165 4.658-.477-1.495-5.633-2.296-11.55-2.296-17.654z" fill="#f4b184"/><path d="m188.344 126.828c-.798 0-1.586.042-2.363.121v27.491c0 6.104-.801 12.021-2.295 17.654 1.504.312 3.061.477 4.658.477 12.617 0 22.846-10.24 22.846-22.872-.001-12.631-10.229-22.871-22.846-22.871z" fill="#f4b184"/><path d="m46.587 154.571c-9.425 0-17.515-5.715-21.007-13.871-1.182 2.762-1.839 5.804-1.839 9 0 12.632 10.228 22.871 22.846 22.871 1.596 0 3.154-.165 4.658-.477-1.494-5.63-2.294-11.544-2.295-17.644-.777.08-1.565.121-2.363.121z" fill="#eaa678"/><path d="m188.344 154.571c-.798 0-1.586-.041-2.363-.121-.001 6.1-.801 12.014-2.295 17.644 1.504.312 3.062.477 4.658.477 12.617 0 22.846-10.24 22.846-22.871 0-3.196-.657-6.238-1.839-9-3.492 8.156-11.582 13.871-21.007 13.871z" fill="#eaa678"/><path d="m226.93 310.503v-2.958c0-46.675-37.795-84.513-84.418-84.513h-50.093c-46.624 0-84.419 37.838-84.419 84.513v2.958z" fill="#8bcaff"/><path d="m9.36 292.503c-.877 4.884-1.36 9.905-1.36 15.042v2.958h218.93v-2.958c0-5.137-.483-10.158-1.36-15.042z" fill="#6cc4ff"/><path d="m130.489 254.924h-26.048l-12.371-31.892h50.79z" fill="#ea2f4a"/><path d="m140.618 310.503-10.129-55.579h-26.047l-10.13 55.579z" fill="#ff4755"/><path d="m97.593 292.503-3.281 18h46.306l-3.28-18z" fill="#fc2b3a"/><path d="m185.981 126.949c-31.169-20.974-51.653-60.732-51.653-60.732s-31.45 40.234-85.379 60.732v27.491c0 37.883 30.676 68.592 68.516 68.592s68.516-30.71 68.516-68.592z" fill="#ffc89f"/><path d="m185.981 126.949c-31.169-20.974-51.653-60.732-51.653-60.732s-31.45 40.234-85.379 60.732v27.491c0 37.883 30.676 68.592 68.516 68.592s68.516-30.71 68.516-68.592z" fill="#ffc89f"/><path d="m117.465 205.032c-37.84 0-68.516-30.71-68.516-68.592v18c0 37.883 30.676 68.592 68.516 68.592s68.516-30.71 68.516-68.592v-18c0 37.883-30.676 68.592-68.516 68.592z" fill="#f7bc94"/><path d="m326.019 347.937v-27.491c-.777-.08-1.565-.121-2.362-.121-12.617 0-22.846 10.24-22.846 22.871 0 12.632 10.228 22.871 22.846 22.871 1.596 0 3.154-.165 4.658-.477-1.495-5.632-2.296-11.549-2.296-17.653z" fill="#f4b184"/><path d="m465.413 320.325c-.798 0-1.586.041-2.363.121v27.491c0 6.104-.801 12.021-2.295 17.654 1.504.312 3.061.477 4.658.477 12.617 0 22.846-10.24 22.846-22.871 0-12.632-10.228-22.872-22.846-22.872z" fill="#f4b184"/><path d="m323.657 348.068c-9.425 0-17.515-5.715-21.006-13.871-1.183 2.763-1.839 5.804-1.839 9 0 12.632 10.228 22.871 22.846 22.871 1.596 0 3.154-.165 4.658-.477-1.494-5.63-2.294-11.544-2.295-17.644-.778.08-1.566.121-2.364.121z" fill="#eaa678"/><path d="m465.413 348.068c-.798 0-1.586-.041-2.363-.121-.001 6.101-.801 12.014-2.295 17.644 1.504.312 3.061.477 4.658.477 12.617 0 22.846-10.24 22.846-22.871 0-3.196-.657-6.237-1.839-9-3.492 8.156-11.582 13.871-21.007 13.871z" fill="#eaa678"/><path d="m504 504v-2.958c0-46.675-37.795-84.513-84.418-84.513h-50.093c-46.623 0-84.419 37.838-84.419 84.513v2.958z" fill="#8bcaff"/><path d="m286.43 486c-.877 4.884-1.36 9.905-1.36 15.042v2.958h218.93v-2.958c0-5.137-.483-10.158-1.36-15.042z" fill="#6cc4ff"/><path d="m463.043 300.429c-13.578-7.586-26.167-29.65-26.167-29.65-13.096 24.349-41.534 26.971-41.534 26.971 2.619-12.362-7.109-23.974-7.109-23.974-22.919 25.894-52.682 27.859-60.378 27.672-.616-.015-1.229-.076-1.835-.177v46.666c0 37.883 30.676 68.592 68.516 68.592s68.516-30.71 68.516-68.592v-47.514c-.002.001-.009.006-.009.006z" fill="#ffc89f"/><path d="m394.535 398.529c-37.84 0-68.516-30.71-68.516-68.592v18c0 37.883 30.676 68.592 68.516 68.592s68.516-30.71 68.516-68.592v-18c0 37.883-30.676 68.592-68.516 68.592z" fill="#f7bc94"/><path d="m463.043 300.43c-13.578-7.586-26.167-29.65-26.167-29.65-13.096 24.349-41.534 26.971-41.534 26.971 2.619-12.362-7.109-23.974-7.109-23.974-22.919 25.894-52.681 27.859-60.378 27.672-1.17-.029-2.328-.214-3.45-.549-17.935-5.352-34.69-26.766-34.69-26.766 25.962.783 34.598-15.628 34.598-15.628-26.527.782-28.343-25.896-28.343-25.896 40.003 5.085 48.007-17.974 83.284-28.131 35.278-10.157 60.255 16.074 60.255 16.074s35.753-3.365 38.82 32.166c2.932 33.96-15.286 47.711-15.286 47.711" fill="#e8834d"/><path d="m407.559 448.421h-26.048l-12.371-31.892h50.79z" fill="#ea2f4a"/><path d="m417.688 504-10.129-55.579h-26.048l-10.129 55.579z" fill="#ff4755"/><path d="m374.662 486-3.28 18h46.306l-3.281-18z" fill="#fc2b3a"/><path d="m209.061 453.091c-35.085 0-64.657-23.549-73.86-55.713h30.088l-49.178-52.695-49.178 52.695h28.647c9.953 53.686 56.971 94.342 113.481 94.342z" fill="#ff4755"/><path d="m209.061 473.72c-48.312 0-89.681-29.718-106.888-71.887-1.096-2.686-3.692-4.454-6.593-4.454 9.953 53.687 56.971 94.342 113.481 94.342z" fill="#fc2b3a"/><path d="m302.118 59.566c35.085 0 64.657 23.549 73.86 55.713h-30.088l49.178 52.695 49.179-52.695h-28.648c-9.953-53.687-56.971-94.342-113.481-94.342z" fill="#ff4755"/><path d="m302.118 41.566v18c35.085 0 64.657 23.549 73.86 55.713-.001-45.312-38.775-73.713-73.86-73.713z" fill="#fc2b3a"/></g><g><path d="m511.882 501.522c0-44.732-31.982-82.12-74.249-90.45 13.141-9.007 23.326-22.027 28.789-37.283 16.436-.373 29.695-13.866 29.695-30.411 0-15.022-10.931-27.528-25.246-29.983v-9.616c5.823-6.042 17.812-22.278 15.274-51.697-1.082-12.525-5.804-22.36-14.037-29.233-10.301-8.599-23.239-9.874-29.43-9.94-7.761-6.872-32.395-25.218-65.319-15.733-14.476 4.17-24.685 10.373-33.693 15.846-13.718 8.336-24.552 14.92-46.691 12.105-4.536-.694-8.866 3.391-8.44 7.964.605 8.909 5.689 23.723 19.785 30.005-4.298 2.151-10.275 3.817-18.33 3.577-6.184-.397-10.095 7.407-6.143 12.141.698.893 16.323 20.671 34.764 28.073v6.507c-14.315 2.456-25.246 14.962-25.246 29.983 0 16.545 13.259 30.038 29.695 30.411 5.46 15.248 15.638 28.262 28.768 37.268-12.927 2.532-25.148 7.827-36.002 15.674-3.362 2.43-4.118 7.128-1.689 10.491 2.43 3.364 7.128 4.119 10.487 1.689 11.698-8.457 25.299-13.362 39.616-14.352l9.687 24.982-8.641 47.43h-72.532c.809-13.952 5.338-27.308 13.22-38.88 2.336-3.429 1.451-8.104-1.977-10.441-3.43-2.337-8.101-1.451-10.436 1.978-10.442 15.329-15.961 33.273-15.961 51.893-.72 5 1.851 10.546 7.511 10.478h219.258c5.664.069 8.232-5.477 7.513-10.476zm-30.787-158.145c0 6.933-4.598 12.807-10.897 14.731.429-3.27.674-6.597.674-9.982v-19.243c5.947 2.128 10.223 7.813 10.223 14.494zm-172.706 0c0-6.681 4.276-12.366 10.223-14.493v19.243c0 3.385.245 6.712.673 9.981-6.298-1.924-10.896-7.797-10.896-14.731zm18.264-49.577c-7.682-2.293-15.365-8.277-21.157-13.727 18.272-4.62 25.212-17.375 25.565-18.048 1.244-2.364 1.139-5.211-.275-7.477-1.413-2.267-3.972-3.622-6.593-3.533-7.984.228-13.616-2.558-17.204-8.541-.329-.549-.627-1.102-.898-1.652 20.431.193 32.587-7.185 45.374-14.956 8.605-5.229 17.502-10.635 30.051-14.249 30.352-8.742 51.942 13.149 52.827 14.066 1.571 1.651 3.845 2.496 6.11 2.303 2.903-.246 28.395-1.624 30.725 25.388 1.057 12.247-.717 22.905-5.272 31.678-1.195 2.301-2.435 4.165-3.542 5.614-8.14-6.886-15.98-18.822-18.693-23.566-2.676-5.049-10.591-4.962-13.14.164-6.931 12.892-19.251 18.705-27.442 21.244-1.759-10.845-8.526-19.06-8.902-19.508-2.781-3.487-8.513-3.561-11.382-.155-19.423 21.953-43.958 24.832-52.146 25.16-1.352.019-2.695.179-4.006-.205zm6.981 54.327v-39.265c10.679-.832 33.28-4.798 53.253-22.816 1.247 3.145 2.041 6.804 1.313 10.242-1.148 4.774 3.169 9.625 8.037 9.04 1.147-.106 24.734-2.506 40.701-21.018.689.973 1.423 1.986 2.2 3.022 5.707 7.618 11.311 13.417 16.71 17.299v43.495c0 33.75-27.412 61.208-61.107 61.208s-61.107-27.457-61.107-61.207zm69.009 93.16h-15.801l-6.562-16.924h28.926zm-14.677 15.028h13.553l7.406 40.656h-28.366zm36.23 40.656-8.641-47.431 9.681-24.966c38.461 2.688 69.238 33.758 71.492 72.397z"/><path d="m362.049 318.654c-4.149 0-7.511 3.364-7.511 7.514v15.277c0 4.15 3.362 7.514 7.511 7.514s7.511-3.364 7.511-7.514v-15.277c0-4.15-3.362-7.514-7.511-7.514z"/><path d="m427.992 348.96c4.149 0 7.511-3.364 7.511-7.514v-15.277c0-4.15-3.362-7.514-7.511-7.514s-7.511 3.364-7.511 7.514v15.277c0 4.149 3.362 7.514 7.511 7.514z"/><path d="m416.85 371.374c.477-.987.744-2.094.744-3.265 0-4.15-3.363-7.514-7.511-7.514-3.198 0-5.927 2-7.011 4.817-.3.587-2.1 3.514-8.051 3.514s-7.751-2.927-8.051-3.514c-1.084-2.817-3.814-4.817-7.012-4.817-4.148 0-7.511 3.364-7.511 7.514 0 1.17.267 2.277.744 3.265 1.921 4.672 8.676 12.58 21.829 12.58s19.909-7.908 21.83-12.58z"/><path d="m160.149 217.209c13.141-9.008 23.326-22.027 28.789-37.283 16.437-.372 29.696-13.866 29.696-30.411 0-5.284-1.354-10.256-3.73-14.59 8.419-21.735 11.44-43.748 8.724-63.897-2.672-19.824-10.935-37.261-23.268-49.098-21.721-20.849-43.46-16.892-55.215-10.196-10.632-6.148-38.558-18.735-73.609-6.732-20.566 7.042-38.32 24.421-48.707 47.681-7.963 17.832-15.181 47.161-5.085 86.344-1.203 3.271-1.861 6.803-1.861 10.487 0 16.545 13.259 30.038 29.695 30.411 5.461 15.25 15.64 28.265 28.772 37.272-13.942 2.721-27.021 8.638-38.489 17.529-3.278 2.542-3.877 7.262-1.335 10.542 2.542 3.282 7.26 3.878 10.538 1.337 12.155-9.425 26.475-14.861 41.694-15.906l9.686 24.978-8.642 47.431h-72.53c.75-12.828 4.665-25.237 11.437-36.142 2.189-3.525 1.107-8.158-2.417-10.348-3.524-2.189-8.155-1.109-10.345 2.418-9.049 14.572-13.831 31.385-13.831 48.622-.72 5 1.851 10.546 7.511 10.478h219.258c5.662.067 8.23-5.478 7.511-10.478.003-44.732-31.98-82.119-74.247-90.449zm32.565-52.963c1.087-6.573.561-22.37.674-29.225 5.948 2.127 10.224 7.812 10.224 14.494-.001 6.933-4.598 12.807-10.898 14.731zm-161.808-14.732c0-6.681 4.276-12.366 10.223-14.493.115 6.945-.415 22.568.674 29.225-6.3-1.925-10.897-7.798-10.897-14.732zm15.368-30.428c-6.05 0-11.688 1.787-16.43 4.85-9.117-52.762 15.099-93.946 46.557-104.717 36.36-12.449 63.297 6.726 64.403 7.532 2.778 2.056 6.551 1.991 9.211-.214 1.867-1.494 18.852-14.008 39.944 6.237 22.813 21.897 23.221 59.404 13.219 90.256-4.414-2.506-9.509-3.944-14.935-3.944-.057 0-.114.004-.171.004-28.093-19.996-47.057-56.288-47.248-56.657-2.292-4.793-9.453-5.471-12.595-1.186-.299.383-30.231 38.136-80.79 57.869-.389-.015-.778-.03-1.165-.03zm9.877 35.178v-22.433c38.267-15.702 64.727-40.323 76.705-53.088 7.877 12.905 23.943 36.186 45.508 51.888v23.633c0 33.75-27.412 61.208-61.107 61.208s-61.106-27.458-61.106-61.208zm46.924 148.844 7.407-40.655h13.553l7.407 40.655zm22.083-55.684h-15.801l-6.563-16.924h28.926zm21.554 55.684-8.642-47.431 9.681-24.966c38.461 2.688 69.238 33.758 71.492 72.397z"/><path d="m84.566 124.791c-4.149 0-7.511 3.364-7.511 7.514v15.277c0 4.15 3.363 7.514 7.511 7.514 4.149 0 7.511-3.364 7.511-7.514v-15.277c0-4.15-3.363-7.514-7.511-7.514z"/><path d="m150.508 155.097c4.149 0 7.511-3.364 7.511-7.514v-15.277c0-4.15-3.363-7.514-7.511-7.514-4.149 0-7.511 3.364-7.511 7.514v15.277c0 4.149 3.362 7.514 7.511 7.514z"/><path d="m139.366 177.512c.477-.987.744-2.094.744-3.265 0-4.15-3.363-7.514-7.511-7.514-3.198 0-5.927 2-7.011 4.817-.3.587-2.1 3.514-8.051 3.514s-7.751-2.927-8.051-3.514c-1.084-2.817-3.814-4.817-7.011-4.817-4.148 0-7.511 3.364-7.511 7.514 0 1.17.267 2.277.744 3.265 1.921 4.671 8.676 12.58 21.83 12.58s19.907-7.909 21.828-12.58z"/><path d="m208.992 445.966c-27.378 0-52.096-16.347-63.221-40.79h19.383c6.37.212 9.992-8.128 5.492-12.641l-49.252-52.794c-2.82-3.155-8.163-3.155-10.983 0l-49.251 52.794c-4.5 4.515-.878 12.853 5.492 12.641h22.605c13.13 55.134 62.516 94.52 119.736 94.52 4.149 0 7.511-3.364 7.511-7.514v-38.702c-.001-4.15-3.364-7.514-7.512-7.514zm-7.512 38.443c-48.821-3.372-89.724-39.387-98.755-88.117-.659-3.561-3.764-6.144-7.385-6.144h-11.406l31.968-34.267 31.968 34.267h-12.848c-4.84-.128-8.676 4.961-7.222 9.581 9.623 33.644 39.313 57.824 73.681 60.927v23.753z"/><path d="m302.187 66.725c27.378 0 52.095 16.347 63.22 40.79h-19.383c-6.37-.212-9.992 8.128-5.492 12.641l49.252 52.794c2.82 3.155 8.163 3.155 10.983 0l49.251-52.794c4.5-4.515.878-12.853-5.492-12.641h-22.604c-5.552-23.345-17.682-44.319-35.321-60.97-3.017-2.848-7.771-2.71-10.618.309-2.847 3.018-2.709 7.774.309 10.622 16.84 15.896 27.961 36.271 32.159 58.923.659 3.561 3.764 6.144 7.385 6.144h11.407l-31.968 34.267-31.968-34.267h12.848c4.84.128 8.676-4.962 7.222-9.581-9.623-33.644-39.313-57.824-73.681-60.927l.001-23.75c15.349 1.071 30.369 5.411 43.839 12.712 3.649 1.975 8.206.62 10.182-3.028 1.976-3.649.621-8.209-3.027-10.186-17.851-9.674-38.082-14.788-58.506-14.788-4.035-.08-7.591 3.478-7.511 7.514l.001 38.702c.001 4.15 3.364 7.514 7.512 7.514z"/></g></g></svg>