<svg id="Icons" enable-background="new 0 0 512 512" height="512" viewBox="0 0 512 512" width="512" xmlns="http://www.w3.org/2000/svg"><g><g><circle cx="256" cy="256" fill="#83d5ef" r="256"/></g><g><g><g><g><g><path d="m244.738 188.706c-.391 0-.774-.152-1.062-.439l-23.473-23.48c-.281-.281-.439-.663-.439-1.061v-34.988c0-4.091 3.325-7.419 7.412-7.419h11.649c4.087 0 7.412 3.328 7.412 7.419v58.469c0 .606-.366 1.153-.926 1.386-.186.076-.381.113-.573.113z" fill="#c0405c"/></g><g><path d="m238.825 122.819c3.263 0 5.912 2.648 5.912 5.919v58.468l-23.473-23.479v-34.989c0-3.271 2.648-5.919 5.912-5.919zm0-3h-11.649c-4.914 0-8.912 4.001-8.912 8.919v34.989c0 .795.316 1.559.878 2.121l23.473 23.479c.574.574 1.341.879 2.122.879.386 0 .776-.075 1.147-.229 1.121-.464 1.852-1.558 1.852-2.771v-58.468c.001-4.918-3.997-8.919-8.911-8.919z" fill="#211915"/></g></g><g><path d="m244.737 128.738v49.789l-9.455-9.462c-3.424-3.417-5.339-8.057-5.339-12.886v-27.442c0-3.27 2.648-5.919 5.912-5.919h2.97c3.264.001 5.912 2.649 5.912 5.92z" fill="#e9465e"/></g></g><g><g><g><path d="m262.752 225.428v151.791c0 6.075-3.661 11.282-8.899 13.554-1.799.773-3.779 1.207-5.862 1.207h-175.073c-2.083 0-4.063-.434-5.854-1.207-5.238-2.264-8.907-7.479-8.907-13.554v-151.791l17.136-17.191 85.166-85.418z" fill="#daab42"/></g><g><path d="m262.752 225.428v151.791c0 6.075-3.661 11.282-8.899 13.554-1.799.773-3.779 1.207-5.862 1.207h-157.945c-2.083 0-4.055-.434-5.854-1.207-5.231-2.264-8.899-7.479-8.899-13.554v-168.982l85.166-85.418z" fill="#fbcb74"/></g><g><path d="m247.991 393.479h-175.073c-2.235 0-4.405-.447-6.449-1.33-5.96-2.576-9.812-8.437-9.812-14.931v-151.79c0-.397.157-.777.438-1.059l102.301-102.608c.562-.566 1.561-.564 2.125 0l102.293 102.608c.28.28.438.661.438 1.059v151.791c0 6.487-3.848 12.348-9.802 14.93-2.055.883-4.227 1.33-6.459 1.33zm-188.333-167.431v151.171c0 5.297 3.141 10.076 8.002 12.177 1.665.72 3.435 1.084 5.259 1.084h175.073c1.822 0 3.595-.365 5.27-1.085 4.853-2.104 7.991-6.885 7.991-12.176v-151.171l-100.795-101.104z" fill="#211915"/></g></g><g><g><path d="m300.047 247.645c0 3.166-1.209 6.324-3.62 8.735-4.85 4.85-12.725 4.822-17.54-.063l-109.634-111.276c-4.836-4.913-12.76-4.913-17.596 0l-109.634 111.276c-2.418 2.453-5.611 3.683-8.798 3.683-3.166 0-6.331-1.209-8.742-3.62-4.074-4.074-4.703-10.286-1.901-15.024.517-.873 1.153-1.698 1.901-2.446l127.258-127.251c4.822-4.829 12.648-4.822 17.47 0l127.216 127.251c.748.748 1.384 1.572 1.901 2.446 1.146 1.935 1.719 4.109 1.719 6.289z" fill="#e9465e"/></g><g><path d="m298.328 241.356c-.517.874-1.153 1.698-1.901 2.446v.007c-4.85 4.85-12.725 4.815-17.54-.07l-109.634-111.277c-4.836-4.913-12.76-4.913-17.596 0l-109.634 111.277c-2.418 2.453-5.611 3.683-8.805 3.683-3.166 0-6.324-1.202-8.735-3.613-.755-.755-1.384-1.579-1.901-2.453.517-.873 1.153-1.698 1.901-2.446l127.258-127.251c4.822-4.829 12.648-4.822 17.47 0l127.216 127.251c.748.748 1.384 1.572 1.901 2.446z" fill="#ee6781"/></g><g><path d="m33.226 261.5c-3.704 0-7.185-1.441-9.803-4.06-4.475-4.475-5.351-11.403-2.131-16.849.59-.996 1.307-1.919 2.132-2.742l69.814-69.812c.586-.586 1.535-.586 2.121 0s.586 1.535 0 2.121l-69.815 69.812c-.647.647-1.209 1.37-1.671 2.149-2.522 4.265-1.835 9.692 1.671 13.199 2.051 2.051 4.779 3.181 7.682 3.181 2.927 0 5.672-1.149 7.729-3.236l109.634-111.276c2.623-2.664 6.127-4.132 9.866-4.132 3.74.001 7.244 1.468 9.866 4.132l109.634 111.276c2.046 2.075 4.778 3.225 7.694 3.234.013.001.027.001.04.001 2.901 0 5.625-1.129 7.677-3.18 2.051-2.052 3.18-4.777 3.18-7.675 0-1.946-.522-3.856-1.51-5.524-.462-.78-1.024-1.503-1.67-2.149l-127.216-127.25c-2.049-2.05-4.775-3.179-7.674-3.18-.001 0-.002 0-.003 0-2.899 0-5.624 1.129-7.67 3.179l-34.442 34.44c-.586.586-1.535.586-2.121 0s-.586-1.535 0-2.121l34.441-34.439c2.613-2.617 6.091-4.059 9.792-4.059h.004c3.701.001 7.18 1.442 9.795 4.059l127.216 127.251c.823.823 1.54 1.745 2.13 2.741 1.262 2.131 1.929 4.57 1.929 7.054 0 3.699-1.441 7.178-4.059 9.796s-6.096 4.058-9.797 4.059c-.017 0-.034 0-.051-.001-3.721-.013-7.209-1.479-9.82-4.129l-109.635-111.277c-2.055-2.087-4.8-3.236-7.729-3.237-2.93 0-5.675 1.149-7.729 3.237l-109.635 111.276c-2.626 2.664-6.13 4.131-9.866 4.131z" fill="#211915"/></g></g></g></g><g><g><g><g><path d="m154.99 332.462c0 17.024-14.341 30.704-31.602 29.6-14.992-.957-27.065-13.325-27.686-28.337-.079-1.805.01-3.57.247-5.297v-.01c1.193-8.739 6.204-16.265 13.306-20.861v-58.46c0-4.448 1.795-8.463 4.715-11.372 2.9-2.92 6.924-4.715 11.363-4.715 8.887 0 16.087 7.2 16.087 16.087v58.46c7.072 4.577 12.092 12.092 13.296 20.831.175 1.332.274 2.693.274 4.074z" fill="#a583bb"/></g><g><path d="m154.714 328.389c-2.032 15.111-15.446 26.611-31.326 25.595-14.055-.898-25.546-11.826-27.44-25.556v-.01c1.193-8.739 6.204-16.265 13.306-20.861v-58.46c0-4.448 1.795-8.463 4.715-11.372 2.9-2.92 6.924-4.715 11.363-4.715 8.887 0 16.087 7.2 16.087 16.087v58.46c7.071 4.577 12.091 12.093 13.295 20.832z" fill="#f9eaf9"/></g><g><path d="m125.363 363.626c-.688 0-1.377-.022-2.071-.066-15.662-1-28.439-14.078-29.089-29.772-.08-1.812.003-3.649.245-5.46l.014-.112c1.188-8.702 6.017-16.479 13.292-21.461v-39.905c0-.828.671-1.5 1.5-1.5s1.5.672 1.5 1.5v41.525l-.685.443c-6.896 4.462-11.493 11.644-12.622 19.712l-.013.103c-.229 1.666-.308 3.357-.234 5.027.587 14.186 12.132 26.003 26.283 26.906 7.882.5 15.375-2.179 21.105-7.556 5.74-5.384 8.901-12.682 8.901-20.548 0-1.261-.088-2.565-.263-3.875-1.114-8.092-5.716-15.3-12.624-19.77l-.685-.443v-59.276c0-8.043-6.543-14.587-14.587-14.587-3.905 0-7.562 1.518-10.298 4.271-2.761 2.752-4.279 6.413-4.279 10.315 0 .828-.671 1.5-1.5 1.5s-1.5-.672-1.5-1.5c0-4.706 1.831-9.122 5.156-12.435 3.297-3.32 7.711-5.152 12.421-5.152 9.697 0 17.587 7.89 17.587 17.587v57.656c7.26 4.972 12.084 12.737 13.282 21.43.193 1.448.29 2.886.29 4.278 0 8.578-3.589 16.865-9.848 22.736-5.837 5.477-13.328 8.429-21.278 8.429z" fill="#211915"/></g></g><g><g><path d="m145.57 332.462c0 11.185-9.064 20.24-20.24 20.24s-20.24-9.055-20.24-20.24c0-1.706.207-3.353.612-4.942 1.667-6.598 6.579-11.905 12.941-14.144v-34.689h13.375v34.689c6.362 2.239 11.274 7.545 12.941 14.144.404 1.589.611 3.236.611 4.942z" fill="#c0405c"/></g><g><path d="m144.959 327.521c-2.19 8.808-10.149 15.318-19.628 15.318s-17.438-6.51-19.628-15.318c1.667-6.598 6.579-11.905 12.941-14.144v-34.689h13.375v34.689c6.361 2.239 11.273 7.545 12.94 14.144z" fill="#e9465e"/></g><g><path d="m125.331 354.205c-11.987 0-21.739-9.752-21.739-21.738 0-8.854 5.404-16.809 13.556-20.122v-63.25c0-4.512 3.671-8.183 8.183-8.183s8.183 3.671 8.183 8.183v63.25c8.152 3.313 13.556 11.269 13.556 20.122 0 11.986-9.752 21.738-21.739 21.738zm0-110.293c-2.858 0-5.183 2.325-5.183 5.183v64.286c0 .638-.403 1.205-1.004 1.416-7.507 2.629-12.552 9.73-12.552 17.67 0 10.332 8.406 18.738 18.739 18.738s18.739-8.406 18.739-18.738c0-7.939-5.044-15.041-12.552-17.67-.602-.211-1.004-.778-1.004-1.416v-64.286c0-2.858-2.325-5.183-5.183-5.183z" fill="#211915"/></g></g><g><g><path d="m153.023 280.185h-27.692c-.829 0-1.5-.672-1.5-1.5s.671-1.5 1.5-1.5h27.692c.829 0 1.5.672 1.5 1.5s-.671 1.5-1.5 1.5z" fill="#211915"/></g><g><path d="m153.023 292.021h-27.692c-.829 0-1.5-.672-1.5-1.5s.671-1.5 1.5-1.5h27.692c.829 0 1.5.672 1.5 1.5s-.671 1.5-1.5 1.5z" fill="#211915"/></g><g><path d="m153.023 303.856h-27.692c-.829 0-1.5-.672-1.5-1.5s.671-1.5 1.5-1.5h27.692c.829 0 1.5.672 1.5 1.5s-.671 1.5-1.5 1.5z" fill="#211915"/></g><g><path d="m153.023 268.349h-27.692c-.829 0-1.5-.672-1.5-1.5s.671-1.5 1.5-1.5h27.692c.829 0 1.5.672 1.5 1.5s-.671 1.5-1.5 1.5z" fill="#211915"/></g><g><path d="m153.023 256.513h-27.692c-.829 0-1.5-.672-1.5-1.5s.671-1.5 1.5-1.5h27.692c.829 0 1.5.672 1.5 1.5s-.671 1.5-1.5 1.5z" fill="#211915"/></g></g></g><g><g id="Arrow_2_"><g><path d="m224.468 273.812-21.272-37.746c-1.064-1.887-3.062-3.055-5.228-3.055s-4.164 1.165-5.229 3.055l-21.272 37.746c-1.048 1.858-1.03 4.132.046 5.974 1.077 1.843 3.049 2.974 5.182 2.974h15.271v73.362c0 3.315 2.687 6.002 6.002 6.002s6.002-2.687 6.002-6.002v-73.362h15.27c1.613 0 3.133-.647 4.245-1.758.359-.359.676-.766.938-1.216 1.074-1.84 1.092-4.116.045-5.974z" fill="#53b976"/></g><g><path d="m217.037 272.553c-2.871 1.657-6.542.674-8.199-2.197l-10.449-18.097c-1.657-2.871-.674-6.542 2.197-8.199 2.871-1.657 6.542-.674 8.199 2.197l10.449 18.097c1.657 2.871.674 6.542-2.197 8.199z" fill="#9acdae"/></g></g><g><path d="m197.966 363.625c-4.137 0-7.502-3.366-7.502-7.503v-71.862h-13.771c-2.655 0-5.137-1.425-6.477-3.718s-1.362-5.153-.058-7.467l21.272-37.745c1.327-2.355 3.831-3.819 6.536-3.819 2.704 0 5.208 1.463 6.535 3.818l21.272 37.747c1.304 2.313 1.282 5.175-.059 7.468-.322.552-.716 1.063-1.171 1.519-1.418 1.418-3.302 2.198-5.306 2.198l-13.77-.001v71.862c.002 4.137-3.364 7.503-7.501 7.503zm.001-129.114c-1.623 0-3.126.878-3.922 2.292l-21.273 37.745c-.782 1.389-.769 3.105.035 4.48.804 1.376 2.294 2.231 3.887 2.231h16.771v74.862c0 2.483 2.02 4.503 4.502 4.503s4.502-2.02 4.502-4.503v-74.862l16.77.001c1.203 0 2.334-.468 3.184-1.318.273-.273.51-.581.703-.911.805-1.377.818-3.094.036-4.482l-21.272-37.747c-.798-1.413-2.301-2.291-3.923-2.291z" fill="#211915"/></g></g></g></g><g><g><g><path d="m304.467 146.339c-.568 2.793-2.533 5.235-5.41 6.287-.961.351-1.947.52-2.908.52-3.464 0-6.716-2.14-7.973-5.58-10.79-29.536-33.913-52.659-63.449-63.449-4.401-1.608-6.668-6.48-5.06-10.881 1.052-2.877 3.494-4.842 6.287-5.41 1.487-.302 3.071-.206 4.594.351 34.245 12.507 61.061 39.317 73.569 73.563.556 1.528.653 3.112.35 4.599z" fill="#f9eaf9"/></g><g><path d="m304.467 146.339c-.562.121-1.13.175-1.687.175-3.464 0-6.716-2.14-7.973-5.58-10.79-29.536-33.913-52.659-63.449-63.449-3.996-1.463-6.232-5.616-5.404-9.66 1.487-.302 3.071-.206 4.594.351 34.245 12.507 61.061 39.317 73.569 73.563.556 1.529.653 3.113.35 4.6z" fill="#fff"/></g><g><path d="m296.149 154.646c-4.177 0-7.947-2.639-9.382-6.565-10.638-29.117-33.438-51.917-62.555-62.554-5.172-1.891-7.843-7.635-5.954-12.806 1.202-3.288 3.967-5.667 7.396-6.365 1.8-.364 3.669-.222 5.408.411 4.556 1.664 9.061 3.612 13.39 5.791.74.372 1.038 1.274.666 2.015s-1.275 1.038-2.014.665c-4.226-2.127-8.624-4.028-13.07-5.652-1.218-.444-2.525-.543-3.781-.29-2.4.488-4.335 2.154-5.177 4.455-1.321 3.617.547 7.636 4.166 8.958 29.949 10.941 53.401 34.393 64.343 64.343 1.004 2.748 3.643 4.595 6.565 4.595.808 0 1.614-.145 2.394-.429 2.3-.841 3.965-2.776 4.454-5.177.255-1.255.154-2.565-.291-3.789-8.419-23.052-23.361-42.788-43.209-57.073-.672-.484-.825-1.422-.341-2.094.483-.673 1.419-.826 2.094-.342 20.338 14.639 35.648 34.86 44.275 58.481.634 1.745.776 3.617.411 5.414-.698 3.431-3.077 6.195-6.365 7.397-1.112.405-2.263.611-3.423.611z" fill="#211915"/></g></g><g><g><path d="m354.13 121.714c-.574 2.817-2.569 5.277-5.477 6.311-.937.332-1.898.49-2.841.49-3.488 0-6.758-2.17-7.998-5.652-14.496-40.847-47.538-73.889-88.391-88.385-4.413-1.572-6.722-6.42-5.156-10.839 1.034-2.908 3.488-4.903 6.311-5.477 1.457-.302 3.016-.218 4.528.314 22.554 8.01 43.464 21.23 60.475 38.235 17.005 17.005 30.225 37.921 38.235 60.475.532 1.512.617 3.071.314 4.528z" fill="#f9eaf9"/></g><g><path d="m354.13 121.714c-.562.115-1.124.169-1.687.169-3.488 0-6.758-2.17-7.998-5.652-14.496-40.847-47.538-73.889-88.385-88.385-4.038-1.439-6.311-5.604-5.483-9.684 1.457-.302 3.016-.218 4.528.314 22.554 8.01 43.464 21.23 60.475 38.235 17.005 17.005 30.225 37.921 38.235 60.475.533 1.512.618 3.071.315 4.528z" fill="#fff"/></g><g><path d="m345.812 130.015c-4.213 0-7.996-2.672-9.411-6.649-14.348-40.428-47.05-73.128-87.479-87.474-5.185-1.847-7.907-7.567-6.069-12.754 1.185-3.332 3.96-5.74 7.426-6.445 1.759-.364 3.603-.237 5.324.369 6.219 2.208 12.395 4.844 18.36 7.834.74.371 1.04 1.272.668 2.013-.372.742-1.272 1.042-2.013.669-5.855-2.936-11.917-5.521-18.015-7.688-1.204-.422-2.491-.514-3.721-.259-2.431.494-4.374 2.18-5.202 4.511-1.286 3.628.619 7.632 4.246 8.923 41.271 14.645 74.655 48.026 89.302 89.296.991 2.783 3.637 4.654 6.584 4.654.798 0 1.585-.136 2.34-.403 2.328-.827 4.013-2.771 4.508-5.197.256-1.233.166-2.521-.259-3.729-7.937-22.349-21.036-43.067-37.881-59.912-6.28-6.277-13.169-12.099-20.476-17.301-.675-.48-.833-1.417-.352-2.092s1.417-.834 2.092-.352c7.442 5.298 14.459 11.228 20.857 17.623 17.159 17.158 30.502 38.264 38.588 61.033.608 1.728.735 3.57.369 5.334-.695 3.409-3.164 6.254-6.443 7.42-1.078.382-2.202.576-3.343.576z" fill="#211915"/></g></g></g><g><g><path d="m354.437 425.771c-1.234 0-2.432-.364-3.465-1.054-2.869-1.917-3.645-5.81-1.729-8.678l19.017-28.477v-33.89l-23.963 23.963-6.689 33.582c-.582 2.918-3.159 5.036-6.127 5.036-.412 0-.827-.041-1.233-.123-1.635-.324-3.048-1.27-3.977-2.66-.928-1.389-1.26-3.057-.934-4.696l5.231-26.256-26.255 5.23c-.408.081-.822.122-1.231.122-2.97 0-5.546-2.117-6.126-5.035-.674-3.381 1.53-6.682 4.912-7.357l33.584-6.69 23.962-23.962h-33.888l-28.477 19.016c-1.034.69-2.232 1.055-3.467 1.055-2.099 0-4.047-1.041-5.21-2.784-.927-1.388-1.258-3.055-.932-4.694.327-1.64 1.272-3.054 2.661-3.98l22.265-14.867-22.264-14.867c-1.39-.929-2.335-2.343-2.663-3.981-.326-1.639.006-3.306.935-4.695 1.163-1.742 3.111-2.782 5.209-2.782 1.235 0 2.434.364 3.467 1.055l28.477 19.016h33.888l-23.963-23.963-33.583-6.69c-3.383-.674-5.587-3.975-4.914-7.357.243-1.219.833-2.324 1.707-3.197 1.168-1.168 2.78-1.838 4.42-1.838.413 0 .828.041 1.234.123l26.252 5.229-5.231-26.256c-.326-1.639.005-3.307.933-4.696.928-1.39 2.341-2.334 3.98-2.66.409-.081.822-.122 1.231-.122 2.969 0 5.545 2.117 6.127 5.035l6.689 33.582 23.963 23.964v-33.892l-19.017-28.477c-1.915-2.869-1.139-6.762 1.73-8.678 1.032-.689 2.23-1.054 3.464-1.054 2.1 0 4.048 1.04 5.211 2.782l14.867 22.265 14.866-22.264c1.165-1.743 3.112-2.784 5.211-2.784 1.235 0 2.434.365 3.467 1.056 1.387.926 2.332 2.34 2.658 3.98.327 1.64-.003 3.308-.93 4.695l-19.017 28.479v33.889l23.963-23.964 6.689-33.582c.582-2.918 3.159-5.035 6.127-5.035.41 0 .823.041 1.23.121 1.218.243 2.323.832 3.197 1.705 1.484 1.484 2.126 3.598 1.718 5.652l-5.23 26.256 26.255-5.229c.403-.082.818-.123 1.23-.123 2.971 0 5.547 2.118 6.126 5.036.674 3.382-1.529 6.683-4.912 7.356l-33.583 6.69-23.963 23.963h33.889l28.477-19.016c1.033-.69 2.231-1.055 3.466-1.055 2.099 0 4.047 1.04 5.21 2.783.689 1.032 1.054 2.231 1.054 3.466 0 2.099-1.04 4.046-2.782 5.21l-22.265 14.867 22.264 14.867c1.39.928 2.334 2.342 2.662 3.98.327 1.641-.005 3.309-.935 4.696-1.163 1.742-3.11 2.782-5.209 2.782-1.235 0-2.434-.364-3.466-1.055l-28.477-19.016h-33.889l23.963 23.962 33.582 6.69c3.384.676 5.587 3.977 4.914 7.359-.58 2.916-3.157 5.033-6.128 5.033-.41 0-.823-.041-1.229-.122l-26.256-5.23 5.231 26.256c.326 1.64-.005 3.308-.933 4.697-.927 1.39-2.341 2.335-3.982 2.66-.401.081-.816.122-1.229.122-2.968 0-5.545-2.117-6.127-5.035l-6.69-33.583-23.963-23.963v33.89l19.017 28.477c.927 1.388 1.257 3.056.93 4.696s-1.271 3.054-2.66 3.98c-1.031.689-2.229 1.054-3.465 1.054-2.1 0-4.048-1.04-5.21-2.782l-14.867-22.264-14.867 22.265c-1.164 1.745-3.111 2.785-5.21 2.785z" fill="#fff"/></g><g><path d="m394.591 252.871c.937 0 1.847.277 2.633.803 2.181 1.456 2.77 4.415 1.314 6.596l-18.735 28.056-.534.799v.961 29.349 7.654l5.413-5.413 20.753-20.753.68-.68.188-.942 6.591-33.086c.442-2.218 2.4-3.828 4.656-3.828.312 0 .628.031.939.093.926.184 1.765.632 2.428 1.295 1.129 1.129 1.617 2.736 1.307 4.297l-4.742 23.802-.928 4.657 4.656-.928 23.802-4.742c.31-.062.625-.093.937-.093 2.257 0 4.215 1.609 4.656 3.828.512 2.572-1.163 5.082-3.735 5.594l-33.086 6.59-.943.188-.68.68-20.753 20.753-5.412 5.412h7.654 29.35.961l.799-.534 28.055-18.735c.785-.524 1.696-.802 2.634-.802 1.597 0 3.078.791 3.963 2.116.524.785.802 1.695.802 2.633 0 1.597-.791 3.078-2.115 3.963l-20.183 13.478-3.949 2.637 3.949 2.637 20.183 13.478c1.057.705 1.775 1.78 2.023 3.026s-.003 2.513-.71 3.569c-.885 1.325-2.366 2.116-3.963 2.116-.938 0-1.848-.277-2.634-.801l-28.055-18.735-.799-.534h-.961-29.35-7.654l5.412 5.412 20.753 20.753.68.68.943.188 33.085 6.591c2.572.513 4.248 3.022 3.735 5.595-.441 2.217-2.4 3.827-4.657 3.827-.312 0-.626-.031-.936-.093l-23.803-4.742-4.657-.928.928 4.656 4.742 23.802c.248 1.247-.004 2.516-.709 3.572s-1.779 1.774-3.026 2.021c-.31.062-.626.093-.938.093-2.256 0-4.214-1.61-4.656-3.828l-6.591-33.086-.188-.943-.68-.68-20.753-20.752-5.413-5.413v7.654 29.35.961l.534.799 18.735 28.056c1.456 2.181.867 5.14-1.315 6.596-.785.524-1.695.802-2.633.802-1.597 0-3.078-.791-3.963-2.115l-13.478-20.184-2.637-3.948-2.637 3.948-13.478 20.184c-.884 1.325-2.366 2.116-3.963 2.116-.937 0-1.847-.277-2.633-.802-2.181-1.456-2.771-4.416-1.314-6.596l18.735-28.056.534-.799v-.961-29.35-7.654l-5.413 5.413-20.753 20.752-.68.68-.188.943-6.591 33.086c-.442 2.218-2.4 3.829-4.656 3.829-.312 0-.627-.031-.939-.094-1.244-.248-2.318-.966-3.024-2.022-.706-1.057-.958-2.325-.71-3.57l4.742-23.803.928-4.656-4.657.928-23.802 4.742c-.31.062-.626.093-.938.093-2.257 0-4.215-1.609-4.656-3.828-.512-2.572 1.163-5.081 3.735-5.594l33.086-6.591.943-.188.68-.68 20.753-20.753 5.412-5.412h-7.654-29.349-.961l-.799.534-28.055 18.735c-.786.524-1.697.802-2.634.802-1.596 0-3.078-.791-3.963-2.117-.705-1.055-.956-2.322-.708-3.568.248-1.247.967-2.322 2.022-3.026l20.184-13.478 3.949-2.637-3.949-2.637-20.183-13.478c-1.057-.706-1.776-1.781-2.025-3.027-.248-1.246.004-2.512.71-3.569.885-1.325 2.366-2.116 3.962-2.116.938 0 1.849.277 2.634.801l28.055 18.735.799.534h.961 29.349 7.654l-5.412-5.412-20.753-20.753-.68-.68-.943-.188-33.086-6.59c-2.572-.513-4.248-3.022-3.735-5.594.185-.926.632-1.766 1.295-2.428.889-.889 2.113-1.399 3.358-1.399h.002c.312 0 .628.031.938.093l23.802 4.742 4.656.928-.928-4.657-4.742-23.802c-.248-1.246.004-2.514.709-3.57s1.78-1.774 3.026-2.022c.311-.062.626-.093.938-.093 2.256 0 4.214 1.61 4.656 3.828l6.591 33.086.188.942.68.68 20.753 20.753 5.413 5.413v-7.654-29.349-.961l-.534-.799-18.735-28.055c-1.456-2.182-.867-5.141 1.315-6.598.784-.523 1.694-.8 2.631-.8 1.598 0 3.08.791 3.964 2.115l13.478 20.184 2.637 3.949 2.637-3.949 13.477-20.184c.893-1.327 2.374-2.119 3.97-2.119m0-3c-2.6 0-5.014 1.29-6.458 3.45l-13.478 20.184-.142.212-.142-.212-13.478-20.184c-1.443-2.16-3.857-3.449-6.459-3.449-1.532 0-3.018.451-4.297 1.305-3.557 2.375-4.519 7.201-2.145 10.758l18.736 28.056.029.043v.052 29.349.412l-.291-.291-20.753-20.753-.036-.037-.01-.05-6.591-33.086c-.721-3.617-3.916-6.242-7.598-6.242-.509 0-1.022.051-1.525.151-2.03.403-3.783 1.575-4.933 3.298-1.151 1.723-1.561 3.791-1.157 5.822l4.742 23.802.05.25-.25-.05-23.802-4.742c-.505-.1-1.017-.15-1.524-.15-2.037 0-4.034.831-5.481 2.278-1.083 1.082-1.815 2.452-2.116 3.963-.836 4.194 1.897 8.287 6.091 9.123l33.086 6.591.051.01.036.037 20.754 20.753.291.291h-.412-29.349-.052l-.043-.028-28.055-18.735c-1.281-.855-2.768-1.307-4.3-1.307-2.601 0-5.015 1.29-6.457 3.45-1.151 1.722-1.562 3.79-1.158 5.821.405 2.032 1.577 3.785 3.3 4.936l20.184 13.478.212.142-.212.142-20.184 13.478c-1.722 1.149-2.893 2.902-3.298 4.935s.006 4.101 1.156 5.822c1.442 2.16 3.856 3.45 6.457 3.45 1.533 0 3.019-.452 4.3-1.307l28.056-18.735.043-.028h.052 29.349.412l-.291.291-20.753 20.753-.037.037-.052.01-33.085 6.59c-4.194.836-6.927 4.929-6.091 9.123.718 3.616 3.914 6.242 7.598 6.242.505 0 1.017-.051 1.521-.15l23.805-4.742.251-.05-.05.25-4.742 23.803c-.404 2.031.007 4.099 1.158 5.822s2.903 2.895 4.933 3.299c.499.1 1.014.151 1.524.151 3.681 0 6.877-2.625 7.598-6.242l6.591-33.087.01-.051.036-.037 20.753-20.752.291-.292v.412 29.35.052l-.029.043-18.735 28.056c-1.149 1.721-1.559 3.789-1.154 5.822s1.576 3.786 3.298 4.935c1.278.854 2.765 1.307 4.299 1.307 2.602 0 5.016-1.29 6.458-3.45l13.478-20.183.142-.212.142.212 13.478 20.184c1.442 2.16 3.856 3.449 6.458 3.449 1.532 0 3.019-.452 4.299-1.307 1.721-1.148 2.892-2.901 3.297-4.935s-.005-4.101-1.154-5.822l-18.735-28.056-.029-.043v-.052-29.35-.412l.291.291 20.753 20.753.036.036.01.05 6.591 33.087c.721 3.617 3.917 6.242 7.598 6.242.505 0 1.017-.051 1.521-.15 2.034-.404 3.787-1.575 4.937-3.299 1.15-1.722 1.561-3.791 1.157-5.823l-4.742-23.802-.05-.25.251.05 23.803 4.742c.503.1 1.014.15 1.522.15 3.684 0 6.88-2.625 7.599-6.242.836-4.193-1.896-8.286-6.091-9.122l-33.086-6.591-.051-.01-.037-.037-20.753-20.752-.291-.291h.411 29.348.052l.043.028 28.056 18.735c1.281.855 2.768 1.307 4.3 1.307 2.601 0 5.015-1.29 6.458-3.45 1.151-1.722 1.562-3.79 1.157-5.822-.405-2.033-1.577-3.786-3.3-4.936l-20.182-13.478-.212-.142.212-.142 20.183-13.478c2.16-1.443 3.449-3.857 3.449-6.458 0-1.533-.452-3.019-1.307-4.299-1.442-2.16-3.856-3.45-6.458-3.45-1.533 0-3.019.452-4.3 1.307l-28.055 18.734-.043.029h-.053-29.35-.411l.291-.291 20.753-20.753.037-.037.05-.01 33.087-6.59c4.194-.836 6.926-4.929 6.091-9.123-.718-3.616-3.914-6.242-7.598-6.242-.507 0-1.019.05-1.521.15l-23.805 4.742-.25.05.05-.251 4.742-23.802c.507-2.547-.288-5.166-2.128-7.005-1.084-1.084-2.455-1.815-3.964-2.116-.501-.1-1.014-.151-1.524-.151-3.682 0-6.877 2.625-7.598 6.242l-6.591 33.086-.01.05-.036.037-20.753 20.753-.291.291v-.412-29.349-.052l.029-.043 18.735-28.056c2.375-3.557 1.413-8.383-2.143-10.757-1.281-.851-2.768-1.304-4.301-1.304z" fill="#211915"/></g></g></g></svg>