<svg id="Capa_1" enable-background="new 0 0 512 512" height="512" viewBox="0 0 512 512" width="512" xmlns="http://www.w3.org/2000/svg"><g><g><path d="m391 436h30v76h-30z" fill="#293939"/></g><g><path d="m421 135h-30v-90c0-8.276-6.724-15-15-15h-150c-8.276 0-15 6.724-15 15v30h-30v-30c0-24.814 20.186-45 45-45h150c24.814 0 45 20.186 45 45z" fill="#293939"/></g><path d="m361 270h90v181h-90z" fill="#b5dbff"/><path d="m166 60h-135v452h135 135v-452z" fill="#ffe477"/><path d="m166 60h135v452h-135z" fill="#ffcd00"/><path d="m166 90h-105v165c0 8.284 6.716 15 15 15h90 90c8.284 0 15-6.716 15-15v-165z" fill="#4a696f"/><path d="m271 255v-165h-105v180h90c8.284 0 15-6.716 15-15z" fill="#384949"/><g><path d="m91 361h45v30h-45z" fill="#4a696f"/></g><g><path d="m196 361h45v30h-45z" fill="#384949"/></g><g><path d="m157.214 158.791h59.994v29.997h-59.994z" fill="#f03800" transform="matrix(.707 -.707 .707 .707 -68.055 183.28)"/></g><path d="m166 120c-41.353 0-75 33.647-75 75h30c0-24.814 20.186-45 45-45s45 20.186 45 45h30c0-41.353-33.647-75-75-75z" fill="#edf5ff"/><path d="m211 195h30c0-41.353-33.647-75-75-75v30c24.814 0 45 20.186 45 45z" fill="#d5e8fe"/><circle cx="166" cy="376" fill="#4a696f" r="45"/><path d="m211 376c0-24.814-20.186-45-45-45v90c24.814 0 45-20.186 45-45z" fill="#384949"/><circle cx="166" cy="376" fill="#edf5ff" r="15"/><path d="m181 376c0-8.276-6.724-15-15-15v30c8.276 0 15-6.724 15-15z" fill="#d5e8fe"/><g><path d="m481 300h-150v-180h150z" fill="#d5e8fe"/></g></g></svg>