<svg height="512pt" viewBox="0 0 511 512" width="512pt" xmlns="http://www.w3.org/2000/svg"><path d="m23.996094 367.609375c-14.597656-31.179687-22.957032-65.835937-23.472656-102.414063-1.949219-139.234374 111.109374-253.953124 250.355468-253.953124 138.28125 0 250.378906 112.097656 250.378906 250.378906 0 37.875-8.425781 73.777344-23.480468 105.957031-2.589844 5.539063-8.144532 9.082031-14.257813 9.082031h-425.265625c-6.105468-.003906-11.671875-3.523437-14.257812-9.050781zm0 0" fill="#2ed0e1"/><path d="m477.777344 367.578125c-39.90625 85.3125-126.492188 144.421875-226.898438 144.421875s-186.992187-59.109375-226.898437-144.421875c8.210937-.929687 16.246093-3.867187 23.335937-8.808594 17.472656-12.179687 40.6875-12.179687 58.160156 0 17.472657 12.179688 40.6875 12.179688 58.160157 0 17.476562-12.179687 40.6875-12.179687 58.160156 0 17.476563 12.179688 40.6875 12.179688 58.164063 0 17.472656-12.179687 40.683593-12.179687 58.160156 0 17.472656 12.179688 40.6875 12.179688 58.160156 0 17.472656-12.179687 40.6875-12.179687 58.160156 0 7.089844 4.941407 15.125 7.878907 23.335938 8.808594zm0 0" fill="#84deea"/><path d="m141.191406 473.449219c-21.980468-10.734375-42.164062-24.582031-59.957031-40.984375v-309.640625c0-13.253907 5.03125-26.019531 14.078125-35.710938l.460938-.496093c8.148437-8.726563 13.023437-19.949219 13.914062-31.78125 13.855469-9.476563 28.703125-17.601563 44.367188-24.175782h59.953124c-15.660156 6.574219-72.816406 78.90625-72.816406 92.164063zm0 0" fill="#fd2aa7"/><path d="m278.167969 86.558594c9.824219 9.988281 15.632812 23.226562 15.632812 37.234375v384.539062c-13.945312 2.410157-28.285156 3.667969-42.921875 3.667969-25.757812 0-49.984375-3.699219-73.371094-10.921875-33.875-10.472656-57.4375-42.207031-57.4375-77.664063v-300.589843c0-13.257813 5.03125-26.019531 14.074219-35.710938l.464844-.496093c9.042969-9.6875 14.074219-22.453126 14.074219-35.710938v-17.917969c1.78125-.792969 3.570312-1.574219 5.371094-2.328125h109.089843v19.199219c0 13.734375 5.398438 26.914063 15.023438 36.699219zm0 0" fill="#fd4fb6"/><path d="m155.171875 220.015625c-12.414063-14.726563-13.316406-35.976563-2.195313-51.699219l31.296876-44.261718c1.582031-2.238282 4.90625-2.238282 6.492187 0l31.296875 44.261718c11.117188 15.722656 10.214844 36.972656-2.199219 51.699219-16.902343 20.046875-47.785156 20.046875-64.691406 0zm0 0" fill="#d80d80"/><path d="m222.0625 168.316406c8.621094 12.195313 10.007812 27.710938 4.410156 40.933594-18.265625 9.964844-42.03125 6.445312-56.386718-10.582031-10.03125-11.894531-13.046876-27.761719-8.820313-42.074219l23.007813-32.535156c1.582031-2.242188 4.90625-2.242188 6.492187 0zm0 0" fill="#f02399"/><path d="m268.253906 63.359375h-161.46875c-8.46875 0-15.332031-6.863281-15.332031-15.328125v-32.703125c0-8.464844 6.863281-15.328125 15.332031-15.328125h161.46875c8.464844 0 15.328125 6.863281 15.328125 15.328125v32.703125c0 8.464844-6.863281 15.328125-15.328125 15.328125zm0 0" fill="#fdcb6b"/><path d="m268.253906 63.359375h-132.855468c-8.464844 0-15.328126-6.863281-15.328126-15.328125v-32.703125c0-8.464844 6.863282-15.328125 15.328126-15.328125h132.855468c8.464844 0 15.328125 6.863281 15.328125 15.328125v32.703125c0 8.464844-6.863281 15.328125-15.328125 15.328125zm0 0" fill="#fdf385"/><path d="m508.011719 170.570312-223.503907 223.503907-107 107.003906c-41.347656-11.679687-78.558593-35.234375-107.304687-66.132813l351.089844-351.089843c5.988281-5.988281 15.695312-5.988281 21.679687 0l65.039063 65.035156c5.984375 5.988281 5.984375 15.691406 0 21.679687zm0 0" fill="#fde5bd"/><path d="m508.011719 170.570312-223.503907 223.503907-107 107.003906c-30.230468-8.28125-58.246093-23.398437-81.839843-42.46875l126.695312-126.683594 223.5-223.5c5.988281-5.988281 15.695313-5.988281 21.679688 0l40.46875 40.464844c5.984375 5.988281 5.984375 15.691406 0 21.679687zm0 0" fill="#fff5f5"/><path d="m378.660156 250.78125-37.578125-37.574219c-3.992187-3.992187-3.992187-10.464843 0-14.453125l21.679688-21.679687c3.988281-3.992188 10.460937-3.992188 14.449219 0l37.578124 37.578125c3.992188 3.988281 3.992188 10.460937 0 14.453125l-21.679687 21.675781c-3.988281 3.992188-10.457031 3.992188-14.449219 0zm0 0" fill="#fdcb6b"/><path d="m436.46875 192.972656-37.578125-37.578125c-3.988281-3.992187-3.988281-10.460937 0-14.453125l21.679687-21.679687c3.992188-3.988281 10.460938-3.988281 14.453126 0l37.578124 37.578125c3.992188 3.992187 3.992188 10.460937 0 14.453125l-21.679687 21.679687c-3.992187 3.992188-10.460937 3.992188-14.453125 0zm0 0" fill="#fdd78d"/><path d="m320.847656 308.59375-37.578125-37.578125c-3.988281-3.992187-3.988281-10.460937 0-14.453125l21.679688-21.679688c3.992187-3.988281 10.460937-3.988281 14.453125 0l37.578125 37.578126c3.992187 3.992187 3.992187 10.460937 0 14.453124l-21.679688 21.679688c-3.988281 3.992188-10.460937 3.992188-14.453125 0zm0 0" fill="#fd4fb6"/><path d="m263.039062 366.402344-37.578124-37.574219c-3.992188-3.992187-3.992188-10.464844 0-14.453125l21.679687-21.679688c3.988281-3.992187 10.460937-3.992187 14.449219 0l37.578125 37.578126c3.992187 3.988281 3.992187 10.460937 0 14.453124l-21.675781 21.675782c-3.992188 3.992187-10.460938 3.992187-14.453126 0zm0 0" fill="#f02399"/><path d="m203.386719 426.054688-37.578125-37.578126c-3.988282-3.988281-3.988282-10.460937 0-14.453124l21.679687-21.675782c3.992188-3.992187 10.460938-3.992187 14.453125 0l37.578125 37.574219c3.988281 3.992187 3.988281 10.464844 0 14.453125l-21.679687 21.679688c-3.992188 3.992187-10.460938 3.992187-14.453125 0zm0 0" fill="#4f66cf"/></svg>