<?xml version="1.0" encoding="iso-8859-1"?>
<!-- Generator: Adobe Illustrator 19.0.0, SVG Export Plug-In . SVG Version: 6.00 Build 0)  -->
<svg xmlns="http://www.w3.org/2000/svg" xmlns:xlink="http://www.w3.org/1999/xlink" version="1.1" id="Layer_1" x="0px" y="0px" viewBox="0 0 508.148 508.148" style="enable-background:new 0 0 508.148 508.148;" xml:space="preserve" width="512" height="512">
<g>
	<g>
		<rect x="46.839" y="7.448" style="fill:#D6D6E2;" width="159.08" height="63.632"/>
		<rect x="46.839" y="182.437" style="fill:#D6D6E2;" width="159.08" height="63.632"/>
		<rect x="46.839" y="71.08" style="fill:#8CE0FF;" width="159.08" height="111.356"/>
		<rect x="46.839" y="71.08" style="fill:#00ACF0;" width="39.77" height="111.356"/>
		<rect x="237.735" y="7.448" style="fill:#FF7857;" width="222.712" height="135.218"/>
		<rect x="237.735" y="142.667" style="fill:#D6D6E2;" width="222.712" height="39.77"/>
		<rect x="317.276" y="182.437" style="fill:#D6D6E2;" width="63.632" height="31.816"/>
		<rect x="293.413" y="214.253" style="fill:#BFBCCA;" width="111.356" height="23.862"/>
		<rect x="237.735" y="7.448" style="fill:#FF5023;" width="31.816" height="135.218"/>
		<rect x="237.735" y="142.667" style="fill:#BFBCCA;" width="31.816" height="39.77"/>
		<g>
			<rect x="182.057" y="468.781" style="fill:#BFBCCA;" width="159.08" height="31.816"/>
			<polygon style="fill:#D6D6E2;" points="365,405.149 365,468.781 341.138,468.781 182.057,468.781 158.195,468.781      158.195,405.149    "/>
			<rect x="174.103" y="373.333" style="fill:#BFBCCA;" width="159.08" height="31.816"/>
			<polygon style="fill:#D6D6E2;" points="357.046,309.701 357.046,373.333 333.184,373.333 174.103,373.333 150.241,373.333      150.241,309.701    "/>
			<rect x="150.241" y="309.701" style="fill:#BFBCCA;" width="39.77" height="63.632"/>
			<rect x="158.195" y="405.149" style="fill:#BFBCCA;" width="39.77" height="63.632"/>
		</g>
		<rect x="46.839" y="7.448" style="fill:#BFBCCA;" width="39.77" height="63.632"/>
		<rect x="46.839" y="182.437" style="fill:#BFBCCA;" width="39.77" height="63.632"/>
	</g>
	<g>
		<g>
			<g>
				<g>
					<rect x="174.535" y="429.517" style="fill:#FFFFFF;" width="95.448" height="15"/>
				</g>
				<g>
					<rect x="317.707" y="429.517" style="fill:#FFFFFF;" width="15.908" height="15"/>
				</g>
				<g>
					<rect x="174.535" y="334.068" style="fill:#FFFFFF;" width="95.448" height="15"/>
				</g>
				<g>
					<rect x="317.707" y="334.068" style="fill:#FFFFFF;" width="15.908" height="15"/>
				</g>
			</g>
			<g>
				<g>
					<rect x="87.041" y="31.816" style="fill:#FFFFFF;" width="47.724" height="15"/>
				</g>
				<g>
					<polygon style="fill:#FFFFFF;" points="277.483,87.04 262.483,87.04 262.483,31.816 293.844,31.816 293.844,46.816        277.483,46.816      "/>
				</g>
				<g>
					<rect x="421.109" y="103.402" style="fill:#FFFFFF;" width="15.908" height="15"/>
				</g>
			</g>
			<g>
				<path style="fill:#231F20;" d="M277.936,317.253h72.041v48.632H158.172v-48.632h95.902v-15H143.172v78.632h23.862V397.7h-23.862      v78.633h23.862v31.815h63.178v-15h-48.178v-16.815h144.08v16.815h-72.04v15h87.04v-31.815h23.862V397.7h-23.862v-16.815h23.862      v-78.632h-87.041V317.253z M349.977,461.333H158.172V412.7h191.805V461.333z M326.115,397.7h-144.08v-16.815h144.08V397.7z"/>
				<rect x="285.89" y="429.517" style="fill:#231F20;" width="15.908" height="15"/>
				<rect x="285.89" y="334.068" style="fill:#231F20;" width="15.908" height="15"/>
				<path style="fill:#231F20;" d="M213.85,0H39.77v94.994h15V78.633h144.08v96.355H54.77v-56.132h-15V253.62h174.08V0z       M54.77,63.633V15h144.08v48.633H54.77z M54.77,238.62v-48.632h144.08v48.632H54.77z"/>
				<rect x="150.672" y="31.816" style="fill:#231F20;" width="15.908" height="15"/>
				<rect x="102.949" y="206.805" style="fill:#231F20;" width="47.724" height="15"/>
				<path style="fill:#231F20;" d="M381.338,0v15h72.04v120.219H245.667V15h111.811V0H230.667v189.988h79.54v16.816h-23.862v38.862      h126.356v-38.862h-23.862v-16.816h79.54V0H381.338z M397.701,221.805v8.862h-96.356v-8.862h8.862h78.632H397.701z       M373.838,206.805h-48.632v-16.816h48.632V206.805z M245.667,174.988v-24.77h207.712v24.77H245.667z"/>
				<rect x="262.029" y="103.402" style="fill:#231F20;" width="15.908" height="15"/>
				<rect x="421.109" y="71.587" style="fill:#231F20;" width="15.908" height="15"/>
				<rect x="389.292" y="103.402" style="fill:#231F20;" width="15.908" height="15"/>
				<polygon style="fill:#231F20;" points="94.541,410.956 94.541,341.568 79.541,341.568 79.541,410.956 60.527,391.943       49.92,402.551 87.041,439.669 124.16,402.551 113.552,391.943     "/>
				<polygon style="fill:#231F20;" points="391.943,312.403 402.55,323.011 421.563,303.997 421.563,373.385 436.563,373.385       436.563,303.997 455.575,323.01 466.182,312.403 429.063,275.284     "/>
				<rect x="79.541" y="309.753" style="fill:#231F20;" width="15" height="15.907"/>
				<rect x="79.541" y="277.937" style="fill:#231F20;" width="15" height="15.908"/>
				<rect x="421.563" y="421.108" style="fill:#231F20;" width="15" height="15.908"/>
				<rect x="421.563" y="389.293" style="fill:#231F20;" width="15" height="15.907"/>
			</g>
		</g>
	</g>
</g>















</svg>
