<svg id="Icons" enable-background="new 0 0 512 512" height="512" viewBox="0 0 512 512" width="512" xmlns="http://www.w3.org/2000/svg"><g><g><circle cx="256" cy="256" fill="#78c795" r="256"/></g><g><g><g><g><g><path d="m326.887 244.271c-.391 0-.774-.152-1.062-.439l-19.742-19.749c-.281-.281-.439-.663-.439-1.061v-29.429c0-3.572 2.903-6.478 6.472-6.478h9.798c3.569 0 6.472 2.906 6.472 6.478v49.177c0 .607-.366 1.154-.926 1.386-.185.077-.38.115-.573.115z" fill="#c0405c"/></g><g><path d="m321.914 188.615c2.745 0 4.972 2.228 4.972 4.978v49.177l-19.742-19.748v-29.429c0-2.751 2.228-4.978 4.972-4.978zm0-3h-9.798c-4.396 0-7.972 3.579-7.972 7.978v29.429c0 .796.316 1.558.878 2.121l19.742 19.748c.574.574 1.341.879 2.122.879.386 0 .776-.075 1.147-.228 1.121-.464 1.852-1.558 1.852-2.772v-49.177c.002-4.399-3.575-7.978-7.971-7.978z" fill="#211915"/></g></g><g><path d="m326.887 193.593v41.877l-7.952-7.958c-2.88-2.874-4.49-6.777-4.49-10.838v-23.081c0-2.751 2.228-4.978 4.972-4.978h2.498c2.744 0 4.972 2.228 4.972 4.978z" fill="#e9465e"/></g></g><g><g><g><path d="m342.039 274.918v127.669c0 5.109-3.079 9.489-7.485 11.4-1.513.65-3.178 1.015-4.93 1.015h-147.251c-1.752 0-3.417-.365-4.924-1.015-4.406-1.904-7.492-6.291-7.492-11.4v-127.669l14.413-14.459 71.632-71.844z" fill="#daab42"/></g><g><path d="m342.039 274.918v127.669c0 5.109-3.079 9.489-7.485 11.4-1.513.65-3.178 1.015-4.93 1.015h-132.846c-1.752 0-3.411-.365-4.924-1.015-4.399-1.904-7.485-6.291-7.485-11.4v-142.128l71.632-71.844z" fill="#fbcb74"/></g><g><path d="m329.624 416.503h-147.251c-1.912 0-3.768-.383-5.518-1.138-5.102-2.206-8.397-7.221-8.397-12.778v-127.669c0-.397.157-.778.438-1.059l86.045-86.303c.281-.282.664-.441 1.062-.441.398 0 .781.159 1.062.441l86.038 86.303c.28.281.438.662.438 1.059v127.669c0 5.551-3.292 10.566-8.389 12.776-1.762.758-3.62 1.14-5.528 1.14zm-158.167-140.964v127.049c0 4.359 2.585 8.293 6.587 10.023 1.372.592 2.828.892 4.329.892h147.251c1.499 0 2.958-.301 4.338-.894 3.994-1.732 6.578-5.667 6.578-10.022v-127.048l-84.538-84.799z" fill="#211915"/></g></g><g><g><path d="m373.407 293.605c0 2.663-1.017 5.319-3.045 7.347-4.079 4.079-10.703 4.055-14.753-.053l-92.212-93.593c-4.067-4.132-10.732-4.132-14.8 0l-92.212 93.593c-2.034 2.063-4.72 3.097-7.4 3.097-2.662 0-5.325-1.017-7.353-3.045-3.427-3.427-3.956-8.652-1.599-12.637.435-.735.97-1.428 1.599-2.057l107.035-107.029c4.055-4.061 10.638-4.055 14.694 0l107 107.029c.629.629 1.164 1.322 1.599 2.057.965 1.629 1.447 3.457 1.447 5.291z" fill="#e9465e"/></g><g><path d="m371.961 288.315c-.435.735-.97 1.428-1.599 2.057v.006c-4.079 4.079-10.703 4.05-14.753-.059l-92.212-93.593c-4.067-4.132-10.732-4.132-14.8 0l-92.212 93.593c-2.034 2.063-4.72 3.097-7.406 3.097-2.662 0-5.319-1.011-7.347-3.039-.635-.635-1.164-1.328-1.599-2.063.435-.735.97-1.428 1.599-2.057l107.035-107.029c4.055-4.061 10.638-4.055 14.694 0l107 107.029c.63.63 1.165 1.323 1.6 2.058z" fill="#ee6781"/></g><g><path d="m148.987 305.496c-3.179 0-6.167-1.237-8.414-3.484-3.841-3.841-4.593-9.788-1.829-14.461.506-.854 1.121-1.646 1.829-2.354l58.721-58.717c.586-.586 1.535-.586 2.121 0s.586 1.536 0 2.121l-58.721 58.717c-.53.531-.991 1.123-1.369 1.761-2.066 3.493-1.503 7.939 1.369 10.812 1.68 1.68 3.915 2.605 6.292 2.605 2.398 0 4.646-.941 6.331-2.65l92.212-93.593c2.251-2.287 5.258-3.546 8.468-3.546s6.217 1.259 8.469 3.546l92.211 93.592c1.676 1.7 3.914 2.641 6.302 2.649 2.351-.018 4.633-.916 6.321-2.604 1.68-1.68 2.605-3.913 2.605-6.287 0-1.594-.428-3.159-1.237-4.525-.377-.637-.837-1.229-1.369-1.761l-107-107.029c-1.679-1.679-3.912-2.604-6.287-2.604h-.002c-2.375 0-4.605.924-6.282 2.604l-28.969 28.967c-.586.586-1.535.586-2.121 0s-.586-1.536 0-2.121l28.968-28.966c2.242-2.246 5.228-3.483 8.404-3.483h.003c3.176.001 6.162 1.238 8.407 3.483l107 107.029c.709.709 1.324 1.501 1.829 2.354 1.083 1.828 1.655 3.921 1.655 6.053 0 3.175-1.237 6.161-3.484 8.408s-5.232 3.483-8.409 3.483c-.015 0-.029 0-.044 0-3.193-.011-6.187-1.27-8.428-3.543l-92.211-93.593c-1.684-1.71-3.932-2.651-6.332-2.651s-4.648.941-6.331 2.651l-92.212 93.593c-2.251 2.285-5.258 3.544-8.466 3.544z" fill="#211915"/></g></g></g></g><g><g><g><path d="m256 387.058c-30.652 0-55.589-24.937-55.589-55.59 0-18.976 9.532-36.451 25.497-46.747 3.213-2.072 7.5-1.148 9.574 2.067 2.073 3.214 1.147 7.501-2.067 9.574-11.993 7.734-19.153 20.858-19.153 35.107 0 23.015 18.724 41.739 41.739 41.739s41.739-18.724 41.739-41.739c0-14.249-7.16-27.373-19.153-35.107-3.215-2.073-4.14-6.359-2.067-9.574 2.073-3.214 6.359-4.139 9.574-2.067 15.966 10.296 25.497 27.771 25.497 46.747-.001 30.653-24.939 55.59-55.591 55.59z" fill="#fff"/></g><g><path d="m256 379.126c-29.345 0-53.436-22.86-55.438-51.705-.097 1.341-.151 2.69-.151 4.048 0 30.652 24.937 55.59 55.589 55.59s55.59-24.937 55.59-55.59c0-1.358-.054-2.707-.151-4.048-2.003 28.845-26.094 51.705-55.439 51.705z" fill="#c2aacf"/></g><g><path d="m256 388.558c-31.479 0-57.089-25.61-57.089-57.09 0-7.802 1.543-15.367 4.585-22.485.326-.762 1.208-1.114 1.969-.79.762.326 1.115 1.208.79 1.969-2.883 6.742-4.344 13.911-4.344 21.305 0 29.825 24.264 54.09 54.089 54.09s54.089-24.265 54.089-54.09c0-18.464-9.275-35.468-24.81-45.486-2.514-1.621-5.878-.894-7.5 1.619-1.621 2.514-.894 5.879 1.62 7.5 12.423 8.012 19.84 21.607 19.84 36.367 0 23.842-19.397 43.239-43.239 43.239s-43.239-19.397-43.239-43.239c0-14.76 7.417-28.355 19.84-36.367 1.218-.785 2.057-1.998 2.363-3.415s.042-2.868-.744-4.085c-1.621-2.514-4.985-3.24-7.5-1.619-3.791 2.445-7.262 5.342-10.315 8.613-.565.604-1.514.638-2.12.072-.605-.565-.638-1.514-.072-2.12 3.222-3.451 6.883-6.508 10.882-9.086 3.905-2.517 9.129-1.39 11.647 2.515 1.22 1.892 1.629 4.145 1.154 6.345s-1.778 4.083-3.669 5.303c-11.562 7.457-18.466 20.109-18.466 33.846 0 22.188 18.051 40.239 40.239 40.239 22.187 0 40.239-18.051 40.239-40.239 0-13.737-6.903-26.389-18.466-33.846-3.904-2.518-5.032-7.743-2.515-11.647 2.518-3.902 7.741-5.031 11.647-2.515 16.396 10.573 26.185 28.52 26.185 48.008-.001 31.479-25.611 57.089-57.09 57.089z" fill="#211915"/></g></g><g><g><path d="m262.927 268.329v35.368c0 3.83-3.103 6.925-6.925 6.925-3.83 0-6.925-3.096-6.925-6.925v-35.368c0-3.823 3.096-6.925 6.925-6.925 3.823-.001 6.925 3.102 6.925 6.925z" fill="#c2aacf"/></g><g><path d="m262.927 268.329v27.439c0 3.823-3.103 6.925-6.925 6.925-3.83 0-6.925-3.103-6.925-6.925v-27.439c0-3.823 3.096-6.925 6.925-6.925 3.823-.001 6.925 3.102 6.925 6.925z" fill="#fff"/></g><g><path d="m256.002 312.123c-4.646 0-8.425-3.78-8.425-8.426v-35.368c0-4.646 3.78-8.425 8.425-8.425s8.425 3.78 8.425 8.425v35.368c0 4.646-3.78 8.426-8.425 8.426zm0-49.22c-2.992 0-5.425 2.434-5.425 5.425v35.368c0 2.992 2.434 5.426 5.425 5.426s5.425-2.434 5.425-5.426v-35.368c0-2.991-2.433-5.425-5.425-5.425z" fill="#211915"/></g></g></g></g><g><g><path d="m368.761 106.102c0 19.136-15.511 34.647-34.647 34.647h-150.228c-19.136 0-34.647-15.511-34.647-34.647 0-2.033.176-4.025.515-5.956 2.582-14.935 14.731-26.576 29.903-28.426-.522-2.799-.813-5.685-.813-8.633 0-25.695 20.83-46.525 46.525-46.525 20.274 0 37.506 12.976 43.883 31.076 5.875-4.588 13.261-7.325 21.291-7.325 18.357 0 33.366 14.277 34.559 32.329 2.873-.766 5.895-1.186 9.012-1.186 17.103 0 31.313 12.394 34.132 28.69.339 1.931.515 3.923.515 5.956z" fill="#c2aacf"/></g><g><path d="m368.246 100.146c-2.826 16.297-17.029 28.684-34.132 28.684h-150.228c-17.103 0-31.306-12.387-34.132-28.684 2.582-14.935 14.731-26.576 29.903-28.426-.522-2.799-.813-5.685-.813-8.633 0-25.695 20.83-46.525 46.525-46.525 20.274 0 37.506 12.976 43.883 31.076 5.875-4.588 13.261-7.325 21.291-7.325 18.357 0 33.366 14.277 34.559 32.329 2.873-.766 5.895-1.186 9.012-1.186 17.103-.001 31.313 12.393 34.132 28.69z" fill="#fff"/></g><g><path d="m334.114 142.249h-150.228c-19.932 0-36.147-16.215-36.147-36.146 0-2.091.181-4.182.538-6.216 2.599-15.03 14.675-26.929 29.644-29.431-.383-2.474-.576-4.946-.576-7.369 0-26.481 21.544-48.025 48.025-48.025 19.661 0 37.33 12.051 44.588 30.191 6.059-4.22 13.134-6.44 20.585-6.44 18.374 0 33.811 13.901 35.895 31.964 2.53-.545 5.105-.821 7.676-.821 17.633 0 32.609 12.589 35.61 29.935.356 2.03.537 4.122.537 6.212 0 19.93-16.215 36.146-36.147 36.146zm-108.744-124.188c-24.827 0-45.025 20.198-45.025 45.025 0 2.741.265 5.554.788 8.358.076.407-.02.828-.265 1.162s-.617.552-1.028.602c-14.378 1.753-26.142 12.935-28.607 27.192-.328 1.867-.493 3.784-.493 5.701 0 18.277 14.87 33.146 33.147 33.146h150.229c18.277 0 33.147-14.87 33.147-33.146 0-1.917-.166-3.834-.493-5.697-2.751-15.907-16.484-27.45-32.654-27.45-2.896 0-5.799.382-8.626 1.135-.435.115-.896.032-1.26-.23-.365-.261-.593-.672-.623-1.12-1.146-17.343-15.668-30.928-33.062-30.928-7.454 0-14.497 2.423-20.368 7.007-.381.298-.882.393-1.344.257-.463-.135-.833-.486-.994-.941-6.339-17.987-23.405-30.073-42.469-30.073z" fill="#211915"/></g></g><g><g><g><path d="m255.998 177.686c-.829 0-1.5-.671-1.5-1.5v-35.438c0-.829.671-1.5 1.5-1.5s1.5.671 1.5 1.5v35.438c0 .829-.671 1.5-1.5 1.5z" fill="#211915"/></g><g><path d="m371.877 238.331c-.829 0-1.5-.671-1.5-1.5v-72.863h-268.25c-.829 0-1.5-.671-1.5-1.5v-49.536c0-.829.671-1.5 1.5-1.5s1.5.671 1.5 1.5v48.036h268.25c.829 0 1.5.671 1.5 1.5v74.363c0 .828-.671 1.5-1.5 1.5z" fill="#211915"/></g><g><path d="m471.794 198.782h-99.917c-.829 0-1.5-.671-1.5-1.5s.671-1.5 1.5-1.5h99.917c.829 0 1.5.671 1.5 1.5s-.671 1.5-1.5 1.5z" fill="#211915"/></g><g><path d="m433.713 344.901h-52.306c-.829 0-1.5-.671-1.5-1.5s.671-1.5 1.5-1.5h50.806v-144.62c0-.829.671-1.5 1.5-1.5s1.5.671 1.5 1.5v146.12c0 .829-.671 1.5-1.5 1.5z" fill="#211915"/></g><g><path d="m478.794 285.115h-45.081c-.829 0-1.5-.671-1.5-1.5s.671-1.5 1.5-1.5h45.081c.829 0 1.5.671 1.5 1.5s-.671 1.5-1.5 1.5z" fill="#211915"/></g><g><path d="m368.761 454.599h-61.617c-.829 0-1.5-.671-1.5-1.5s.671-1.5 1.5-1.5h60.117v-45.914c0-.829.671-1.5 1.5-1.5h63.452v-60.784c0-.829.671-1.5 1.5-1.5s1.5.671 1.5 1.5v62.284c0 .829-.671 1.5-1.5 1.5h-63.452v45.914c0 .829-.671 1.5-1.5 1.5z" fill="#211915"/></g><g><path d="m194.411 193.37h-36.809c-.829 0-1.5-.671-1.5-1.5v-29.402c0-.829.671-1.5 1.5-1.5s1.5.671 1.5 1.5v27.902h35.309c.829 0 1.5.671 1.5 1.5s-.672 1.5-1.5 1.5z" fill="#211915"/></g><g><path d="m157.602 224.221h-106.143c-.829 0-1.5-.671-1.5-1.5s.671-1.5 1.5-1.5h104.643v-29.351c0-.829.671-1.5 1.5-1.5s1.5.671 1.5 1.5v30.851c0 .828-.672 1.5-1.5 1.5z" fill="#211915"/></g><g><path d="m94.785 304.193h-54.017c-.829 0-1.5-.671-1.5-1.5s.671-1.5 1.5-1.5h52.517v-78.472c0-.829.671-1.5 1.5-1.5s1.5.671 1.5 1.5v79.972c0 .828-.671 1.5-1.5 1.5z" fill="#211915"/></g><g><path d="m140.036 448.578c-.829 0-1.5-.671-1.5-1.5v-104.928h-43.75c-.829 0-1.5-.671-1.5-1.5v-37.957c0-.829.671-1.5 1.5-1.5s1.5.671 1.5 1.5v36.457h43.75c.829 0 1.5.671 1.5 1.5v106.428c0 .828-.672 1.5-1.5 1.5z" fill="#211915"/></g><g><path d="m140.036 395.124h-51.44c-.829 0-1.5-.671-1.5-1.5s.671-1.5 1.5-1.5h51.44c.829 0 1.5.671 1.5 1.5s-.672 1.5-1.5 1.5z" fill="#211915"/></g><g><path d="m217.753 468.709c-.829 0-1.5-.671-1.5-1.5v-52.206c0-.829.671-1.5 1.5-1.5s1.5.671 1.5 1.5v52.206c0 .829-.671 1.5-1.5 1.5z" fill="#211915"/></g><g><path d="m412.471 198.782c-.829 0-1.5-.671-1.5-1.5v-61.975c0-.829.671-1.5 1.5-1.5s1.5.671 1.5 1.5v61.975c0 .828-.672 1.5-1.5 1.5z" fill="#211915"/></g></g><g><g><g><path d="m395.51 343.4c0 7.79-6.31 14.11-14.1 14.11s-14.11-6.32-14.11-14.11c0-.94.09-1.86.27-2.75 1.28-6.48 6.99-11.36 13.84-11.36s12.55 4.88 13.83 11.36c.18.89.27 1.81.27 2.75z" fill="#c2aacf"/></g><g><path d="m395.24 340.65c-1.28 6.48-6.98 11.36-13.83 11.36s-12.56-4.88-13.84-11.36c1.28-6.48 6.99-11.36 13.84-11.36s12.55 4.88 13.83 11.36z" fill="#fff"/></g><g><path d="m381.41 359.01c-8.607 0-15.61-7.002-15.61-15.61 0-1.037.101-2.062.3-3.047.445-2.25 1.408-4.42 2.786-6.27.495-.664 1.435-.801 2.099-.307.664.495.802 1.435.307 2.099-1.128 1.515-1.885 3.219-2.25 5.066-.161.796-.242 1.621-.242 2.459 0 6.953 5.657 12.61 12.61 12.61 6.947 0 12.6-5.657 12.6-12.61 0-.839-.081-1.665-.24-2.453-1.164-5.888-6.361-10.157-12.36-10.157-.829 0-1.5-.671-1.5-1.5s.671-1.5 1.5-1.5c7.427 0 13.863 5.286 15.302 12.569.197.977.298 2.002.298 3.041 0 8.607-6.998 15.61-15.6 15.61z" fill="#211915"/></g></g><g><g><path d="m385.982 236.831c0 7.79-6.31 14.11-14.1 14.11s-14.11-6.32-14.11-14.11c0-.94.09-1.86.27-2.75 1.28-6.48 6.99-11.36 13.84-11.36s12.55 4.88 13.83 11.36c.18.89.27 1.81.27 2.75z" fill="#c2aacf"/></g><g><path d="m385.712 234.081c-1.28 6.48-6.98 11.36-13.83 11.36s-12.56-4.88-13.84-11.36c1.28-6.48 6.99-11.36 13.84-11.36s12.55 4.88 13.83 11.36z" fill="#fff"/></g><g><path d="m371.882 252.44c-8.607 0-15.61-7.002-15.61-15.61 0-1.04.101-2.064.3-3.047.444-2.25 1.408-4.42 2.786-6.27.496-.666 1.435-.801 2.099-.307.665.495.802 1.435.307 2.099-1.128 1.514-1.885 3.219-2.25 5.065-.161.794-.242 1.62-.242 2.459 0 6.953 5.657 12.61 12.61 12.61 6.948 0 12.6-5.657 12.6-12.61 0-.84-.081-1.665-.24-2.453-1.163-5.888-6.36-10.157-12.36-10.157-.829 0-1.5-.671-1.5-1.5s.671-1.5 1.5-1.5c7.428 0 13.863 5.286 15.302 12.569.197.976.298 2.001.298 3.041 0 8.609-6.998 15.611-15.6 15.611z" fill="#211915"/></g></g><g><g><path d="m485.899 197.282c0 7.79-6.31 14.11-14.1 14.11s-14.11-6.32-14.11-14.11c0-.94.09-1.86.27-2.75 1.28-6.48 6.99-11.36 13.84-11.36s12.55 4.88 13.83 11.36c.18.89.27 1.81.27 2.75z" fill="#c2aacf"/></g><g><path d="m485.629 194.532c-1.28 6.48-6.98 11.36-13.83 11.36s-12.56-4.88-13.84-11.36c1.28-6.48 6.99-11.36 13.84-11.36s12.55 4.88 13.83 11.36z" fill="#fff"/></g><g><path d="m471.799 212.892c-8.607 0-15.61-7.003-15.61-15.61 0-1.04.101-2.064.3-3.047.444-2.249 1.408-4.419 2.785-6.27.495-.664 1.435-.801 2.099-.307.664.495.802 1.435.307 2.099-1.128 1.515-1.885 3.219-2.25 5.065-.161.794-.242 1.62-.242 2.459 0 6.953 5.657 12.61 12.61 12.61 6.948 0 12.6-5.657 12.6-12.61 0-.838-.081-1.663-.24-2.453-1.164-5.888-6.361-10.157-12.36-10.157-.829 0-1.5-.671-1.5-1.5s.671-1.5 1.5-1.5c7.427 0 13.863 5.286 15.302 12.569.197.979.298 2.004.298 3.041.001 8.608-6.997 15.611-15.599 15.611z" fill="#211915"/></g></g><g><g><path d="m426.576 135.306c0 7.79-6.31 14.11-14.1 14.11s-14.11-6.32-14.11-14.11c0-.94.09-1.86.27-2.75 1.28-6.48 6.99-11.36 13.84-11.36s12.55 4.88 13.83 11.36c.18.89.27 1.81.27 2.75z" fill="#c2aacf"/></g><g><path d="m426.306 132.556c-1.28 6.48-6.98 11.36-13.83 11.36s-12.56-4.88-13.84-11.36c1.28-6.48 6.99-11.36 13.84-11.36s12.55 4.88 13.83 11.36z" fill="#fff"/></g><g><path d="m412.476 150.917c-8.607 0-15.61-7.002-15.61-15.61 0-1.037.101-2.062.3-3.047.445-2.25 1.408-4.42 2.786-6.271.495-.664 1.436-.802 2.099-.307.664.495.802 1.435.307 2.099-1.128 1.515-1.885 3.22-2.25 5.066-.161.795-.242 1.621-.242 2.459 0 6.953 5.657 12.61 12.61 12.61 6.947 0 12.6-5.657 12.6-12.61 0-.84-.081-1.666-.24-2.452-1.163-5.889-6.36-10.158-12.359-10.158-.829 0-1.5-.671-1.5-1.5s.671-1.5 1.5-1.5c7.428 0 13.863 5.286 15.301 12.57.197.975.298 2 .298 3.041 0 8.607-6.998 15.61-15.6 15.61z" fill="#211915"/></g></g><g><g><path d="m208.515 191.87c0 7.79-6.31 14.11-14.1 14.11s-14.11-6.32-14.11-14.11c0-.94.09-1.86.27-2.75 1.28-6.48 6.99-11.36 13.84-11.36s12.55 4.88 13.83 11.36c.18.89.27 1.81.27 2.75z" fill="#c2aacf"/></g><g><path d="m208.245 189.12c-1.28 6.48-6.98 11.36-13.83 11.36s-12.56-4.88-13.84-11.36c1.28-6.48 6.99-11.36 13.84-11.36s12.55 4.88 13.83 11.36z" fill="#fff"/></g><g><path d="m194.416 207.479c-8.607 0-15.61-7.002-15.61-15.61 0-1.04.101-2.064.3-3.047.444-2.249 1.408-4.419 2.785-6.27.496-.664 1.435-.801 2.099-.307.664.495.802 1.435.307 2.099-1.128 1.515-1.885 3.219-2.25 5.065-.161.794-.242 1.62-.242 2.459 0 6.953 5.657 12.61 12.61 12.61 6.948 0 12.6-5.657 12.6-12.61 0-.838-.081-1.663-.24-2.453-1.164-5.888-6.361-10.157-12.36-10.157-.829 0-1.5-.671-1.5-1.5s.671-1.5 1.5-1.5c7.427 0 13.863 5.286 15.302 12.569.197.979.298 2.004.298 3.041.001 8.609-6.997 15.611-15.599 15.611z" fill="#211915"/></g></g><g><g><path d="m116.232 112.931c0 7.79-6.31 14.11-14.1 14.11s-14.11-6.32-14.11-14.11c0-.94.09-1.86.27-2.75 1.28-6.48 6.99-11.36 13.84-11.36s12.55 4.88 13.83 11.36c.18.89.27 1.81.27 2.75z" fill="#c2aacf"/></g><g><path d="m115.962 110.181c-1.28 6.48-6.98 11.36-13.83 11.36s-12.56-4.88-13.84-11.36c1.28-6.48 6.99-11.36 13.84-11.36s12.55 4.88 13.83 11.36z" fill="#fff"/></g><g><path d="m102.132 128.542c-8.607 0-15.61-7.002-15.61-15.61 0-1.037.101-2.062.3-3.047.445-2.25 1.408-4.42 2.786-6.271.495-.664 1.435-.801 2.099-.307.664.495.802 1.435.307 2.099-1.128 1.515-1.885 3.22-2.25 5.066-.161.795-.242 1.621-.242 2.459 0 6.953 5.657 12.61 12.61 12.61 6.948 0 12.6-5.657 12.6-12.61 0-.838-.081-1.664-.24-2.453-1.164-5.888-6.361-10.157-12.36-10.157-.829 0-1.5-.671-1.5-1.5s.671-1.5 1.5-1.5c7.427 0 13.863 5.286 15.302 12.57.197.978.298 2.003.298 3.041 0 8.607-6.998 15.61-15.6 15.61z" fill="#211915"/></g></g><g><g><path d="m65.564 222.72c0 7.79-6.31 14.11-14.1 14.11s-14.11-6.32-14.11-14.11c0-.94.09-1.86.27-2.75 1.28-6.48 6.99-11.36 13.84-11.36s12.55 4.88 13.83 11.36c.18.891.27 1.81.27 2.75z" fill="#c2aacf"/></g><g><path d="m65.294 219.97c-1.28 6.48-6.98 11.36-13.83 11.36s-12.56-4.88-13.84-11.36c1.28-6.48 6.99-11.36 13.84-11.36 6.85.001 12.55 4.881 13.83 11.36z" fill="#fff"/></g><g><path d="m51.464 238.331c-8.607 0-15.61-7.002-15.61-15.61 0-1.04.101-2.065.3-3.048.444-2.249 1.408-4.419 2.786-6.27.495-.665 1.436-.801 2.099-.307.665.495.802 1.435.307 2.099-1.128 1.515-1.886 3.219-2.25 5.066-.161.794-.242 1.619-.242 2.459 0 6.953 5.657 12.61 12.61 12.61 6.948 0 12.6-5.657 12.6-12.61 0-.84-.081-1.666-.24-2.452-1.163-5.889-6.36-10.158-12.36-10.158-.829 0-1.5-.671-1.5-1.5s.671-1.5 1.5-1.5c7.428 0 13.863 5.286 15.302 12.57.197.975.298 2 .298 3.041 0 8.607-6.998 15.61-15.6 15.61z" fill="#211915"/></g></g><g><g><path d="m54.873 302.693c0 7.79-6.31 14.11-14.1 14.11s-14.11-6.32-14.11-14.11c0-.94.09-1.86.27-2.75 1.28-6.48 6.99-11.36 13.84-11.36s12.55 4.88 13.83 11.36c.18.89.27 1.81.27 2.75z" fill="#c2aacf"/></g><g><path d="m54.603 299.943c-1.28 6.48-6.98 11.36-13.83 11.36s-12.56-4.88-13.84-11.36c1.28-6.48 6.99-11.36 13.84-11.36s12.55 4.88 13.83 11.36z" fill="#fff"/></g><g><path d="m40.773 318.303c-8.607 0-15.61-7.002-15.61-15.61 0-1.04.101-2.065.3-3.048.444-2.249 1.408-4.419 2.786-6.27.495-.665 1.436-.801 2.099-.307.665.495.802 1.435.307 2.099-1.128 1.515-1.886 3.219-2.25 5.066-.161.794-.242 1.619-.242 2.459 0 6.953 5.657 12.61 12.61 12.61 6.948 0 12.6-5.657 12.6-12.61 0-.84-.081-1.666-.24-2.452-1.163-5.889-6.36-10.158-12.36-10.158-.829 0-1.5-.671-1.5-1.5s.671-1.5 1.5-1.5c7.428 0 13.863 5.286 15.302 12.57.197.975.298 2 .298 3.041 0 8.607-6.998 15.61-15.6 15.61z" fill="#211915"/></g></g><g><g><path d="m102.701 393.624c0 7.79-6.31 14.11-14.1 14.11s-14.11-6.32-14.11-14.11c0-.94.09-1.86.27-2.75 1.28-6.48 6.99-11.36 13.84-11.36s12.55 4.88 13.83 11.36c.179.89.27 1.81.27 2.75z" fill="#c2aacf"/></g><g><path d="m102.43 390.874c-1.28 6.48-6.98 11.36-13.83 11.36s-12.56-4.88-13.84-11.36c1.28-6.48 6.99-11.36 13.84-11.36 6.851 0 12.551 4.88 13.83 11.36z" fill="#fff"/></g><g><path d="m88.601 409.234c-8.607 0-15.61-7.003-15.61-15.61 0-1.04.101-2.064.3-3.047.444-2.249 1.408-4.419 2.785-6.27.494-.664 1.436-.801 2.099-.307.664.495.802 1.435.307 2.099-1.128 1.515-1.885 3.219-2.25 5.065-.161.794-.242 1.62-.242 2.459 0 6.953 5.657 12.61 12.61 12.61 6.948 0 12.6-5.657 12.6-12.61 0-.838-.081-1.663-.24-2.453-1.164-5.888-6.361-10.157-12.36-10.157-.829 0-1.5-.671-1.5-1.5s.671-1.5 1.5-1.5c7.427 0 13.863 5.286 15.302 12.569.197.979.298 2.004.298 3.041.001 8.608-6.997 15.611-15.599 15.611z" fill="#211915"/></g></g><g><g><path d="m154.141 447.078c0 7.79-6.31 14.11-14.1 14.11s-14.11-6.32-14.11-14.11c0-.94.09-1.86.27-2.75 1.28-6.48 6.99-11.36 13.84-11.36s12.55 4.88 13.83 11.36c.18.89.27 1.81.27 2.75z" fill="#c2aacf"/></g><g><path d="m153.871 444.328c-1.28 6.48-6.98 11.36-13.83 11.36s-12.56-4.88-13.84-11.36c1.28-6.48 6.99-11.36 13.84-11.36s12.55 4.88 13.83 11.36z" fill="#fff"/></g><g><path d="m140.041 462.688c-8.607 0-15.61-7.003-15.61-15.61 0-1.037.101-2.062.3-3.047.445-2.25 1.408-4.42 2.786-6.27.495-.664 1.435-.802 2.099-.307s.802 1.435.307 2.099c-1.128 1.515-1.885 3.219-2.25 5.066-.161.796-.242 1.621-.242 2.459 0 6.953 5.657 12.61 12.61 12.61 6.947 0 12.6-5.657 12.6-12.61 0-.84-.081-1.665-.24-2.453-1.163-5.888-6.36-10.157-12.359-10.157-.829 0-1.5-.671-1.5-1.5s.671-1.5 1.5-1.5c7.428 0 13.863 5.286 15.301 12.569.197.976.298 2.001.298 3.041 0 8.607-6.998 15.61-15.6 15.61z" fill="#211915"/></g></g><g><g><path d="m231.858 467.209c0 7.79-6.31 14.11-14.1 14.11s-14.11-6.32-14.11-14.11c0-.94.09-1.86.27-2.75 1.28-6.48 6.99-11.36 13.84-11.36s12.55 4.88 13.83 11.36c.18.89.27 1.81.27 2.75z" fill="#c2aacf"/></g><g><path d="m231.588 464.459c-1.28 6.48-6.98 11.36-13.83 11.36s-12.56-4.88-13.84-11.36c1.28-6.48 6.99-11.36 13.84-11.36s12.55 4.88 13.83 11.36z" fill="#fff"/></g><g><path d="m217.758 482.819c-8.607 0-15.61-7.002-15.61-15.61 0-1.04.101-2.064.3-3.047.444-2.249 1.408-4.419 2.785-6.27.495-.664 1.435-.802 2.099-.307s.802 1.435.307 2.099c-1.128 1.515-1.885 3.219-2.25 5.065-.161.794-.242 1.62-.242 2.459 0 6.953 5.657 12.61 12.61 12.61 6.948 0 12.6-5.657 12.6-12.61 0-.838-.081-1.663-.24-2.453-1.164-5.888-6.361-10.157-12.36-10.157-.829 0-1.5-.671-1.5-1.5s.671-1.5 1.5-1.5c7.427 0 13.863 5.286 15.302 12.569.197.979.298 2.004.298 3.041.001 8.608-6.997 15.611-15.599 15.611z" fill="#211915"/></g></g><g><g><path d="m492.899 283.307c0 7.79-6.31 14.11-14.1 14.11s-14.11-6.32-14.11-14.11c0-.94.09-1.86.27-2.75 1.28-6.48 6.99-11.36 13.84-11.36s12.55 4.88 13.83 11.36c.18.89.27 1.81.27 2.75z" fill="#c2aacf"/></g><g><path d="m492.629 280.557c-1.28 6.48-6.98 11.36-13.83 11.36s-12.56-4.88-13.84-11.36c1.28-6.48 6.99-11.36 13.84-11.36s12.55 4.88 13.83 11.36z" fill="#fff"/></g><g><path d="m478.799 298.917c-8.607 0-15.61-7.003-15.61-15.61 0-1.04.101-2.064.3-3.047.444-2.249 1.408-4.419 2.785-6.27.495-.664 1.436-.802 2.099-.307.664.495.802 1.435.307 2.099-1.128 1.515-1.885 3.219-2.25 5.065-.161.794-.242 1.62-.242 2.459 0 6.953 5.657 12.61 12.61 12.61 6.948 0 12.6-5.657 12.6-12.61 0-.838-.081-1.663-.24-2.453-1.164-5.888-6.361-10.157-12.36-10.157-.829 0-1.5-.671-1.5-1.5s.671-1.5 1.5-1.5c7.427 0 13.863 5.286 15.302 12.569.197.979.298 2.004.298 3.041.001 8.609-6.997 15.611-15.599 15.611z" fill="#211915"/></g></g><g><g><path d="m321.249 453.099c0 7.79-6.31 14.11-14.1 14.11s-14.11-6.32-14.11-14.11c0-.94.09-1.86.27-2.75 1.28-6.48 6.99-11.36 13.84-11.36s12.55 4.88 13.83 11.36c.18.89.27 1.81.27 2.75z" fill="#c2aacf"/></g><g><path d="m320.979 450.349c-1.28 6.48-6.98 11.36-13.83 11.36s-12.56-4.88-13.84-11.36c1.28-6.48 6.99-11.36 13.84-11.36s12.55 4.88 13.83 11.36z" fill="#fff"/></g><g><path d="m307.149 468.709c-8.607 0-15.61-7.002-15.61-15.61 0-1.04.101-2.064.3-3.047.444-2.249 1.408-4.419 2.785-6.27.495-.664 1.435-.802 2.099-.307s.802 1.435.307 2.099c-1.128 1.515-1.885 3.22-2.25 5.066-.161.794-.242 1.62-.242 2.459 0 6.953 5.657 12.61 12.61 12.61 6.948 0 12.6-5.657 12.6-12.61 0-.838-.081-1.663-.24-2.453-1.164-5.888-6.361-10.157-12.36-10.157-.829 0-1.5-.671-1.5-1.5s.671-1.5 1.5-1.5c7.427 0 13.863 5.286 15.302 12.569.197.979.298 2.004.298 3.041.002 8.608-6.997 15.61-15.599 15.61z" fill="#211915"/></g></g></g></g></g></svg>