<svg id="Capa_1" enable-background="new 0 0 512 512" height="512" viewBox="0 0 512 512" width="512" xmlns="http://www.w3.org/2000/svg"><g><path d="m226 3.75-75.981 36.619c-5.658 2.727-5.658 10.786 0 13.513l75.981 36.618h22.5c4.142 0 7.5-3.358 7.5-7.5v-71.75c0-4.142-3.358-7.5-7.5-7.5z" fill="#f9b348"/><path d="m226 3.75v86.75h-211c-4.142 0-7.5-3.358-7.5-7.5v-71.75c0-4.142 3.358-7.5 7.5-7.5z" fill="#f3da49"/><path d="m267.417 120.5-90 43.375 90 43.375h22.5c4.142 0 7.5-3.358 7.5-7.5v-71.75c0-4.142-3.358-7.5-7.5-7.5z" fill="#28abfa"/><path d="m267.417 120.5v86.75h-128.167c-4.142 0-7.5-3.358-7.5-7.5v-71.75c0-4.142 3.358-7.5 7.5-7.5z" fill="#14cfff"/><path d="m474.5 237.25-90 43.375 90 43.375h22.5c4.142 0 7.5-3.358 7.5-7.5v-71.75c0-4.142-3.358-7.5-7.5-7.5z" fill="#793bcc"/><path d="m474.5 237.25v86.75h-293.833c-4.142 0-7.5-3.358-7.5-7.5v-71.75c0-4.142 3.358-7.5 7.5-7.5z" fill="#9255e3"/><path d="m474.5 354-90 43.375 90 43.375h22.5c4.142 0 7.5-3.358 7.5-7.5v-71.75c0-4.142-3.358-7.5-7.5-7.5z" fill="#61ce5b"/><path d="m474.5 354v86.75h-211c-4.142 0-7.5-3.358-7.5-7.5v-71.75c0-4.142 3.358-7.5 7.5-7.5z" fill="#94e368"/><path d="m504.5 463.25h-497c-4.142 0-7.5 3.358-7.5 7.5v30c0 4.142 3.358 7.5 7.5 7.5s7.5-3.358 7.5-7.5v-22.5h26.417v7.5c0 4.142 3.358 7.5 7.5 7.5s7.5-3.358 7.5-7.5v-7.5h26.417v22.5c0 4.142 3.358 7.5 7.5 7.5s7.5-3.358 7.5-7.5v-22.5h26.417v7.5c0 4.142 3.358 7.5 7.5 7.5s7.5-3.358 7.5-7.5v-7.5h26.417v22.5c0 4.142 3.358 7.5 7.5 7.5s7.5-3.358 7.5-7.5v-22.5h26.417v7.5c0 4.142 3.358 7.5 7.5 7.5s7.5-3.358 7.5-7.5v-7.5h26.415v22.5c0 4.142 3.358 7.5 7.5 7.5s7.5-3.358 7.5-7.5v-22.5h26.417v7.5c0 4.142 3.358 7.5 7.5 7.5s7.5-3.358 7.5-7.5v-7.5h26.417v22.5c0 4.142 3.358 7.5 7.5 7.5s7.5-3.358 7.5-7.5v-22.5h26.417v7.5c0 4.142 3.358 7.5 7.5 7.5s7.5-3.358 7.5-7.5v-7.5h26.417v22.5c0 4.142 3.358 7.5 7.5 7.5s7.5-3.358 7.5-7.5v-22.5h26.417v7.5c0 4.142 3.358 7.5 7.5 7.5s7.5-3.358 7.5-7.5v-7.5h26.415v22.5c0 4.142 3.358 7.5 7.5 7.5s7.5-3.358 7.5-7.5v-30c0-4.142-3.358-7.5-7.5-7.5z" fill="#c4f3ff"/></g></svg>