<svg id="Layer_1" enable-background="new 0 0 512 512" height="512" viewBox="0 0 512 512" width="512" xmlns="http://www.w3.org/2000/svg"><g><g id="XMLID_345_"><g id="XMLID_512_"><g id="XMLID_513_"><g id="XMLID_514_"><g id="XMLID_515_"><g id="XMLID_516_"><g id="XMLID_517_"><g id="XMLID_518_"><g id="XMLID_519_"><g id="XMLID_520_"><g id="XMLID_521_"><g id="XMLID_522_"><g id="XMLID_523_"><g id="XMLID_524_"><circle id="XMLID_525_" cx="256" cy="256" fill="#ff1a56" r="256"/></g></g></g></g></g></g></g></g></g></g></g></g></g></g><path d="m270.85 511.56c134.472-7.693 241.15-119.161 241.15-255.56 0-18.191-1.911-35.934-5.519-53.052l-95.099-95.099s-60.253-14.66-69.383-8.099l-65.29-63.746-35.209 199.746-32.744.327-24.172-24.042-78.488 78.478 157.269 157.455-28.079 28.027z" fill="#d60359"/><g><g><path d="m235.286 36.004v193.605h-83.396v37.851h83.396v208.536h41.429v-439.992z" fill="#f2f2f2"/><circle cx="142.597" cy="248.535" fill="#ffa836" r="55.644"/></g><g><path d="m360.11 163.275v-37.85h-83.4v-89.425h-20.71v440h20.71v-104.356h83.4v-37.85h-83.4v-170.519z" fill="#d8d8d8"/><circle cx="369.403" cy="352.719" fill="#1eb4f7" r="55.644"/><ellipse cx="369.403" cy="144.35" fill="#fcda4f" rx="55.644" ry="55.644" transform="matrix(.276 -.961 .961 .276 128.809 459.644)"/></g></g></g></svg>