<svg id="Capa_1" enable-background="new 0 0 512 512" height="512" viewBox="0 0 512 512" width="512" xmlns="http://www.w3.org/2000/svg"><g><path d="m346 361h-240c-8.401 0-15 6.599-15 15v121c0 8.399 6.599 15 15 15h240c8.401 0 15-6.601 15-15v-121c0-8.401-6.599-15-15-15z" fill="#76e2f8"/><path d="m361 436v61c0 8.399-6.599 15-15 15h-240c-8.401 0-15-6.601-15-15v-61z" fill="#73bcff"/><path d="m346 181h-300c-8.401 0-15 6.599-15 15v120c0 8.399 6.599 15 15 15h300c8.401 0 15-6.601 15-15v-120c0-8.401-6.599-15-15-15z" fill="#76e2f8"/><path d="m361 256v60c0 8.399-6.599 15-15 15h-300c-8.401 0-15-6.601-15-15v-60z" fill="#73bcff"/><path d="m346 0h-240c-8.401 0-15 6.599-15 15v121c0 8.399 6.599 15 15 15h240c8.401 0 15-6.601 15-15v-121c0-8.401-6.599-15-15-15z" fill="#76e2f8"/><path d="m361 76v60c0 8.399-6.599 15-15 15h-240c-8.401 0-15-6.601-15-15v-60z" fill="#73bcff"/><path d="m451 106v120c0 8.399-6.599 15-15 15s-15-6.601-15-15v-120c0-8.401 6.599-15 15-15s15 6.599 15 15z" fill="#47568c"/><path d="m451 286v120c0 8.399-6.599 15-15 15s-15-6.601-15-15v-120c0-8.401 6.599-15 15-15s15 6.599 15 15z" fill="#47568c"/><g fill="#61729b"><path d="m301 76c0 8.399-6.599 15-15 15h-60c-8.401 0-15-6.601-15-15 0-8.401 6.599-15 15-15h60c8.401 0 15 6.599 15 15z"/><path d="m301 256c0 8.399-6.599 15-15 15h-120c-8.401 0-15-6.601-15-15 0-8.401 6.599-15 15-15h120c8.401 0 15 6.599 15 15z"/><path d="m301 436c0 8.399-6.599 15-15 15h-60c-8.401 0-15-6.601-15-15 0-8.401 6.599-15 15-15h60c8.401 0 15 6.599 15 15z"/></g><path d="m436 31c-24.901 0-45 20.099-45 45 0 24.899 20.099 45 45 45s45-20.101 45-45c0-24.901-20.099-45-45-45z" fill="#ff641a"/><path d="m436 391c-24.901 0-45 20.099-45 45 0 24.899 20.099 45 45 45s45-20.101 45-45c0-24.901-20.099-45-45-45z" fill="#ff641a"/><circle cx="166" cy="436" fill="#61729b" r="15"/><circle cx="106" cy="256" fill="#61729b" r="15"/><circle cx="166" cy="76" fill="#61729b" r="15"/><path d="m151 436h30c0 8.399-6.599 15-15 15s-15-6.601-15-15z" fill="#47568c"/><path d="m211 436h90c0 8.399-6.599 15-15 15h-60c-8.401 0-15-6.601-15-15z" fill="#47568c"/><path d="m481 436c0 24.899-20.099 45-45 45s-45-20.101-45-45z" fill="#f03800"/><path d="m151 76h30c0 8.399-6.599 15-15 15s-15-6.601-15-15z" fill="#47568c"/><path d="m211 76h90c0 8.399-6.599 15-15 15h-60c-8.401 0-15-6.601-15-15z" fill="#47568c"/><path d="m481 76c0 24.899-20.099 45-45 45s-45-20.101-45-45z" fill="#f03800"/><path d="m91 256h30c0 8.399-6.599 15-15 15s-15-6.601-15-15z" fill="#47568c"/><path d="m151 256h150c0 8.399-6.599 15-15 15h-120c-8.401 0-15-6.601-15-15z" fill="#47568c"/><path d="m436 211c-24.901 0-45 20.099-45 45 0 24.899 20.099 45 45 45s45-20.101 45-45c0-24.901-20.099-45-45-45z" fill="#ff641a"/><path d="m481 256c0 24.899-20.099 45-45 45s-45-20.101-45-45z" fill="#f03800"/></g></svg>