<?xml version="1.0" encoding="iso-8859-1"?>
<!-- Generator: Adobe Illustrator 19.0.0, SVG Export Plug-In . SVG Version: 6.00 Build 0)  -->
<svg version="1.1" id="Capa_1" xmlns="http://www.w3.org/2000/svg" xmlns:xlink="http://www.w3.org/1999/xlink" x="0px" y="0px"
	 viewBox="0 0 459 459" style="enable-background:new 0 0 459 459;" xml:space="preserve">
<rect x="182.35" y="176.6" style="fill:#ED664C;" width="227.4" height="104.9"/>
<g>
	<rect x="182.35" y="343.5" style="fill:#FDC75B;" width="175.3" height="104.9"/>
	<rect x="182.35" y="9.6" style="fill:#FDC75B;" width="175.3" height="104.9"/>
	<circle style="fill:#FDC75B;" cx="84.25" cy="55.8" r="35"/>
</g>
<g>
	<circle style="fill:#ED664C;" cx="84.25" cy="229" r="35"/>
	<circle style="fill:#ED664C;" cx="84.25" cy="402.2" r="35"/>
</g>
<path d="M129.55,229c0-21.3-15-39.3-35-43.8V99.6c20-4.6,34.8-22.5,34.8-43.8c0-24.8-20.2-45-45-45s-44.9,20.2-44.9,45
	c0,21.3,15.1,39.3,35.1,43.8v85.6c-20,4.6-35,22.5-35,43.8s15,39.3,35,43.8v85.6c-20,4.6-35.1,22.5-35.1,43.8
	c0,24.8,20.1,45,44.9,45s45.1-20.2,45.1-45c0-21.3-14.8-39.3-34.8-43.8v-85.6C114.55,268.3,129.55,250.3,129.55,229z M59.35,55.8
	c0-13.8,11.2-25,25-25s25,11.2,25,25s-11.2,25-25,25S59.35,69.6,59.35,55.8z M109.25,402.2c0,13.8-11.2,25-25,25s-25-11.2-25-25
	s11.2-25,25-25S109.25,388.4,109.25,402.2z M84.25,254c-13.8,0-25-11.2-25-25s11.2-25,25-25s25,11.2,25,25
	C109.25,242.8,98.05,254,84.25,254z"/>
<path d="M357.55,0h-175c-5.5,0-10,4.5-10,10v105c0,5.5,4.5,10,10,10h175c5.5,0,10-4.5,10-10V10C367.55,4.5,363.05,0,357.55,0z
	 M347.55,104h-155V20h155V104z"/>
<path d="M409.55,167h-227c-5.5,0-10,4.5-10,10v105c0,5.5,4.5,10,10,10h227c5.5,0,10-4.5,10-10V177
	C419.55,171.5,415.05,167,409.55,167z M399.55,271h-207v-84h207V271z"/>
<path d="M357.55,334h-175c-5.5,0-10,4.5-10,10v105c0,5.5,4.5,10,10,10h175c5.5,0,10-4.5,10-10V344
	C367.55,338.5,363.05,334,357.55,334z M347.55,438h-155v-84h155V438z"/>
<path d="M213.65,56h60.5c5.5,0,10-4.5,10-10s-4.5-10-10-10h-60.5c-5.5,0-10,4.5-10,10S208.15,56,213.65,56z"/>
<path d="M213.65,88h112.7c5.5,0,10-4.5,10-10s-4.5-10-10-10h-112.7c-5.5,0-10,4.5-10,10S208.15,88,213.65,88z"/>
<path d="M213.65,223h60.5c5.5,0,10-4.5,10-10s-4.5-10-10-10h-60.5c-5.5,0-10,4.5-10,10S208.15,223,213.65,223z"/>
<path d="M213.65,255h112.7c5.5,0,10-4.5,10-10s-4.5-10-10-10h-112.7c-5.5,0-10,4.5-10,10S208.15,255,213.65,255z"/>
<path d="M213.65,390h60.5c5.5,0,10-4.5,10-10s-4.5-10-10-10h-60.5c-5.5,0-10,4.5-10,10S208.15,390,213.65,390z"/>
<path d="M213.65,422h112.7c5.5,0,10-4.5,10-10s-4.5-10-10-10h-112.7c-5.5,0-10,4.5-10,10S208.15,422,213.65,422z"/>
<g>
</g>
<g>
</g>
<g>
</g>
<g>
</g>
<g>
</g>
<g>
</g>
<g>
</g>
<g>
</g>
<g>
</g>
<g>
</g>
<g>
</g>
<g>
</g>
<g>
</g>
<g>
</g>
<g>
</g>
</svg>
