<svg xmlns="http://www.w3.org/2000/svg" width="1068.926" height="1040.427" viewBox="0 0 1068.926 1040.427"><defs><style>.a,.e{fill:#fff;}.a{opacity:0.17;}.b,.i{fill:#d3e3eb;}.b,.v{opacity:0.43;}.c{fill:#b0c4cb;}.d{fill:#91adb7;}.f{fill:#02549d;}.g{fill:#029d84;}.h,.p,.t{fill:#476488;}.h{opacity:0.25;}.j{fill:#ffe2ad;}.k,.r{fill:#2c3c4d;}.l{fill:#1f2e40;}.m,.o{fill:#fad592;}.n{fill:#8ba6af;}.o{opacity:0.67;}.p{opacity:0.29;}.q{fill:#47886a;}.r{opacity:0.48;}.s{fill:#4772a6;}.u{fill:#293951;}.w,.x,.y{fill:none;stroke:#fff;stroke-width:2px;}.w,.x{stroke-miterlimit:10;}.x,.y{stroke-linecap:round;}.y{stroke-linejoin:round;}</style></defs><g transform="translate(-896.047 -233.423)"><path class="a" d="M662.56,10.229C766.084,61.674,881.04,134.712,907.08,231.885c26.675,96.538-35.567,216.575-113.686,304.221-78.119,87.011-172.752,142.266-279.451,194.346-106.7,52.715-225.467,102.254-314.383,69.228C111.279,767.289,53.483,651.7,3.309,543.092c-50.174-109.24-92.727-212.129-64.147-289.613C-31.623,175.995,68.726,123.915,153.2,69.3,237.667,15.31,306.26-41.85,386.284-55.823,466.944-69.8,559.036-41.215,662.56,10.229Z" transform="matrix(0.995, 0.105, -0.105, 0.995, 1050.417, 372.48)"/><g transform="translate(935.592 198.147)"><path class="b" d="M1232.574,373.479c0-9.682-199.1-17.53-444.7-17.53s-444.7,7.849-444.7,17.53,199.1,17.533,444.7,17.533S1232.574,383.163,1232.574,373.479Z" transform="translate(-343.172 414.786)"/><g transform="translate(196.128 296.246)"><rect class="c" width="20.23" height="193.466" transform="translate(83.234 281.109)"/><rect class="d" width="20.23" height="27.198" transform="translate(83.234 281.109)"/><path class="c" d="M3.805,0H189.251a3.805,3.805,0,0,1,3.805,3.805V17.754a0,0,0,0,1,0,0H0a0,0,0,0,1,0,0V3.805A3.805,3.805,0,0,1,3.805,0Z" transform="translate(0 474.642)"/><path class="c" d="M452.123,483.215h140.2c-51.014-18.322-31.281-190.906-21.849-256.327a21.869,21.869,0,0,0-21.661-24.976H455.428a38.256,38.256,0,0,0-37.916,33.019c-8.194,59.442-21.107,182.7,4.47,230.418A34.144,34.144,0,0,0,452.123,483.215Z" transform="translate(-406.734 -201.912)"/></g><g transform="translate(540.171 188.393)"><path class="e" d="M701.813,166.9H534.1a15.57,15.57,0,0,0-15.571,15.571v75.562A15.57,15.57,0,0,0,534.1,273.6h11.712v18.273a2.929,2.929,0,0,0,4.888,2.175L573.38,273.6H701.813a15.567,15.567,0,0,0,15.568-15.568V182.47A15.568,15.568,0,0,0,701.813,166.9Z" transform="translate(-518.294 -166.899)"/><g transform="translate(44.237 45.041)"><path class="f" d="M554.256,191.82a9.455,9.455,0,1,1-9.455-9.455A9.454,9.454,0,0,1,554.256,191.82Z" transform="translate(-535.345 -182.363)"/><path class="f" d="M567.95,191.82a9.455,9.455,0,1,1-9.455-9.455A9.455,9.455,0,0,1,567.95,191.82Z" transform="translate(-501.361 -182.363)"/><circle class="f" cx="9.455" cy="9.455" r="9.455" transform="translate(92.176)"/></g></g><g transform="translate(111.856 354.379)"><g transform="translate(4.102)"><path class="g" d="M439.158,257.81c0-18.495-13.061-37.026-29.171-37.026s-29.171,18.531-29.171,37.026,13.061,33.484,29.171,33.484S439.158,276.3,439.158,257.81Z" transform="translate(-380.816 -220.784)"/><path class="h" d="M395.343,220.784a21.534,21.534,0,0,0-7.488,1.408c12.475,4.6,21.686,20.1,21.686,35.618s-9.21,28.53-21.686,32.329a25.587,25.587,0,0,0,7.488,1.155c16.11,0,29.171-14.992,29.171-33.484S411.454,220.784,395.343,220.784Z" transform="translate(-366.172 -220.784)"/></g><g transform="translate(0 54.079)"><path class="i" d="M379.511,243.167l5.227,47.333a11.679,11.679,0,0,0,11.607,10.4h30.175a11.679,11.679,0,0,0,11.607-10.4l5.227-47.333a4.35,4.35,0,0,0-4.325-4.827H383.836A4.35,4.35,0,0,0,379.511,243.167Z" transform="translate(-379.484 -238.34)"/><path class="c" d="M383.833,245.413h55.2a4.285,4.285,0,0,1,3.81,2.424l.514-4.67a4.35,4.35,0,0,0-4.325-4.827h-55.2a4.349,4.349,0,0,0-4.322,4.827l.517,4.67A4.276,4.276,0,0,1,383.833,245.413Z" transform="translate(-379.484 -238.34)"/><path class="c" d="M420.189,238.34H401.054a4.35,4.35,0,0,1,4.322,4.827L400.148,290.5a11.677,11.677,0,0,1-11.607,10.4h19.138a11.679,11.679,0,0,0,11.607-10.4l5.227-47.333A4.35,4.35,0,0,0,420.189,238.34Z" transform="translate(-360.643 -238.34)"/></g></g><g transform="translate(211.253 192.975)"><g transform="translate(1.505 288.634)"><g transform="translate(80.875 21.298)"><path class="j" d="M478.629,349l-1.98,13.68L487.058,376l26.4-12.924,2.859-12.511L483.456,345.6Z" transform="translate(-359.123 -109.646)"/><path class="k" d="M502.4,381.491l2.726-3.373a1.27,1.27,0,0,1,1.956-.025l2.735,3.207a5.706,5.706,0,0,0,4.442,2.005l61.336-1.044a3.29,3.29,0,0,0,.1-4.636c-8.989-9.075-57.372-24.76-59.781-26.082s-17.2,10.174-36.807-.4c0,0-3.179,15.356-3.638,25.305a7.008,7.008,0,0,0,7.085,7.393l15.565-.265A5.615,5.615,0,0,0,502.4,381.491Z" transform="translate(-361.585 -98.11)"/><path class="k" d="M445.437,277.191s-25.469,28.155,21.168,58.749c32.717,21.467,58.5,14.909,79.036,27.921,4.818,3.05,8.477,7.59,8.816,13.283L555.5,508.761l2.483,1.232a45.228,45.228,0,0,0,39.33.431h0l18.572-150.177c.666-10.35-4.929-19.08-11.339-27.233-35.661-45.362-98.8-60.733-114.787-63.354C468.983,266.252,445.437,277.191,445.437,277.191Z" transform="translate(-438.496 -269.001)"/></g><path class="j" d="M445.83,348.955l-2.167,13.651,10.226,13.46L480.463,363.5l3.03-12.47-32.79-5.417Z" transform="translate(-346.872 -88.313)"/><path class="k" d="M469.23,381.794,472,378.458a1.27,1.27,0,0,1,1.956,0l2.692,3.247a5.707,5.707,0,0,0,4.414,2.064l61.346-.206a3.291,3.291,0,0,0,.169-4.633c-8.865-9.2-57.03-25.542-59.42-26.9s-17.342,9.94-36.8-.9c0,0-3.389,15.309-3.983,25.253a7,7,0,0,0,6.98,7.488l15.568-.052A5.614,5.614,0,0,0,469.23,381.794Z" transform="translate(-349.57 -76.841)"/><path class="k" d="M422.634,267.027s-30.856,34.4,13.763,73.245c31.3,27.252,59.4,15.6,79.11,32.221,4.624,3.9,7.818,9.195,7.359,15.226L508.774,521.6l1.063.69a42.418,42.418,0,0,0,41.145,2.806h0l34.891-141.081c2.184-10.781-2.443-20.759-8.009-30.246-30.964-52.791-79.584-84.257-96-89.306C460.514,257.9,422.634,267.027,422.634,267.027Z" transform="translate(-412.241 -262.087)"/><path class="l" d="M516.837,359.562a60.908,60.908,0,0,0-7.19-2.5c-1.3-6.29-4.393-12.38-7.836-18.22a241.609,241.609,0,0,0-53.016-62.15c11.182-1.9,16.874-4.294,19.97-7.439a210.2,210.2,0,0,1,33.5,9.087C517.435,303.7,517.386,344.884,516.837,359.562Z" transform="translate(-336.195 -247.176)"/></g><path class="i" d="M506.353,204.862s-44.505-5.933-63,28.746S397.234,404.236,421.384,408.37c10.7,1.833,39.21,9.007,70.809,6.7,43.442-3.179,52.887-7.177,56.02-15.439l27.677-126.693a53.581,53.581,0,0,0-21.011-44.73C532.7,211.4,506.353,204.862,506.353,204.862Z" transform="translate(-411.367 -93.305)"/><path class="c" d="M481.7,223.085s.576,76.3,24.563,80.921,87.858,3.179,87.858,3.179v24.276H457.131Z" transform="translate(-317.348 -54.593)"/><path class="m" d="M478.859,248.081l5.4-26.987-35-26.661-6.706,31.811S453.591,274.822,478.859,248.081Z" transform="translate(-347.679 -114.2)"/><path class="k" d="M532.811,223.85s-18.313,8.908-45.14-7.439c0,0-6.222,11.185-24.2,21.178,0,0-9.343-15.664-14.721-3.928a24.832,24.832,0,0,0-2.474,9.58c-16.837-21.747-4.966-50.4,10.735-65.849,14.878-14.659,47.083-8.831,67.2-.745,21.353,8.6,25.277-6.358,25.277-6.358C576.478,208.3,532.811,223.85,532.811,223.85Z" transform="translate(-356.981 -168.386)"/><path class="j" d="M457.943,205.152s-9.343-15.657-14.718-3.924c-6.524,14.234.838,23.164,9.669,23.164,0,0,7.014,37.023,41.031,34.408s38.927-57.246,33.367-67.386c0,0-18.319,8.915-45.14-7.439C482.152,183.974,475.936,195.177,457.943,205.152Z" transform="translate(-351.462 -135.958)"/><g transform="translate(155.84 155.795)"><path class="i" d="M660.455,218.963h-142a14.728,14.728,0,0,0-14.432,11.782l-18.9,92.655h172.06l17.7-86.768A14.724,14.724,0,0,0,660.455,218.963Z" transform="translate(-414.953 -218.963)"/><path class="n" d="M2.275,0h244.14a2.275,2.275,0,0,1,2.275,2.275V14.012a2.275,2.275,0,0,1-2.275,2.275H2.276A2.276,2.276,0,0,1,0,14.012V2.275A2.275,2.275,0,0,1,2.275,0Z" transform="translate(0 104.448)"/><path class="c" d="M657.906,252.87H484.512a7.008,7.008,0,0,1,7.008,7.011v2.27a7.008,7.008,0,0,1-7.008,7.008H657.906a7.01,7.01,0,0,0,7.008-7.008v-2.27A7.01,7.01,0,0,0,657.906,252.87Z" transform="translate(-416.224 -148.424)"/></g><path class="i" d="M582.17,338.612c-27.646-3.219-105.2-11.129-118.493-12.506-16.763-1.734,19.653-69.361,23.7-92.482s-13.581-23.987-13.581-23.987c-9.953-1.244-20.811,0-30.058,14.006-18.929,28.666-40.011,112.467-28.9,133.155a7.485,7.485,0,0,0,6.61,3.915H582.17Z" transform="translate(-411.752 -83.34)"/><path class="c" d="M553.988,338.613s-99.853-6.872-121.385-9.765c-16.7-2.239,18.113-71.529,22.16-94.648s-13.874-22.157-13.874-22.157a42.934,42.934,0,0,0-15.59,1.463c6.681-4.393,13.686-4.694,20.321-3.884,0,0,17.62.878,13.572,24s-35.258,89.3-24.711,91.906C447.459,328.725,526.335,335.4,553.988,338.613Z" transform="translate(-383.57 -83.338)"/><path class="j" d="M467.076,272.052h37.245a3.52,3.52,0,0,0,2.954-5.44c-3.487-5.36-9-12.928-13.033-14.213-2.409-.767-20.518-.089-27.166.613Z" transform="translate(-296.658 5.686)"/><path class="o" d="M501.9,186.389a29.752,29.752,0,0,1-8.437,2.107c-.45,2.52-1.263,7.365-1.7,11.958-.625,6.552,2.652,26.83.625,26.987a58.77,58.77,0,0,1-6.241-.157s-3.12,29.328-32.449,24.649c-.277-.043-.5-.074-.761-.114a37.071,37.071,0,0,0,15.6,1.956C502.554,251.157,507.461,196.53,501.9,186.389Z" transform="translate(-326.07 -130.934)"/></g><g transform="translate(651.938 457.263)"><g transform="translate(103.451 28.893)"><path class="g" d="M647.047,451.982s46.782-23.2,34.057-58.382-20.583-36.678,3.742-56.512,59.5-69.61,14.971-73.353-42.29,55.388-79.341,63.622S563.215,490.529,647.047,451.982Z" transform="translate(-588.399 -263.564)"/><path class="h" d="M595.485,455.466c8.985,4.165,21.064,3.758,36.82-3.487,0,0,46.782-23.2,34.057-58.382s-20.583-36.678,3.743-56.512,59.5-69.61,14.97-73.353a40.923,40.923,0,0,0-11.872.635c12.531,5.209,25,15.534,8.887,34.648-26.833,31.823-41.185,43.057-38.064,63.65C647.066,382.745,645.338,428.331,595.485,455.466Z" transform="translate(-573.656 -263.561)"/></g><g transform="translate(0 78.068)"><path class="g" d="M637.573,417.649s-41.169-1.5-38.924-31.066,3.392-30.724-22.453-40.045c-45.66-16.465-9.512-104.163,27.692-49.024,25.823,38.268,37.051,29.658,53.891,32.652S711.3,430.747,637.573,417.649Z" transform="translate(-554.815 -279.528)"/><path class="p" d="M655.67,330.162c-16.84-2.994-28.068,5.612-53.891-32.655-19.474-28.86-38.634-18.568-45.95.142,10.957-3.358,27.6-5.372,29.67,12.457,2.689,23.131,56.808,61.115,55.7,108.33.718.077,1.411.126,2.107.179,7.873-20.762,18.267-47.7,27.163-70.645C665.712,338.076,660.032,330.939,655.67,330.162Z" transform="translate(-552.705 -279.524)"/></g><g transform="translate(55.003)"><path class="q" d="M609.969,469.061s-51.085-49.961-33.684-58.382,51.649,19.086,32.56-10.667-41.311-76.1-14.925-68.8,28.3,15.316,25.031-19.339c-4.223-44.822,20.771-67.925,44.348-53.33s-20.21,113.4-3.931,102.733,29.753-19.65,33.123-6.737-46.609,63.607-28.071,55.012c23.017-10.664,26.386,8.422,19.089,20.21S645.9,511.728,609.969,469.061Z" transform="translate(-572.671 -254.184)"/><path class="r" d="M650.39,429.741c7.3-11.789,3.927-30.875-19.089-20.21-18.538,8.594,31.438-42.1,28.071-55.012s-16.843-3.931-33.123,6.737,27.508-88.139,3.931-102.733c-10.966-6.786-22.2-5.335-30.7,2.578,12.2,2.985,21.979,12.8,15.2,39.312-14.351,56.158-23.087,102.958,3.12,89.229,24.689-12.928-28.669,46.662-29.214,89.608C619.225,496.755,643.9,440.221,650.39,429.741Z" transform="translate(-539.551 -254.16)"/></g><g transform="translate(56.878 211.609)"><path class="i" d="M573.331,332.007l9.885,89.516a22.085,22.085,0,0,0,21.951,19.659h57.061a22.085,22.085,0,0,0,21.951-19.659l9.885-89.516a8.223,8.223,0,0,0-8.175-9.127H581.506A8.223,8.223,0,0,0,573.331,332.007Z" transform="translate(-573.28 -322.88)"/><path class="c" d="M650.258,322.88H614.066a8.223,8.223,0,0,1,8.175,9.127l-9.885,89.516a22.087,22.087,0,0,1-21.951,19.659H626.6a22.085,22.085,0,0,0,21.951-19.659l9.885-89.516A8.223,8.223,0,0,0,650.258,322.88Z" transform="translate(-537.65 -322.88)"/></g></g><g transform="translate(66.879 470.422)"><g transform="translate(19.321)"><rect class="f" width="636.691" height="28.901" rx="4.037"/><path class="s" d="M995.412,258.456H383.591a12.434,12.434,0,0,0-12.435,12.435v4.029a12.293,12.293,0,0,0,.644,3.764,12.389,12.389,0,0,1,11.792-8.668H995.412a12.4,12.4,0,0,1,11.792,8.668,12.293,12.293,0,0,0,.641-3.764v-4.029A12.433,12.433,0,0,0,995.412,258.456Z" transform="translate(-371.155 -258.455)"/></g><g transform="translate(0 29.045)"><g transform="translate(62.426)"><path class="t" d="M547.858,556.025H527.409L385.149,267.885H405.6Z" transform="translate(-385.149 -267.885)"/></g><path class="t" d="M364.883,556.025h20.449l142.26-288.14H507.144Z" transform="translate(-364.883 -267.885)"/><g transform="translate(502.873)"><path class="t" d="M690.843,556.025H670.394l-142.26-288.14h20.449Z" transform="translate(-528.134 -267.885)"/></g><g transform="translate(440.447)"><path class="t" d="M507.868,556.025h20.448l142.26-288.14H650.128Z" transform="translate(-507.868 -267.885)"/></g><g transform="translate(62.426)"><path class="u" d="M411.234,279.3,405.6,267.885H385.149l5.636,11.416Z" transform="translate(-385.149 -267.885)"/></g><g transform="translate(136.625)"><path class="u" d="M429.685,279.3l5.637-11.416H414.873L409.237,279.3Z" transform="translate(-409.237 -267.885)"/></g><g transform="translate(502.873)"><path class="u" d="M554.219,279.3l-5.636-11.416H528.134L533.77,279.3Z" transform="translate(-528.134 -267.885)"/></g><g transform="translate(577.071)"><path class="u" d="M572.67,279.3l5.636-11.416H557.858L552.222,279.3Z" transform="translate(-552.222 -267.885)"/></g></g></g></g><g class="v" transform="matrix(0.588, -0.809, 0.809, 0.588, 1251.169, 296.081)"><g transform="translate(13.47)"><path class="w" d="M991.308,573.025,967.676,565a4.773,4.773,0,0,1-2.985-6.054h0a4.773,4.773,0,0,1,6.054-2.986l23.632,8.024a4.773,4.773,0,0,1,2.985,6.054h0A4.773,4.773,0,0,1,991.308,573.025Z" transform="translate(-961.33 -493.686)"/><path class="w" d="M986.719,586.54l-23.632-8.024a4.773,4.773,0,0,1-2.986-6.054h0a4.774,4.774,0,0,1,6.055-2.985l23.632,8.024a4.773,4.773,0,0,1,2.985,6.054h0A4.773,4.773,0,0,1,986.719,586.54Z" transform="translate(-959.847 -498.054)"/><path class="w" d="M967.851,501.655h0c.025.078.049.156.074.233a64.679,64.679,0,0,1,2.343,24.214l25.353,8.369a64.68,64.68,0,0,1,16.3-18.061c.066-.047.132-.1.2-.143h0c.691-.5,1.363-1.023,2.01-1.581a28.807,28.807,0,1,0-46.953-15.5C967.365,500.021,967.592,500.843,967.851,501.655Z" transform="translate(-961.989 -464.074)"/><path class="w" d="M966.534,583.766a11.378,11.378,0,0,0,20.754,7.047Z" transform="translate(-962.002 -502.754)"/><path class="w" d="M983.414,545.812l7.535-22.829a4.286,4.286,0,1,0-5.413,2.726l9.041,2.984" transform="translate(-967.197 -481.291)"/><path class="w" d="M998.494,551.943l7.536-22.828a4.285,4.285,0,1,1,2.726,5.413l-9.04-2.984" transform="translate(-972.336 -484.141)"/></g><g transform="translate(74.135 34.899)"><line class="x" x2="7.635" y2="2.52" transform="translate(5.342 10.821)"/><line class="x" y1="1.2" x2="7.95" transform="translate(8.843)"/><line class="x" x2="5.673" y2="5.697" transform="translate(0 19.069)"/></g><g transform="translate(0 6.803)"><line class="x" x1="7.635" y1="2.52" transform="translate(0.933 12.991)"/><line class="x" x1="5.673" y1="5.697" transform="translate(5.809)"/><line class="x" x1="7.95" y2="1.2" transform="translate(0 25.319)"/></g></g><g class="v" transform="translate(1744.362 269.865)"><g transform="translate(0 48.106)"><path class="x" d="M1015.11,330.78l-21.287,20.929a5.71,5.71,0,0,1-8.074-.069h0a5.71,5.71,0,0,1,.069-8.074l21.287-20.928a5.709,5.709,0,0,1,8.074.069h0A5.709,5.709,0,0,1,1015.11,330.78Z" transform="translate(-984.111 -321)"/></g><ellipse class="x" cx="24.531" cy="24.531" rx="24.531" ry="24.531" transform="translate(31.57)"/><ellipse class="x" cx="17.7" cy="17.7" rx="17.7" ry="17.7" transform="translate(38.401 6.831)"/><line class="x" x1="6.883" y2="6.883" transform="translate(31.872 41.877)"/></g><g class="v" transform="translate(1675.342 525.633)"><g transform="translate(19.087 0)"><rect class="y" width="18.529" height="76.389" transform="translate(0 8.066) rotate(-25.804)"/><line class="y" x1="8.341" y2="4.033" transform="translate(12.329 8.248)"/><line class="y" x1="8.341" y2="4.033" transform="translate(20.033 24.183)"/><line class="y" x1="8.341" y2="4.033" transform="translate(27.738 40.118)"/><line class="y" x1="8.341" y2="4.033" transform="translate(35.442 56.053)"/><line class="y" x1="4.17" y2="2.016" transform="translate(19.05 13.523)"/><line class="y" x1="4.17" y2="2.016" transform="translate(21.627 18.853)"/><line class="y" x1="4.17" y2="2.016" transform="translate(26.768 29.486)"/><line class="y" x1="4.17" y2="2.016" transform="translate(29.344 34.816)"/><line class="y" x1="4.17" y2="2.016" transform="translate(34.485 45.448)"/><line class="y" x1="4.17" y2="2.016" transform="translate(37.062 50.778)"/></g><g transform="translate(0 15.543)"><g transform="translate(7.658 13.523)"><line class="y" x1="5.003" y2="2.419" transform="translate(2.653 10.66)"/><line class="y" x1="5.003" y2="2.419" transform="translate(10.357 26.595)"/><line class="y" x1="5.003" y2="2.419" transform="translate(18.062 42.53)"/><line class="y" x1="2.501" y2="1.209"/><line class="y" x1="2.501" y2="1.209" transform="translate(2.577 5.33)"/><line class="y" x1="2.501" y2="1.209" transform="translate(7.718 15.962)"/><line class="y" x1="2.501" y2="1.209" transform="translate(10.295 21.292)"/><line class="y" x1="2.501" y2="1.209" transform="translate(15.436 31.925)"/><line class="y" x1="2.501" y2="1.209" transform="translate(23.266 48.12)"/><line class="y" x1="2.501" y2="1.209" transform="translate(18.012 37.255)"/></g><path class="y" d="M774.8,398.09l3.621-86.6,33.251,68.773Z" transform="translate(-774.805 -311.49)"/><path class="y" d="M795.342,412.409l.991-23.688,9.1,18.811Z" transform="translate(-783.434 -343.941)"/></g></g><g class="v" transform="translate(917.983 767.215)"><g transform="translate(38.96 86.834)"><g transform="translate(0 0)"><path class="x" d="M3.9,0H25.7a3.9,3.9,0,0,1,3.9,3.9v4.29a0,0,0,0,1,0,0H0a0,0,0,0,1,0,0V3.9A3.9,3.9,0,0,1,3.9,0Z" transform="translate(0 6.657) rotate(-13)"/></g></g><ellipse class="w" cx="29.564" cy="29.564" rx="29.564" ry="29.564" transform="matrix(0.778, -0.628, 0.628, 0.778, 0, 37.114)"/><path class="y" d="M1097.813,709.544l-27.575-52.305-3.444-6.35a36.788,36.788,0,1,0,34.312,65.085l-3.369-6.39" transform="translate(-1042.453 -641.82)"/><ellipse class="w" cx="18.48" cy="6.495" rx="18.48" ry="6.495" transform="translate(11.437 24.038) rotate(-27.798)"/><path class="w" d="M1097.572,739.18a29.537,29.537,0,0,0,32.695-17.236,29.538,29.538,0,0,0-32.695,17.236Z" transform="translate(-1061.589 -668.583)"/><ellipse class="w" cx="14.782" cy="29.564" rx="14.782" ry="29.564" transform="translate(14.708 22.313) rotate(-27.798)"/><line class="w" y1="27.575" x2="52.305" transform="translate(15.419 27.785)"/><line class="w" x2="3.054" y2="12.733" transform="translate(50.158 77.375)"/><line class="x" y1="8.817" x2="36.762" transform="translate(37.334 93.839)"/></g><g class="v" transform="translate(1015.885 444.239)"><ellipse class="y" cx="51.193" cy="24.265" rx="51.193" ry="24.265" transform="translate(0 32.08)"/><ellipse class="y" cx="51.193" cy="24.265" rx="51.193" ry="24.265" transform="translate(3.845 87.453) rotate(-58.666)"/><ellipse class="y" cx="24.265" cy="51.193" rx="24.265" ry="51.193" transform="translate(3.845 25.237) rotate(-31.334)"/><ellipse class="y" cx="6.422" cy="6.422" rx="6.422" ry="6.422" transform="translate(44.771 49.923)"/></g></g></svg>