<svg height="472pt" viewBox="-67 0 471 472" width="472pt" xmlns="http://www.w3.org/2000/svg"><path d="m88.5 80c0-44.183594 35.816406-80 80-80s80 35.816406 80 80h32c30.929688 0 56 25.070312 56 56s-25.070312 56-56 56h-224c-30.929688 0-56-25.070312-56-56s25.070312-56 56-56zm0 0" fill="#efefef"/><path d="m16.5 304h112c8.835938 0 16 7.164062 16 16v72h-144v-72c0-8.835938 7.164062-16 16-16zm0 0" fill="#75c1ff"/><path d="m.5 392h144v24c0 8.835938-7.164062 16-16 16h-112c-8.835938 0-16-7.164062-16-16zm0 0" fill="#efefef"/><path d="m64.5 432h16v32h-16zm0 0" fill="#bcbcbc"/><path d="m40.5 456h64v16h-64zm0 0" fill="#efefef"/><path d="m208.5 296h80c8.835938 0 16 7.164062 16 16v112h-112v-112c0-8.835938 7.164062-16 16-16zm0 0" fill="#75c1ff"/><g fill="#cc995e"><path d="m176.5 139.3125 18.34375 18.34375 11.3125-11.3125-37.65625-37.65625-37.65625 37.65625 11.3125 11.3125 18.34375-18.34375v100.6875h-72v16h160v-16h-72zm0 0"/><path d="m64.5 264h16v40h-16zm0 0"/><path d="m256.5 264h16v32h-16zm0 0"/></g><path d="m192.5 424h112v24c0 8.835938-7.164062 16-16 16h-80c-8.835938 0-16-7.164062-16-16zm0 0" fill="#efefef"/><path d="m88.5 248c0 8.835938-7.164062 16-16 16s-16-7.164062-16-16 7.164062-16 16-16 16 7.164062 16 16zm0 0" fill="#cc995e"/><path d="m72.5 272c-13.253906 0-24-10.746094-24-24s10.746094-24 24-24 24 10.746094 24 24c-.015625 13.25-10.75 23.984375-24 24zm0-32c-4.417969 0-8 3.582031-8 8s3.582031 8 8 8 8-3.582031 8-8c-.003906-4.417969-3.582031-7.996094-8-8zm0 0" fill="#ffbf75"/><path d="m280.5 248c0 8.835938-7.164062 16-16 16s-16-7.164062-16-16 7.164062-16 16-16 16 7.164062 16 16zm0 0" fill="#cc995e"/><path d="m264.5 272c-13.253906 0-24-10.746094-24-24s10.746094-24 24-24 24 10.746094 24 24c-.015625 13.25-10.75 23.984375-24 24zm0-32c-4.417969 0-8 3.582031-8 8s3.582031 8 8 8 8-3.582031 8-8c-.003906-4.417969-3.582031-7.996094-8-8zm0 0" fill="#ffbf75"/></svg>