<svg id="Layer_1" height="512" viewBox="0 0 150 150" width="512" xmlns="http://www.w3.org/2000/svg" data-name="Layer 1"><circle cx="75" cy="75" fill="#e05b49" r="64"/><path d="m92.93 92.49h-1.79v-9.6h-31.45v9.6h-1.79v-11.4h35.03z" fill="#2f4859"/><path d="m74.1 59.93h1.79v22.06h-1.79z" fill="#3a556a"/><path d="m103.71 52.71a9.49 9.49 0 0 0 .34-2.46 9.28 9.28 0 0 0 -11.58-9 13.06 13.06 0 0 0 -23.84-4.45 11.06 11.06 0 0 0 -17.28 11.11 12.77 12.77 0 1 0 9.54 23.63 11 11 0 0 0 13.57-.66 11 11 0 0 0 15.4-1 11.05 11.05 0 0 0 13.85-17.21z" fill="#d5d6db"/><path d="m103.71 50.67a9.56 9.56 0 0 0 .34-2.47 9.28 9.28 0 0 0 -11.58-9 13.05 13.05 0 0 0 -23.84-4.44 10.93 10.93 0 0 0 -6.44-2.07 11.06 11.06 0 0 0 -10.84 13.18 12.77 12.77 0 1 0 9.54 23.62 11 11 0 0 0 13.57-.65 11.06 11.06 0 0 0 15.4-1 11.05 11.05 0 0 0 13.85-17.21z" fill="#e1e6e9"/><path d="m83.16 88.33h17.51v33.02h-17.51z" fill="#3a556a"/><g fill="#64798a"><path d="m85.33 90.65h13.23v3.75h-13.23z"/><path d="m85.33 95.29h13.23v3.75h-13.23z"/><path d="m85.33 99.93h13.23v3.75h-13.23z"/></g><circle cx="91.92" cy="110.06" fill="#d15241" r="1.47"/><path d="m50.25 88.33h17.51v33.02h-17.51z" fill="#3a556a"/><path d="m52.42 90.65h13.23v3.75h-13.23z" fill="#64798a"/><path d="m52.42 95.29h13.23v3.75h-13.23z" fill="#64798a"/><path d="m52.42 99.93h13.23v3.75h-13.23z" fill="#64798a"/><path d="m59 108.59a1.47 1.47 0 1 0 1.46 1.47 1.47 1.47 0 0 0 -1.46-1.47z" fill="#d15241"/><path d="m85.57 51.35v-4.17a.72.72 0 0 0 -.51-.69 4 4 0 0 1 -2.88-3.34.73.73 0 0 0 -.61-.61l-6-.88h-.21l-6 .88a.72.72 0 0 0 -.61.61 4 4 0 0 1 -2.88 3.34.73.73 0 0 0 -.52.69v4.17c0 .39-.36 9.61 9.91 13.31a.72.72 0 0 0 .5 0c10.17-3.66 9.83-12.92 9.81-13.31z" fill="#44c4a1"/><path d="m83.53 51.52v-3.44a5.25 5.25 0 0 1 -3.09-3.57l-5-.73-5 .73a5.26 5.26 0 0 1 -3.08 3.57v3.44c0 .08-.38 7.78 8.11 11 8.36-3.19 8.07-10.68 8.06-11z" fill="#3ea69b"/><path d="m75.41 47.58a4.93 4.93 0 1 0 4.93 4.92 4.92 4.92 0 0 0 -4.93-4.92z" fill="#ebf0f3"/><path d="m74.43 54.66-1.95-1.94.95-.95 1 1 2.49-2.49.95.95z" fill="#2f4859"/></svg>